<svg width="35" height="35" viewBox="0 0 35 35" fill="none" xmlns="http://www.w3.org/2000/svg">
<path d="M27.6545 0.267761H7.48974C5.59412 0.269891 3.77675 1.02387 2.43635 2.36427C1.09595 3.70467 0.341973 5.52204 0.339844 7.41765V27.5825C0.341992 29.4781 1.09597 31.2954 2.43638 32.6358C3.77678 33.9762 5.59413 34.7301 7.48974 34.7323H27.6545C29.5501 34.7301 31.3675 33.9762 32.7079 32.6358C34.0482 31.2954 34.8022 29.478 34.8044 27.5825V7.41765C34.8022 5.52205 34.0483 3.70469 32.7079 2.36429C31.3675 1.02389 29.5501 0.26991 27.6545 0.267761ZM33.9499 27.5825C33.948 29.2515 33.2841 30.8516 32.1039 32.0318C30.9237 33.212 29.3236 33.8759 27.6545 33.8778H7.48974C5.82068 33.8759 4.22053 33.212 3.04032 32.0318C1.86012 30.8517 1.19624 29.2515 1.19434 27.5825V7.41765C1.19622 5.74859 1.86009 4.14842 3.0403 2.96821C4.22051 1.78801 5.82067 1.12414 7.48974 1.12225H27.6545C29.3236 1.12416 30.9237 1.78803 32.1039 2.96824C33.2841 4.14845 33.948 5.7486 33.9499 7.41765V27.5825Z" fill="#19C8DB"/>
<path d="M29.4626 13.9396H23.0539V10.0232C23.0539 9.96225 23.0408 9.90197 23.0156 9.84646C22.9904 9.79094 22.9536 9.74147 22.9076 9.70137L17.8519 5.28649C17.774 5.21854 17.6742 5.18109 17.5709 5.18109C17.4676 5.18109 17.3677 5.21854 17.2899 5.28649L12.2342 9.70137C12.1882 9.74147 12.1514 9.79094 12.1262 9.84646C12.1009 9.90197 12.0879 9.96225 12.0879 10.0232V22.0573H5.6792C5.56589 22.0573 5.45722 22.1023 5.37709 22.1825C5.29697 22.2626 5.25195 22.3713 5.25195 22.4846V24.2648C5.25195 24.3781 5.29697 24.4867 5.37709 24.5669C5.45722 24.647 5.56589 24.692 5.6792 24.692H6.17765V29.3917C6.17765 29.505 6.22267 29.6137 6.30279 29.6938C6.38292 29.7739 6.49159 29.819 6.6049 29.819C6.71821 29.819 6.82688 29.7739 6.90701 29.6938C6.98713 29.6137 7.03215 29.505 7.03215 29.3917V24.692H12.0879V29.3917C12.0879 29.505 12.1329 29.6137 12.213 29.6938C12.2932 29.7739 12.4018 29.819 12.5151 29.819H22.6266C22.6966 29.8003 22.7703 29.8003 22.8403 29.819H29.4626C29.5759 29.819 29.6846 29.7739 29.7647 29.6938C29.8448 29.6137 29.8898 29.505 29.8898 29.3917V14.3669C29.8898 14.2536 29.8448 14.1449 29.7647 14.0648C29.6846 13.9847 29.5759 13.9396 29.4626 13.9396ZM17.5709 6.17559L21.8955 9.95202H13.2462L17.5709 6.17559ZM6.10645 23.8375V22.9118H12.0879V23.8375H6.10645ZM19.3511 28.9645H15.6483V25.5465C15.6483 25.0555 15.8433 24.5846 16.1905 24.2374C16.5377 23.8902 17.0087 23.6951 17.4997 23.6951C17.9907 23.6951 18.4616 23.8902 18.8088 24.2374C19.156 24.5846 19.3511 25.0555 19.3511 25.5465V28.9645ZM20.2056 28.9645V25.5465C20.2056 24.8289 19.9205 24.1406 19.413 23.6331C18.9056 23.1257 18.2173 22.8406 17.4997 22.8406C16.782 22.8406 16.0938 23.1257 15.5863 23.6331C15.0789 24.1406 14.7938 24.8289 14.7938 25.5465V28.9645H12.9424V10.8065H22.1994V28.9645H20.2056ZM29.0353 28.9645H23.0539V14.7941H29.0353V28.9645Z" fill="#19C8DB"/>
<path d="M19.6535 14.2063H19.2984V13.8512C19.2981 13.5698 19.1861 13.3 18.9871 13.101C18.7881 12.9019 18.5183 12.79 18.2368 12.7897H16.7634C16.482 12.79 16.2121 12.9019 16.0131 13.101C15.8141 13.3 15.7022 13.5698 15.7018 13.8512V14.2063H15.3467C15.0653 14.2067 14.7954 14.3186 14.5964 14.5176C14.3974 14.7166 14.2855 14.9865 14.2852 15.2679V16.7413C14.2855 17.0228 14.3974 17.2926 14.5964 17.4916C14.7954 17.6906 15.0653 17.8026 15.3467 17.8029H15.7018V18.158C15.7022 18.4395 15.8141 18.7093 16.0131 18.9083C16.2121 19.1073 16.482 19.2193 16.7634 19.2196H18.2368C18.5183 19.2193 18.7881 19.1073 18.9871 18.9083C19.1861 18.7093 19.2981 18.4395 19.2984 18.158V17.8029H19.6535C19.9349 17.8026 20.2048 17.6906 20.4038 17.4916C20.6028 17.2926 20.7147 17.0228 20.7151 16.7413V15.2679C20.7147 14.9865 20.6028 14.7166 20.4038 14.5176C20.2048 14.3186 19.9349 14.2067 19.6535 14.2063ZM19.8606 16.7413C19.8605 16.7962 19.8387 16.8489 19.7999 16.8877C19.761 16.9265 19.7084 16.9484 19.6535 16.9484H18.8711C18.7578 16.9484 18.6492 16.9934 18.569 17.0736C18.4889 17.1537 18.4439 17.2623 18.4439 17.3757V18.158C18.4438 18.2129 18.422 18.2656 18.3832 18.3044C18.3444 18.3432 18.2917 18.365 18.2368 18.3651H16.7634C16.7085 18.365 16.6559 18.3432 16.617 18.3044C16.5782 18.2656 16.5564 18.2129 16.5563 18.158V17.3757C16.5563 17.2623 16.5113 17.1537 16.4312 17.0736C16.3511 16.9934 16.2424 16.9484 16.1291 16.9484H15.3467C15.2918 16.9484 15.2392 16.9265 15.2004 16.8877C15.1615 16.8489 15.1397 16.7962 15.1396 16.7413V15.2679C15.1397 15.213 15.1615 15.1604 15.2004 15.1216C15.2392 15.0827 15.2918 15.0609 15.3467 15.0608H16.1291C16.2424 15.0608 16.3511 15.0158 16.4312 14.9357C16.5113 14.8556 16.5563 14.7469 16.5563 14.6336V13.8512C16.5564 13.7963 16.5782 13.7437 16.617 13.7049C16.6559 13.6661 16.7085 13.6442 16.7634 13.6442H18.2368C18.2917 13.6442 18.3444 13.6661 18.3832 13.7049C18.422 13.7437 18.4438 13.7963 18.4439 13.8512V14.6336C18.4439 14.7469 18.4889 14.8556 18.569 14.9357C18.6492 15.0158 18.7578 15.0608 18.8711 15.0608H19.6535C19.7084 15.0609 19.761 15.0827 19.7999 15.1216C19.8387 15.1604 19.8605 15.213 19.8606 15.2679V16.7413Z" fill="#19C8DB"/>
</svg>
