<svg width="518" height="291" viewBox="0 0 518 291" fill="none" xmlns="http://www.w3.org/2000/svg">
<g clip-path="url(#clip0_104_1568)">
<path fill-rule="evenodd" clip-rule="evenodd" d="M316.056 80.9596C317.208 81.9553 321.01 84.488 323.939 87.248C326.684 90.0022 329.125 93.0469 331.219 96.3289C333.523 99.576 336.087 103.245 338.133 105.713C340.179 108.181 341.74 109.501 342.107 111.384C342.473 113.268 341.676 115.714 341.03 117.251C340.383 118.788 339.953 119.48 340.33 119.773C340.707 120.065 342.01 119.957 342.667 120.346C343.323 120.736 343.356 121.613 342.667 122.836C341.684 124.315 340.562 125.695 339.317 126.959C338.068 128.312 336.991 129.46 336.323 130.271C335.656 131.083 335.376 131.559 336.151 131.917C336.927 132.274 338.747 132.501 339.673 132.999C340.599 133.497 340.631 134.081 340.33 135.077C339.719 136.77 338.719 138.294 337.411 139.525C335.44 141.625 332.145 144.461 330.26 146.117C328.376 147.773 327.902 148.282 330.11 147.199C333.597 145.498 336.965 143.56 340.19 141.398C342.275 139.99 344.031 138.143 345.337 135.986C346.414 134.373 347.362 132.815 347.19 133.821C347.017 134.828 345.714 138.421 344.637 141.452C343.56 144.483 342.71 146.95 342.128 148.855C341.547 150.76 341.202 152.102 341.363 152.524C341.525 152.947 342.214 152.395 343.894 150.143C345.938 147.178 348.145 144.331 350.507 141.614C352.747 139.298 354.523 138.627 356.785 139.082C359.047 139.536 361.76 141.127 364.022 142.231C366.283 143.335 368.06 143.931 368.254 143.628C368.448 143.324 367.08 142.112 366.327 140.554C365.558 138.948 365.435 137.107 365.982 135.412C366.623 133.711 367.746 132.236 369.213 131.17C370.591 130.087 372.099 129.46 372.81 128.431C373.374 127.325 373.556 126.06 373.327 124.838C373.163 123.812 373.264 122.762 373.617 121.786C374.153 120.49 375.032 119.367 376.159 118.539C377.322 117.749 378.7 117.456 381.123 118.831C383.547 120.206 387.014 123.16 391.15 125.996C395.285 128.832 400.099 131.549 403.62 133.475C407.142 135.402 409.36 136.549 410.405 137.512C411.45 138.476 411.31 139.255 409.522 139.612C407.734 139.969 404.31 139.904 401.143 141.3C397.977 142.697 395.091 145.63 391.688 148.996C388.285 152.362 384.387 156.378 380.337 159.993C376.649 163.354 372.686 166.399 368.491 169.095C365.83 170.721 362.999 172.046 360.048 173.046C358.196 173.695 357.485 173.857 358.702 173.89C361.356 173.891 363.997 173.527 366.553 172.808C369.942 171.796 373.219 170.435 376.331 168.749C378.69 167.482 379.497 166.768 379.928 166.887C380.359 167.006 380.434 167.97 379.928 168.954C379.031 170.367 377.804 171.538 376.353 172.364C373.733 174.179 370.848 175.574 367.802 176.498C364.277 177.424 360.67 178 357.033 178.219C355.275 178.237 353.523 178.418 351.799 178.761C351.392 178.851 351.027 179.074 350.76 179.395C350.493 179.717 350.34 180.117 350.323 180.536C350.34 180.966 350.441 181.389 350.622 181.779C350.803 182.17 351.059 182.52 351.376 182.81C351.692 183.1 352.063 183.324 352.467 183.469C352.87 183.614 353.299 183.676 353.727 183.653C354.308 183.577 354.545 183.241 354.997 183.566C355.45 183.891 356.128 184.865 356.516 185.2C356.903 185.536 357 185.2 357.27 184.508C357.494 183.709 357.891 182.97 358.433 182.343C358.885 182.04 359.359 182.581 359.811 182.765C360.263 182.949 360.705 182.765 361.513 182.44C362.376 181.952 363.375 181.762 364.356 181.899C364.49 181.95 364.617 182.02 364.733 182.105C366.339 181.385 368.079 181.016 369.837 181.023H373.585C373.983 181.023 374.371 181.023 374.759 181.077C375.771 179.529 376.794 178.035 377.914 176.542C380.001 173.796 382.279 171.203 384.731 168.781C387.062 166.708 389.257 164.485 391.3 162.125C393.05 159.659 394.619 157.069 395.996 154.375C397.112 152.346 398.372 150.4 399.765 148.552C400.842 147.091 401.865 146.074 402.608 145.955C403.351 145.836 403.847 146.615 405.494 146.647C407.548 146.536 409.573 146.101 411.493 145.359C413.033 144.753 413.334 144.277 414.077 145.11C415.276 146.805 416.22 148.669 416.877 150.641C417.876 153.353 418.326 156.238 418.202 159.127C418.083 162.547 417.276 166.703 417.028 170.426C416.803 173.45 416.954 176.49 417.48 179.475C417.588 180.059 417.707 180.557 417.825 181.023H422.133C422.494 180.481 422.929 179.993 423.425 179.572C424.233 178.977 425.04 179.215 425.062 180.557C425.062 180.698 425.062 180.86 425.062 181.023H441.162H441.948H442.745H452.728C456.652 180.905 460.527 181.919 463.896 183.945C467.054 185.973 469.475 188.972 470.799 192.496L473.534 187.473C475 184.689 477.488 182.589 480.47 181.618L479.177 181.25C477.218 180.694 475.3 180 473.437 179.172C471.973 178.468 471.337 177.895 471.154 176.866C470.971 175.838 471.24 174.345 470.68 173.446C470.12 172.548 468.742 172.245 465.231 171.097C460.687 169.671 456.253 167.913 451.963 165.837C448.536 164.04 445.408 161.717 442.691 158.954C440.042 156.421 437.242 153.542 434.614 150.619C432.074 147.498 429.302 144.574 426.322 141.874C423.113 139.327 419.698 137.053 416.113 135.077L408.036 130.412C405.074 128.68 401.23 126.418 397.127 124.167C393.023 121.916 388.651 119.686 385.787 118.203C382.922 116.72 381.576 115.963 379.583 115.735C377.366 115.622 375.143 115.643 372.928 115.8C371.06 115.9 369.201 115.492 367.543 114.621C364.495 112.977 361.536 111.171 358.68 109.209C354.76 106.633 349.774 103.321 345.703 100.615C341.633 97.9091 338.467 95.8094 334.988 93.2442C331.51 90.6791 327.6 87.6701 324.714 85.5054C322.642 83.9418 320.44 82.5586 318.134 81.3709C316.4 80.505 314.903 79.953 316.056 80.9379V80.9596ZM436.003 227.174L436.973 226.362V209.586H436.003V227.174ZM506.574 234.566C507.78 234.664 508.943 234.75 510.063 234.815C514.651 235.108 518.625 235.14 517.914 232.564C517.203 229.988 511.97 224.988 506.574 219.652V234.566Z" fill="#19C8DB"/>
<path d="M72.1544 245.054C76.4393 245.143 80.7058 244.465 84.7544 243.052C86.4985 242.413 88.0919 241.417 89.4339 240.128C90.7759 238.839 91.8374 237.284 92.5513 235.562L93.5098 233.495L65.4021 175.719C63.717 171.697 61.224 168.067 58.079 165.058C55.4201 162.545 52.0163 160.975 48.3867 160.588V157.839H62.1175C66.8866 157.765 71.5568 159.208 75.4606 161.962C79.3744 164.759 82.4689 168.56 84.4206 172.97L103.31 211.761L127.541 157.839H136.436L101.393 235.562C99.6655 239.913 96.6603 243.632 92.7775 246.223C88.645 248.84 83.8319 250.162 78.9498 250.022H72.1544V245.076V245.054ZM145.213 204.304C145.349 202.133 144.949 199.962 144.05 197.983C143.274 196.619 141.713 195.937 139.387 195.937H138.557V193.426H161.442C166.804 193.353 172.112 194.512 176.961 196.814C181.591 199.08 183.907 203.554 183.907 210.235C183.907 214.565 182.701 217.938 180.288 220.355C178.061 222.65 175.26 224.298 172.179 225.128C169.493 225.864 166.725 226.256 163.941 226.297H156.036V248.626H145.159V204.25L145.213 204.304ZM160.968 222.964C163.95 223.072 166.854 221.99 169.045 219.955C171.142 217.942 172.193 214.568 172.201 209.835C172.208 205.101 171.167 201.753 169.077 199.791C168.058 198.799 166.851 198.021 165.53 197.503C164.208 196.984 162.796 196.736 161.378 196.771C160.12 196.739 158.862 196.852 157.63 197.106L155.971 197.355V222.964H160.968ZM197.077 246.451C199.681 246.507 202.274 246.097 204.734 245.238C205.793 244.845 206.759 244.238 207.574 243.454C208.389 242.67 209.036 241.727 209.473 240.682L210.054 239.426L192.996 204.304C191.978 201.852 190.463 199.641 188.548 197.81C186.941 196.283 184.879 195.328 182.679 195.093V193.416H191.004C193.904 193.364 196.746 194.235 199.124 195.905C201.502 197.605 203.384 199.915 204.573 202.594L216.053 226.211L230.785 193.426H236.17L214.868 240.682C213.823 243.335 211.992 245.602 209.624 247.176C207.112 248.761 204.188 249.56 201.224 249.47H197.077V246.451ZM265.473 250.304C260.305 250.442 255.199 249.154 250.708 246.58C246.649 244.181 243.368 240.651 241.264 236.417C239.045 231.9 237.926 226.918 238.001 221.881C237.937 216.576 239.169 211.336 241.587 206.62C243.837 202.183 247.243 198.443 251.441 195.797C255.631 193.148 260.491 191.769 265.441 191.824C269.598 191.708 273.742 192.346 277.674 193.708C280.537 194.684 283.11 196.366 285.159 198.6C286.203 199.983 286.838 201.633 286.99 203.362C287.248 206.002 287.36 208.654 287.324 211.307H284.836C283.781 206.176 281.839 202.273 279.01 199.596C275.987 196.849 272.011 195.407 267.939 195.58C262.289 195.58 257.823 197.59 254.542 201.609C251.261 205.628 249.639 212.385 249.674 221.881C249.674 228.974 251.171 234.859 254.165 239.534C257.159 244.21 261.765 246.552 267.982 246.559C271.77 246.59 275.485 245.514 278.676 243.463C282.037 241.267 284.751 238.206 286.538 234.599L289.456 236.861C287.211 241.096 283.86 244.635 279.764 247.1C275.994 249.265 271.224 250.347 265.451 250.347L265.473 250.304ZM299.385 204.304C299.521 202.133 299.122 199.962 298.222 197.983C297.447 196.619 295.892 195.937 293.559 195.937H292.73V193.426H315.194C322.187 193.426 328.028 194.404 332.716 196.359C337.404 198.315 339.748 202.219 339.748 208.071C339.686 210.781 338.601 213.366 336.711 215.301C334.41 217.723 331.439 219.397 328.182 220.106C337.551 221.059 342.236 225.464 342.236 233.322C342.236 239.094 339.935 243.095 335.333 245.325C330.731 247.555 324.851 248.655 317.693 248.626H299.385V204.25V204.304ZM316.444 218.439C320.033 218.439 322.876 217.588 324.973 215.885C327.069 214.182 328.11 211.437 328.096 207.648C328.096 203.795 326.861 201.021 324.391 199.325C321.658 197.547 318.448 196.656 315.194 196.771C314.022 196.74 312.851 196.853 311.705 197.106L310.208 197.355V218.439H316.444ZM316.444 245.282C321.053 245.282 324.553 244.275 326.976 242.273C328.189 241.233 329.148 239.927 329.779 238.456C330.41 236.985 330.697 235.387 330.616 233.787C330.616 226.088 325.899 222.238 316.465 222.238H310.154V244.492C310.69 244.692 311.246 244.83 311.813 244.903C313.178 245.2 314.573 245.341 315.97 245.325L316.444 245.282ZM396.825 248.962C393.53 249.009 390.273 248.248 387.338 246.743C384.516 245.3 382.215 242.413 380.434 238.084L378.518 233.408H356.354L349.527 248.626H345.219L369.762 193.426H373.51L392.141 238.116C394.237 243.312 397.109 246.101 400.756 246.483V248.572C399.448 248.889 398.105 249.031 396.761 248.994L396.825 248.962ZM358.131 229.642H376.924L367.759 207.811L358.067 229.642H358.131ZM412.893 197.171H406.981C403.879 197.171 401.499 197.951 399.862 199.509C398.225 201.068 397.407 203.644 397.407 207.205H394.919V200.094C394.919 195.634 397.274 193.405 401.984 193.405H441.098V197.171H423.673V248.604H412.904V197.193L412.893 197.171ZM449.336 204.282C449.472 202.111 449.072 199.94 448.173 197.961C447.398 196.598 445.836 195.916 443.51 195.916H442.616V193.405H452.599C454.188 193.309 455.772 193.657 457.176 194.411C458.306 195.194 459.108 196.37 459.427 197.712C459.939 199.863 460.163 202.072 460.094 204.282V237.738L484.218 193.361H494.211V248.561H483.421V204.185L459.287 248.561H449.304V204.185L449.336 204.282Z" fill="#19C8DB"/>
<path fill-rule="evenodd" clip-rule="evenodd" d="M271.245 61.1094C273.885 61.0807 276.518 61.3788 279.085 61.9969C282.078 62.5695 284.977 63.5567 287.7 64.9301C290.328 66.3479 292.482 68.307 295.809 70.2336C299.137 72.1602 303.649 74.0543 304.565 74.0976C305.48 74.1408 302.777 72.3009 299.277 69.5625C295.777 66.8242 291.469 63.1658 287.431 60.46C283.393 57.7541 279.623 56.0007 276.253 55.7951C273.169 55.7751 270.141 56.6184 267.508 58.2303C265.085 59.5183 263.2 60.7306 262.931 61.4124C262.662 62.0943 264.008 62.2242 265.591 61.9969C267.457 61.5904 269.345 61.2941 271.245 61.1094Z" fill="#19C8DB"/>
<path fill-rule="evenodd" clip-rule="evenodd" d="M233.122 179.226C233.176 179.821 229.095 180.103 226.133 182.17C223.343 184.296 221.501 187.443 221.007 190.926C220.662 193.762 221.804 195.58 221.804 198.394C221.804 201.208 220.662 204.986 219.65 208.135C218.638 211.285 217.765 213.677 216.548 213.612C215.332 213.547 213.77 210.982 212.316 207.973C210.862 204.964 209.495 201.479 208.192 199.314C206.888 197.15 205.628 196.176 206.576 194.552C207.524 192.928 210.701 190.634 213.458 187.787C216.215 184.941 218.573 181.564 218.745 178.793C218.918 176.022 216.893 173.858 214.438 171.898C211.982 169.939 208.978 168.175 207.33 166.378C205.682 164.582 205.348 162.763 205.952 162.558C206.555 162.352 208.105 163.781 209.473 164.885C211.004 166.109 212.669 167.151 214.438 167.991C216.818 169.214 220.404 170.859 222.31 172.418C224.216 173.977 224.464 175.438 226.618 176.617C228.772 177.797 233.079 178.685 233.079 179.28L233.122 179.226Z" fill="#19C8DB"/>
<path fill-rule="evenodd" clip-rule="evenodd" d="M444.435 181.131C447.095 182.278 452.34 183.501 455.937 185.569C459.105 187.333 461.459 190.274 462.495 193.762C463.358 197.036 463.721 200.423 463.572 203.806C463.572 207.118 463.508 210.235 464.746 209.965C465.985 209.694 468.558 206.036 470.4 203.027C472.241 200.018 473.405 197.615 475.925 195.385C478.445 193.156 482.386 190.948 484.712 189.368C487.038 187.787 487.868 186.759 487.297 185.482C486.297 183.909 484.859 182.667 483.161 181.91C481.568 181.163 480.318 181.207 477.465 180.525C474.611 179.843 470.131 178.436 465.005 177.657C460.06 176.972 455.067 176.711 450.078 176.877C446.072 177.018 443.854 177.418 442.777 178.165C441.7 178.912 441.775 179.984 444.435 181.131Z" fill="#19C8DB"/>
<path fill-rule="evenodd" clip-rule="evenodd" d="M98.8929 82.0961C98.8901 87.2154 96.8669 92.1246 93.2671 95.7465C89.6674 99.3685 84.7851 101.407 79.6914 101.416C84.7907 101.416 89.6812 103.451 93.288 107.074C96.8947 110.697 98.9224 115.611 98.9253 120.736C98.9252 115.618 100.946 110.708 104.544 107.086C108.142 103.464 113.023 101.425 118.116 101.416C113.018 101.416 108.128 99.3805 104.523 95.7574C100.918 92.1342 98.8929 87.2201 98.8929 82.0961Z" fill="#19C8DB"/>
<path fill-rule="evenodd" clip-rule="evenodd" d="M432.125 208.276H440.428V232.045H432.125V208.276Z" fill="#19C8DB"/>
<path fill-rule="evenodd" clip-rule="evenodd" d="M377.85 173.76C377.268 174.366 372.788 178.089 370.311 181.899C367.834 185.709 367.317 189.541 365.831 193.545C364.22 197.536 362.222 201.357 359.865 204.953C358.285 207.544 356.574 210.051 354.739 212.465C353.253 214.359 351.907 215.788 351.433 214.229C350.959 212.67 351.347 208.125 349.936 205.321C348.525 202.518 345.305 201.436 345.811 200.83C346.317 200.223 350.561 200.094 353.921 198.427C357.281 196.76 359.747 193.6 361.567 191.034C362.994 189.251 364.118 187.244 364.894 185.092C365.239 183.674 364.754 182.787 365.767 181.737C366.779 180.687 369.267 179.464 372.228 177.581C375.19 175.697 378.474 173.165 377.904 173.76H377.85Z" fill="#19C8DB"/>
<path fill-rule="evenodd" clip-rule="evenodd" d="M505.55 234.188C503.397 233.722 500.166 232.867 498.637 228.862C497.107 224.858 497.312 217.714 497.473 213.829C497.635 209.943 497.797 209.304 499.315 210.82C500.833 212.335 503.698 215.993 506.132 218.829C508.566 221.665 510.58 223.646 511.43 225.41C511.764 226.161 511.947 226.972 511.969 227.794C511.992 228.617 511.852 229.436 511.56 230.205C511.301 231.609 510.676 232.92 509.75 234.004C508.9 234.74 507.737 234.653 505.55 234.188Z" fill="#19C8DB"/>
<path fill-rule="evenodd" clip-rule="evenodd" d="M368.447 184.908C368.447 185.211 369.233 183.523 371.096 184.746C372.96 185.969 375.9 190.158 377.892 193.935C379.561 197.299 380.92 200.81 381.952 204.423C382.975 207.67 383.987 210.527 386.076 212.865C388.166 215.203 391.343 216.946 392.086 215.506C392.829 214.067 391.116 209.456 389.124 206.068C387.132 202.68 384.817 200.494 384.913 198.427C385.01 196.359 387.358 194.4 389.372 193.264C391.32 192.334 393.328 191.535 395.381 190.872C397.718 189.909 400.766 188.296 399.581 186.315C398.396 184.335 393.12 181.986 389.673 181.769C386.227 181.553 384.773 183.501 382.943 184.356C382.138 184.757 381.244 184.944 380.347 184.9C379.45 184.857 378.579 184.584 377.816 184.107C376.675 183.231 376.546 181.694 377.235 179.681C378.16 177.431 379.262 175.26 380.53 173.186C381.607 171.152 382.361 169.582 381.607 169.939C380.853 170.297 378.581 172.559 376.384 174.561C374.268 176.284 372.331 178.217 370.601 180.33C369.586 181.712 368.854 183.283 368.447 184.952V184.908Z" fill="#19C8DB"/>
<path fill-rule="evenodd" clip-rule="evenodd" d="M84.0004 149.754C81.5342 150.912 78.1096 151.583 79.2188 155.057C80.328 158.531 85.9819 164.798 89.9342 170.134C92.958 174.09 95.4526 178.428 97.3542 183.036C98.5496 186.11 98.6896 187.809 99.8311 189.194C100.126 189.628 100.512 189.991 100.963 190.258C101.413 190.524 101.916 190.687 102.437 190.736C102.957 190.784 103.482 190.717 103.973 190.539C104.465 190.36 104.911 190.075 105.28 189.703C107.434 187.733 109.588 182.733 111.537 178.945C113.487 175.156 115.242 172.58 115.748 169.712C116.199 166.815 115.603 163.85 114.068 161.356C112.614 159.051 110.46 157.633 109.06 155.512C107.748 153.319 107.007 150.828 106.907 148.271C106.764 146.47 106.984 144.659 107.553 142.946C107.895 142.27 108.06 141.518 108.032 140.76C108.003 140.002 107.783 139.264 107.391 138.616C106.314 136.289 103.751 132.382 101.651 131.224C99.5511 130.066 97.9573 131.657 95.9973 134.471C94.0373 137.285 91.7434 141.322 89.848 144.147C87.9527 146.972 86.4773 148.596 84.0219 149.743L84.0004 149.754Z" fill="#19C8DB"/>
<path fill-rule="evenodd" clip-rule="evenodd" d="M62.6982 186.9C59.909 189.606 54.7936 196.5 49.0428 203.774C43.2921 211.047 36.8844 218.688 32.4798 223.115C29.7708 226.02 26.5691 228.417 23.0244 230.194C20.3967 231.612 17.5751 233.235 17.6398 234.047C17.7044 234.859 20.7736 234.859 23.6598 234.859H33.6644C37.9721 234.859 43.9275 234.859 45.4028 233.776C46.8782 232.694 43.9275 230.421 42.6136 227.856C41.2998 225.291 41.6336 222.379 43.7875 219.197C46.3946 215.797 49.5595 212.869 53.1459 210.538C56.3767 208.374 58.8644 207.421 60.5659 208.59C62.2675 209.759 63.1828 213.028 63.2475 216.166C63.3121 219.305 62.5367 222.336 64.1521 223.169C65.7675 224.003 69.7736 222.671 70.7859 219.922C71.7982 217.173 69.8167 213.136 68.2551 209.911C67.1007 207.362 65.7879 204.89 64.3244 202.507C63.1075 200.678 61.8259 199.401 61.6644 197.572C61.5028 195.743 62.429 193.383 63.409 191.554C64.389 189.725 65.3905 188.437 65.6598 187.051C65.929 185.666 65.4659 184.183 62.6659 186.889L62.6982 186.9Z" fill="#19C8DB"/>
<path fill-rule="evenodd" clip-rule="evenodd" d="M96.9229 170.524C98.1937 166.411 99.4321 161.335 100.509 158.705C101.92 155.252 103.061 155.999 103.901 157.384C104.741 158.77 105.291 160.794 105.517 160.328C105.743 159.863 105.689 156.876 105.861 153.152C106.034 149.429 106.432 144.97 107.369 142.437C108.306 139.904 109.792 139.287 111.311 140.067C112.829 140.846 114.369 143.011 116.598 145.002C117.739 146.006 118.94 146.939 120.195 147.795C122.315 146.244 124.875 145.42 127.497 145.446H136.392C138.455 145.445 140.485 145.965 142.296 146.957C144.107 147.949 145.641 149.382 146.759 151.124C147.877 152.867 148.541 154.863 148.693 156.93C148.844 158.998 148.477 161.07 147.624 162.958L144.308 170.437C147.054 171.52 149.574 171.52 151.189 172.429C153.009 173.446 153.677 175.546 153.774 177.949C153.807 178.978 153.771 180.009 153.666 181.034H161.409C166.303 181.006 171.174 181.71 175.861 183.122C177.709 181.875 179.862 181.16 182.086 181.055C181.389 180.086 180.546 179.231 179.588 178.522C178.177 177.44 176.357 176.423 175.043 175.275C173.95 174.261 172.971 173.128 172.124 171.899C171.366 170.916 170.542 169.987 169.658 169.117C168.818 168.273 167.946 167.461 167.311 166.822C166.675 166.184 166.234 165.74 166.535 165.026C167.059 164.179 167.68 163.398 168.388 162.699C168.874 161.953 169.449 161.27 170.1 160.664C170.843 160.09 171.984 159.581 172.728 160.393C173.471 161.205 173.804 163.196 174.548 164.484C175.239 165.472 176.131 166.302 177.164 166.92C177.496 167.175 177.765 167.502 177.952 167.877C178.138 168.252 178.237 168.665 178.241 169.084C178.241 170.004 178.015 171.152 178.618 171.595C179.116 171.794 179.665 171.818 180.177 171.662C180.69 171.507 181.135 171.182 181.44 170.74C182.183 169.734 182.183 167.97 181.203 165.329C179.994 162.036 178.116 159.031 175.689 156.508C173.094 153.932 169.863 152.373 167.074 150.858C164.284 149.342 161.818 147.849 159.234 146.42C156.649 144.991 153.849 143.649 152.298 142.091C150.748 140.532 150.317 138.779 148.357 137.534C146.397 136.289 142.908 135.532 140.991 134.655C139.074 133.778 138.74 132.761 138.664 131.711C138.589 130.661 138.804 129.546 139.472 129.211C140.14 128.875 141.292 129.211 141.626 128.561C141.96 127.912 141.497 126.397 141.163 125.119C140.829 123.842 140.624 122.814 141.734 123.193C143.621 124.137 145.374 125.331 146.946 126.743C148.626 128.161 149.574 129.243 148.863 128.02C147.407 125.649 145.81 123.369 144.081 121.191C143.152 119.856 141.904 118.776 140.452 118.052C139.612 117.673 139.009 117.608 139.041 117.099C139.074 116.591 139.741 115.649 141.12 114.458C142.498 113.268 144.588 111.861 146.677 110.432C143.511 110.073 140.308 110.223 137.189 110.876C133.252 112.036 129.405 113.483 125.677 115.205C121.908 116.764 118.548 117.976 117.158 119.329C115.769 120.682 116.394 122.175 115.855 123.225C115.317 124.275 113.626 124.881 110.395 125.726C107.164 126.57 102.394 127.652 99.626 129.178C96.8583 130.704 96.2337 132.653 94.7152 138.476C93.326 143.812 91.226 152.395 89.5137 158.185C91.9523 161.041 93.9822 164.225 95.5444 167.645L96.9229 170.524Z" fill="#19C8DB"/>
<path fill-rule="evenodd" clip-rule="evenodd" d="M168.055 108.884C169.282 108.57 172.793 109.425 176.831 109.036C181.544 108.416 186.073 106.8 190.121 104.295C194.562 101.652 198.7 98.5271 202.462 94.976C205.338 92.2052 206.318 90.4842 206.533 90.7548C206.748 91.0254 206.221 93.2875 206.856 94.0019C207.491 94.7162 209.311 93.8179 211.638 92.0212C213.964 90.2245 216.785 87.5294 219.488 85.6353C221.932 84.0149 224.525 82.634 227.231 81.5116C229.831 80.4369 232.255 78.9776 234.425 77.1822C236.773 75.169 239.131 72.3008 241.727 70.2119C244.035 68.3844 246.655 66.9944 249.459 66.1098C251.785 65.3629 253.605 65.1573 253.185 65.9582C252.765 66.7592 250.105 68.5451 248.188 70.634C246.48 72.5326 245.195 74.7763 244.419 77.2147C243.763 78.8154 243.616 80.5812 243.999 82.2692C244.419 83.4923 245.421 84.1633 245.291 84.9426C245.162 85.7219 243.902 86.6527 243.385 87.6701C243.151 88.2648 243.096 88.916 243.228 89.5418C243.36 90.1676 243.673 90.7402 244.128 91.1878C245.098 92.4433 246.778 93.7313 247.478 94.7812C248.178 95.831 247.855 96.632 246.799 96.751C245.303 96.7004 243.835 96.3315 242.491 95.6687C241.07 95.0626 240.068 94.4132 239.831 94.7162C239.595 95.0193 240.155 96.3289 241.231 97.1082C242.308 97.8875 243.773 98.1906 243.838 99.143C243.902 100.095 242.524 101.676 240.144 103.472C237.764 105.269 234.35 107.261 232.024 108.96C229.698 110.659 228.459 112.088 228.19 113.462C227.921 114.837 228.631 116.147 230.527 116.71C232.422 117.272 235.524 117.11 237.516 117.5C239.508 117.889 240.37 118.831 240.359 120.357C240.348 121.883 239.433 123.972 238.033 126.765C236.731 129.609 235.101 132.29 233.176 134.752C231.593 136.462 230.311 136.387 229.504 136.019C229.136 135.829 228.819 135.553 228.581 135.214C228.343 134.875 228.19 134.482 228.136 134.07C227.921 133.172 227.824 132.057 227.178 131.592C226.969 131.471 226.738 131.394 226.498 131.367C226.259 131.34 226.016 131.363 225.786 131.434C225.556 131.505 225.342 131.623 225.159 131.78C224.976 131.938 224.827 132.132 224.722 132.349C224.393 133.052 224.209 133.814 224.183 134.591C224.158 135.367 224.29 136.14 224.571 136.863C225.164 138.356 226.445 139.363 226.962 140.478C227.189 141.024 227.282 141.617 227.233 142.206C227.185 142.796 226.996 143.365 226.682 143.866C226.101 144.948 225.196 145.792 224.755 146.745C224.537 147.26 224.432 147.817 224.445 148.376C224.458 148.936 224.589 149.487 224.83 149.992C225.466 151.581 226.436 153.013 227.673 154.191C229.039 155.582 230.644 156.711 232.411 157.525C233.682 157.979 234.178 157.471 234.016 156.064C233.644 154.206 233.081 152.393 232.336 150.652C231.68 149.301 231.227 147.861 230.99 146.377C230.788 144.669 231.049 142.937 231.744 141.365C232.564 139.859 233.726 138.568 235.136 137.599C236.439 136.614 237.678 135.867 238.647 135.975C239.616 136.084 240.273 137.058 240.068 138.963C239.864 140.868 238.798 143.855 238.324 147.08C237.964 150.314 237.885 153.574 238.087 156.821C238.184 159.852 238.259 162.385 239.078 164.398C239.978 166.3 241.471 167.854 243.331 168.825C245.092 169.772 246.908 170.611 248.77 171.336C250.31 171.996 251.247 172.537 251.538 173.868C251.664 175.563 251.595 177.266 251.333 178.945C251.174 179.92 251.301 180.92 251.699 181.824C249.45 182.677 247.287 183.743 245.238 185.006C244.096 183.732 242.696 182.718 241.132 182.033C239.568 181.348 237.876 181.007 236.17 181.033H230.785C229.515 181.031 228.252 181.221 227.038 181.596C226.855 181.109 226.661 180.611 226.435 180.113C225.392 177.843 224.024 175.739 222.375 173.868C220.99 172.325 219.355 171.029 217.539 170.037C216.03 169.33 214.588 168.486 213.231 167.515C212.348 166.682 212.348 165.772 212.015 164.582C211.614 163.224 210.976 161.948 210.13 160.815C209.033 159.546 207.751 158.452 206.328 157.568C204.476 156.259 201.848 154.429 199.781 152.698C198.135 151.303 196.578 149.806 195.118 148.217C194.368 147.498 193.676 146.72 193.05 145.89C192.694 145.327 192.63 144.807 193.438 144.894C195.105 145.177 196.683 145.848 198.047 146.853C200.761 148.779 203.331 150.903 205.736 153.206C208.751 155.945 212.198 159.192 214.728 161.519C217.259 163.846 218.778 165.22 219.93 165.762C221.082 166.303 221.815 166 222.278 165.166C222.57 164.655 222.718 164.074 222.707 163.485C222.695 162.896 222.525 162.321 222.213 161.822C221.154 160.531 219.771 159.548 218.207 158.975C216.624 158.283 215.148 157.893 214.201 156.562C213.253 155.23 212.855 153.011 212.305 151.659C211.862 150.553 211.009 149.664 209.925 149.18C208.532 148.487 207.274 147.549 206.21 146.409C205.208 144.922 204.315 143.362 203.539 141.744C202.592 140.139 201.24 138.813 199.619 137.902C197.745 136.82 195.161 135.824 192.888 134.731C190.823 133.841 188.956 132.546 187.396 130.921C186.387 129.532 185.558 128.018 184.93 126.418C184.344 125.249 183.445 124.267 182.335 123.582C181.085 122.738 179.308 121.786 177.758 120.736C176.202 119.67 174.759 118.448 173.45 117.088C172.028 115.627 170.478 113.841 169.142 112.272C167.807 110.702 166.795 109.209 168.065 108.906L168.055 108.884ZM214.168 109.966C216.4 110.475 218.711 110.526 220.964 110.118C223.307 109.76 225.526 108.826 227.425 107.401C229.041 106.031 230.245 104.236 230.904 102.217C231.981 99.7058 233.165 96.08 234.135 93.4499C235.104 90.8198 235.793 89.1205 236.084 87.984C236.375 86.8475 236.235 86.144 235.287 86.4146C233.594 87.1823 232.074 88.2869 230.818 89.6616C229.03 91.4151 227.21 93.7205 226.09 94.4564C224.97 95.1924 224.518 94.3915 223.699 93.3741C222.824 92.287 221.85 91.2833 220.791 90.376C219.908 89.6725 219.37 89.4993 218.939 89.7699C218.651 90.0068 218.448 90.3309 218.358 90.6937C218.269 91.0566 218.299 91.4387 218.444 91.7831C219.03 93.2189 219.794 94.5751 220.716 95.8202C221.866 97.4161 222.79 99.1645 223.462 101.015C223.661 101.664 223.69 102.352 223.549 103.015C223.408 103.678 223.1 104.294 222.655 104.804C221.679 105.903 220.424 106.714 219.025 107.152C217.518 107.694 215.73 107.888 214.588 108.332C213.447 108.776 212.941 109.415 214.168 109.869V109.966Z" fill="#19C8DB"/>
<path fill-rule="evenodd" clip-rule="evenodd" d="M154.41 177.256C153.99 177.602 153.968 177.819 153.85 178.923C153.721 180.837 153.081 182.68 151.997 184.259C150.457 186.488 147.603 188.967 148.626 189.855C149.65 190.742 154.571 190.028 158.976 189.4C162.822 188.76 166.702 188.337 170.596 188.134C173.827 188.069 176.519 188.491 178.737 188.545C180.68 188.527 182.619 188.379 184.542 188.101C186.34 187.917 188.117 187.885 187.773 186.9C187.428 185.915 184.897 183.977 183.034 183.653C181.171 183.328 179.933 184.584 178.619 184.789C178.067 184.862 177.506 184.796 176.985 184.598C176.464 184.4 176.001 184.075 175.636 183.653C175.399 183.155 176.325 183.003 176.605 182.473C176.885 181.943 176.53 181.055 176.605 180.481C176.68 179.908 177.057 179.659 177.606 179.399C178.156 179.139 178.813 178.869 178.683 178.447C178.554 178.025 177.703 177.473 176.53 177.234C174.944 177.028 173.346 176.937 171.748 176.964C169.476 176.877 166.363 176.65 164.21 176.423C162.056 176.195 160.914 176.001 159.805 175.936C158.749 175.853 157.687 175.944 156.66 176.206C155.881 176.427 155.15 176.794 154.507 177.289L154.41 177.256Z" fill="#19C8DB"/>
<path fill-rule="evenodd" clip-rule="evenodd" d="M418.396 163.781C417.319 165.134 416.091 175.513 415.402 181.033C414.713 186.553 414.573 187.235 416.145 187.647C419.183 188.125 422.26 188.295 425.331 188.155C429.693 188.155 435.142 187.917 439.127 187.712C443.111 187.506 445.642 187.311 447.925 187.289C450.042 187.269 452.157 187.428 454.247 187.766C456.044 187.967 457.789 188.499 459.394 189.335C460.52 190.07 461.378 191.153 461.839 192.42C462.198 193.503 462.671 194.544 463.25 195.526C463.788 196.208 464.51 196.327 466.007 195.31C467.504 194.292 469.787 192.138 469.302 189.184C468.817 186.229 465.554 182.451 461.171 179.821C456.526 177.262 451.439 175.613 446.181 174.961C441.796 174.319 437.354 174.16 432.934 174.485C430.33 174.632 427.755 175.105 425.267 175.892C423.501 176.488 422.348 177.126 421.336 173.619C420.324 170.113 419.451 162.428 418.396 163.781Z" fill="#19C8DB"/>
<path fill-rule="evenodd" clip-rule="evenodd" d="M245.399 184.367C245.227 184.291 245.184 183.588 245.173 184.118C245.176 185.457 245.017 186.791 244.699 188.09C244.189 189.578 243.517 191.004 242.696 192.344C242.115 193.426 241.878 194.216 242.502 194.509C243.127 194.801 244.602 194.617 246.724 193.61C249.116 192.357 251.439 190.973 253.681 189.465C255.512 188.136 257.63 187.261 259.862 186.911C262.93 186.515 266.029 186.431 269.113 186.662C271.018 186.722 272.889 187.183 274.605 188.015C276.26 188.905 277.968 189.689 279.721 190.363C281.754 191.111 283.954 191.276 286.075 190.84C288.228 190.309 290.102 188.924 292.418 188.025C294.733 187.127 297.468 186.727 299.805 185.915C302.142 185.103 304.113 183.88 303.424 182.614C302.735 181.347 299.45 180.027 296.725 180.049C294.229 180.164 291.863 181.2 290.081 182.96C288.315 184.497 286.936 186.207 284.147 186.434C281.358 186.662 277.147 185.352 274.045 184.443C271.582 183.569 269.015 183.023 266.41 182.819C263.868 182.711 260.745 183.057 260.465 182.105C260.185 181.153 262.716 178.923 263.233 177.602C263.75 176.282 262.232 175.871 260.519 176.228C258.66 176.731 256.916 177.591 255.382 178.761C253.885 179.843 252.798 180.828 251.99 181.434C251.469 181.908 250.814 182.207 250.116 182.289C249.561 182.234 249.002 182.234 248.447 182.289C247.698 182.479 247.006 182.851 246.433 183.371C245.873 183.88 245.572 184.454 245.356 184.389L245.399 184.367Z" fill="#19C8DB"/>
<path d="M443.939 276.475V290.48H438.49V277.904C438.49 275.162 437.273 273.794 434.839 273.802C433.943 273.731 433.047 273.928 432.263 274.37C431.479 274.811 430.842 275.476 430.434 276.28C430.434 276.345 430.434 276.594 430.434 277.016C430.434 277.438 430.434 277.72 430.434 277.849V290.48H424.985V277.492C425.041 276.503 424.709 275.531 424.059 274.786C423.718 274.439 423.307 274.169 422.854 273.996C422.401 273.822 421.915 273.748 421.431 273.78C420.553 273.73 419.678 273.915 418.895 274.316C418.111 274.717 417.448 275.32 416.973 276.064V290.459H411.523V269.039H416.973V271.42C417.819 270.497 418.857 269.772 420.012 269.295C421.167 268.818 422.413 268.602 423.66 268.66C425.04 268.616 426.406 268.937 427.623 269.591C428.641 270.135 429.438 271.019 429.874 272.091C430.706 270.973 431.797 270.076 433.053 269.478C434.309 268.88 435.691 268.599 437.079 268.66C441.623 268.66 443.896 271.265 443.896 276.475H443.939ZM466.22 284.473L467.782 288.337C465.471 290.18 462.577 291.125 459.63 291C458.106 291.064 456.584 290.823 455.153 290.291C453.723 289.76 452.411 288.949 451.294 287.904C450.237 286.84 449.412 285.565 448.873 284.161C448.333 282.758 448.09 281.257 448.16 279.754C448.123 278.283 448.377 276.819 448.905 275.446C449.434 274.073 450.227 272.819 451.24 271.756C452.303 270.663 453.583 269.809 454.998 269.249C456.412 268.69 457.928 268.437 459.447 268.509C460.764 268.479 462.073 268.711 463.301 269.192C464.528 269.673 465.648 270.394 466.597 271.312C467.562 272.226 468.323 273.336 468.829 274.567C469.336 275.798 469.577 277.124 469.537 278.456C469.574 279.452 469.461 280.448 469.203 281.41H453.803C453.885 282.129 454.109 282.824 454.462 283.454C454.815 284.085 455.291 284.637 455.86 285.08C457.108 285.995 458.624 286.467 460.168 286.422C462.339 286.485 464.466 285.793 466.188 284.463L466.22 284.473ZM459.21 273.087C456.108 273.087 454.241 274.642 453.61 277.752H464.088C464.123 277.132 464.025 276.511 463.8 275.932C463.575 275.353 463.229 274.829 462.785 274.397C462.305 273.951 461.742 273.605 461.128 273.381C460.514 273.156 459.862 273.056 459.21 273.087ZM494.231 290.48H488.782V288.24C488.005 289.087 487.058 289.759 486.004 290.211C484.949 290.662 483.811 290.883 482.665 290.859C481.311 290.911 479.962 290.675 478.705 290.166C477.449 289.657 476.313 288.886 475.374 287.904C473.505 285.604 472.528 282.701 472.623 279.733C472.718 276.764 473.879 273.931 475.891 271.756C477.01 270.674 478.335 269.829 479.785 269.272C481.235 268.714 482.782 268.454 484.334 268.509C485.887 268.46 487.424 268.834 488.782 269.591V257.133H494.231V290.48ZM483.807 285.74C484.739 285.738 485.661 285.545 486.516 285.172C487.371 284.8 488.142 284.257 488.782 283.575V274.916C487.532 274.086 486.069 273.639 484.571 273.628C482.973 273.591 481.424 274.19 480.263 275.295C479.672 275.875 479.21 276.574 478.907 277.346C478.605 278.119 478.469 278.947 478.508 279.776C478.43 281.363 478.975 282.918 480.026 284.105C480.513 284.635 481.107 285.054 481.769 285.334C482.43 285.614 483.143 285.749 483.86 285.729L483.807 285.74Z" fill="#19C8DB"/>
</g>
<defs>
<clipPath id="clip0_104_1568">
<rect width="518" height="291" fill="white"/>
</clipPath>
</defs>
</svg>
