<svg width="35" height="35" viewBox="0 0 35 35" fill="none" xmlns="http://www.w3.org/2000/svg">
<path d="M27.2475 0.957031H7.88929C6.0695 0.959076 4.32482 1.68289 3.03804 2.96968C1.75125 4.25647 1.02744 6.00114 1.02539 7.82093V27.1791C1.02745 28.9989 1.75128 30.7436 3.03806 32.0303C4.32485 33.3171 6.06951 34.0409 7.88929 34.043H27.2475C29.0673 34.0409 30.8119 33.3171 32.0987 32.0303C33.3855 30.7436 34.1093 28.9989 34.1113 27.1791V7.82093C34.1093 6.00115 33.3855 4.25649 32.0987 2.9697C30.8119 1.68292 29.0673 0.959094 27.2475 0.957031ZM33.291 27.1791C33.2892 28.7814 32.6519 30.3176 31.5189 31.4505C30.3859 32.5835 28.8498 33.2208 27.2475 33.2227H7.88929C6.287 33.2208 4.75085 32.5835 3.61785 31.4506C2.48485 30.3176 1.84753 28.7814 1.8457 27.1791V7.82093C1.84751 6.21862 2.48483 4.68247 3.61783 3.54947C4.75083 2.41647 6.28698 1.77915 7.88929 1.77734H27.2475C28.8498 1.77917 30.3859 2.41649 31.5189 3.54949C32.6519 4.68249 33.2892 6.21864 33.291 7.82093V27.1791Z" fill="#19C8DB"/>
<path d="M27.207 23.9941H26.0837L24.5077 19.3505C24.4802 19.2694 24.4279 19.1989 24.3582 19.1489C24.2886 19.099 24.205 19.0721 24.1193 19.0721C24.0336 19.0721 23.95 19.099 23.8804 19.1489C23.8107 19.1989 23.7584 19.2694 23.7309 19.3505L22.1553 23.9941H20.7784C20.6946 23.9941 20.6128 24.0198 20.544 24.0677C20.4753 24.1155 20.4228 24.1833 20.3937 24.2619L19.1079 27.7345L17.822 24.2619C17.793 24.1833 17.7405 24.1155 17.6717 24.0677C17.603 24.0198 17.5212 23.9941 17.4374 23.9941H15.9619L14.4145 22.0945C14.3752 22.047 14.3259 22.0088 14.27 21.9827C14.2142 21.9565 14.1533 21.9431 14.0916 21.9433C14.0299 21.9441 13.9691 21.9587 13.9139 21.9862C13.8586 22.0137 13.8103 22.0533 13.7724 22.1021L10.7631 25.9812L9.41466 24.1602C9.37651 24.1087 9.32681 24.0668 9.26956 24.038C9.2123 24.0091 9.14907 23.9941 9.08496 23.9941H7.79297C7.68419 23.9941 7.57986 24.0373 7.50294 24.1143C7.42603 24.1912 7.38281 24.2955 7.38281 24.4043C7.38281 24.5131 7.42603 24.6174 7.50294 24.6943C7.57986 24.7712 7.68419 24.8144 7.79297 24.8144H8.87838L10.4259 26.9042C10.4636 26.9551 10.5125 26.9966 10.5689 27.0254C10.6253 27.0542 10.6876 27.0696 10.7509 27.0703H10.7555C10.8181 27.0703 10.8798 27.056 10.936 27.0285C10.9921 27.001 11.0413 26.961 11.0796 26.9116L14.1043 23.0126L15.4492 24.6633C15.4876 24.7105 15.5361 24.7485 15.5911 24.7747C15.646 24.8008 15.7061 24.8144 15.767 24.8144H17.1519L18.7236 29.0584C18.7527 29.137 18.8052 29.2047 18.8739 29.2526C18.9427 29.3004 19.0245 29.3261 19.1083 29.3261C19.192 29.3261 19.2738 29.3004 19.3426 29.2526C19.4113 29.2047 19.4638 29.137 19.4929 29.0584L21.0639 24.8144H22.4492C22.5349 24.8144 22.6184 24.7876 22.6881 24.7377C22.7577 24.6878 22.81 24.6173 22.8376 24.5361L24.1196 20.7586L25.4017 24.5361C25.4293 24.6172 25.4815 24.6877 25.5511 24.7376C25.6207 24.7875 25.7042 24.8144 25.7898 24.8144H27.207C27.3158 24.8144 27.4201 24.7712 27.4971 24.6943C27.574 24.6174 27.6172 24.5131 27.6172 24.4043C27.6172 24.2955 27.574 24.1912 27.4971 24.1143C27.4201 24.0373 27.3158 23.9941 27.207 23.9941Z" fill="#19C8DB"/>
<path d="M17.2093 19.3838C17.2862 19.4607 17.3905 19.5039 17.4993 19.5039C17.6081 19.5039 17.7124 19.4607 17.7893 19.3838L23.8556 13.3174C24.2745 12.9023 24.6073 12.4086 24.8349 11.8645C25.0625 11.3205 25.1803 10.7368 25.1817 10.1471C25.1831 9.55732 25.0679 8.97313 24.8429 8.42802C24.6178 7.88291 24.2873 7.38763 23.8703 6.97062C23.4533 6.55361 22.958 6.22309 22.4129 5.99804C21.8678 5.77298 21.2836 5.65783 20.6938 5.65919C20.1041 5.66055 19.5204 5.7784 18.9764 6.00597C18.4323 6.23354 17.9386 6.56635 17.5235 6.98528L17.4994 7.00941L17.4752 6.98528C16.6345 6.15008 15.4971 5.68217 14.3121 5.68409C13.1271 5.68601 11.9912 6.15759 11.1533 6.99551C10.3153 7.83343 9.84373 8.96934 9.8418 10.1543C9.83987 11.3393 10.3078 12.4768 11.143 13.3174L17.2093 19.3838ZM11.7228 7.56531C12.4088 6.8796 13.339 6.4944 14.3089 6.4944C15.2788 6.4944 16.209 6.8796 16.895 7.56531L17.2094 7.87976C17.2475 7.91786 17.2927 7.94807 17.3425 7.96869C17.3923 7.98931 17.4456 7.99992 17.4995 7.99992C17.5534 7.99992 17.6067 7.98931 17.6565 7.96869C17.7062 7.94807 17.7515 7.91786 17.7895 7.87976L18.1036 7.56531C18.791 6.88641 19.719 6.50703 20.685 6.51001C21.6511 6.51299 22.5767 6.89808 23.2598 7.5812C23.9429 8.26433 24.328 9.18998 24.3309 10.156C24.3339 11.1221 23.9545 12.0501 23.2756 12.7374L17.4992 18.5137L11.7228 12.7374C11.037 12.0515 10.6517 11.1213 10.6517 10.1513C10.6517 9.1814 11.037 8.25117 11.7228 7.56531Z" fill="#19C8DB"/>
</svg>
