<svg width="35" height="35" viewBox="0 0 35 35" fill="none" xmlns="http://www.w3.org/2000/svg">
<path d="M27.2475 0.957031H7.88929C6.0695 0.959076 4.32482 1.68289 3.03804 2.96968C1.75125 4.25647 1.02744 6.00114 1.02539 7.82093V27.1791C1.02745 28.9989 1.75128 30.7436 3.03806 32.0303C4.32485 33.3171 6.06951 34.0409 7.88929 34.043H27.2475C29.0673 34.0409 30.8119 33.3171 32.0987 32.0303C33.3855 30.7436 34.1093 28.9989 34.1113 27.1791V7.82093C34.1093 6.00115 33.3855 4.25649 32.0987 2.9697C30.8119 1.68292 29.0673 0.959094 27.2475 0.957031ZM33.291 27.1791C33.2892 28.7814 32.6519 30.3176 31.5189 31.4505C30.3859 32.5835 28.8498 33.2208 27.2475 33.2227H7.88929C6.287 33.2208 4.75085 32.5835 3.61785 31.4506C2.48485 30.3176 1.84753 28.7814 1.8457 27.1791V7.82093C1.84751 6.21862 2.48483 4.68247 3.61783 3.54947C4.75083 2.41647 6.28698 1.77915 7.88929 1.77734H27.2475C28.8498 1.77917 30.3859 2.41649 31.5189 3.54949C32.6519 4.68249 33.2892 6.21864 33.291 7.82093V27.1791Z" fill="#19C8DB"/>
<path d="M22.6261 12.2367L27.1536 7.70928C27.2295 7.63215 27.2718 7.52816 27.2714 7.41996C27.2709 7.31176 27.2277 7.20812 27.1512 7.13161C27.0747 7.0551 26.9711 7.01192 26.8629 7.01148C26.7547 7.01104 26.6507 7.05337 26.5736 7.12925L22.0208 11.682C21.7708 11.5515 21.4856 11.5041 21.2068 11.5466C20.9279 11.5892 20.6699 11.7195 20.4702 11.9187L20.3959 11.993L20.0796 11.6767C20.0026 11.5998 19.8983 11.5566 19.7896 11.5566C19.6808 11.5566 19.5765 11.5998 19.4996 11.6767L12.8164 18.3599L12.1229 17.6668C11.8913 17.4353 11.5773 17.3052 11.2498 17.3052C10.9223 17.3052 10.6082 17.4353 10.3766 17.6668L10.1281 17.9153C9.89659 18.1469 9.76656 18.461 9.76656 18.7885C9.76656 19.1159 9.89659 19.43 10.1281 19.6616L11.2765 20.81L7.96573 24.1209L7.09319 23.2483C7.05522 23.2097 7.00999 23.179 6.9601 23.158C6.91021 23.137 6.85664 23.126 6.8025 23.1258C6.74836 23.1256 6.6947 23.1361 6.64464 23.1567C6.59457 23.1773 6.54908 23.2076 6.51079 23.2459C6.4725 23.2842 6.44217 23.3297 6.42155 23.3797C6.40092 23.4298 6.39041 23.4834 6.39063 23.5376C6.39084 23.5917 6.40177 23.6453 6.42279 23.6952C6.44381 23.7451 6.4745 23.7903 6.51309 23.8283L10.5555 27.8707C10.6328 27.9459 10.7365 27.9877 10.8444 27.987C10.9522 27.9862 11.0554 27.9431 11.1316 27.8668C11.2079 27.7906 11.251 27.6874 11.2517 27.5796C11.2525 27.4718 11.2107 27.368 11.1356 27.2908L10.2634 26.4186L13.5741 23.1078L14.6211 24.1548C14.8527 24.3863 15.1668 24.5164 15.4943 24.5164C15.8218 24.5164 16.1358 24.3863 16.3674 24.1548L16.6161 23.9062C16.8473 23.6744 16.9772 23.3604 16.9772 23.033C16.9772 22.7057 16.8473 22.3917 16.6161 22.1599L16.0238 21.5676L22.7069 14.8846C22.745 14.8465 22.7753 14.8013 22.7959 14.7515C22.8165 14.7017 22.8271 14.6484 22.8271 14.5945C22.8271 14.5406 22.8165 14.4873 22.7959 14.4375C22.7753 14.3878 22.745 14.3425 22.7069 14.3045L22.3906 13.9882L22.465 13.9139C22.6823 13.6964 22.8172 13.4102 22.8466 13.1042C22.876 12.7982 22.7981 12.4915 22.6261 12.2367H22.6261ZM9.68333 25.8385L8.54542 24.7006L11.8561 21.3896L12.9941 22.5277L9.68333 25.8385ZM16.036 23.3262L15.7874 23.5747C15.7097 23.6524 15.6042 23.6961 15.4943 23.6961C15.3844 23.6961 15.279 23.6524 15.2012 23.5747L10.708 19.0816C10.6304 19.0038 10.5868 18.8984 10.5868 18.7885C10.5868 18.6786 10.6304 18.5732 10.708 18.4954L10.9566 18.2468C11.0343 18.1691 11.1398 18.1255 11.2497 18.1255C11.3596 18.1255 11.465 18.1691 11.5428 18.2468L16.0359 22.7399C16.1136 22.8177 16.1572 22.9231 16.1572 23.033C16.1572 23.1429 16.1136 23.2484 16.036 23.3262ZM15.4438 20.9876L13.3963 18.94L16.9091 15.4272L17.4276 15.9457C17.5045 16.0226 17.6089 16.0658 17.7177 16.0658C17.8264 16.0658 17.9308 16.0226 18.0077 15.9457C18.0846 15.8687 18.1278 15.7644 18.1278 15.6556C18.1278 15.5468 18.0846 15.4425 18.0077 15.3656L17.4892 14.8472L17.8692 14.4672L18.3876 14.9856C18.4645 15.0625 18.5688 15.1058 18.6776 15.1058C18.7864 15.1058 18.8908 15.0626 18.9677 14.9857C19.0446 14.9087 19.0879 14.8044 19.0879 14.6956C19.0879 14.5868 19.0447 14.4825 18.9678 14.4056L18.4493 13.8871L18.8293 13.507L19.3478 14.0255C19.3857 14.0641 19.431 14.0948 19.4809 14.1158C19.5308 14.1368 19.5843 14.1478 19.6385 14.148C19.6926 14.1482 19.7463 14.1377 19.7963 14.1171C19.8464 14.0965 19.8919 14.0661 19.9302 14.0279C19.9685 13.9896 19.9988 13.9441 20.0194 13.894C20.04 13.844 20.0505 13.7903 20.0503 13.7362C20.0501 13.682 20.0391 13.6285 20.0181 13.5786C19.9971 13.5287 19.9664 13.4834 19.9278 13.4455L19.4094 12.927L19.7894 12.547L21.8369 14.5947L15.4438 20.9876ZM21.0501 12.499C21.1446 12.4046 21.2727 12.3516 21.4063 12.3516C21.5399 12.3516 21.668 12.4046 21.7626 12.499L21.8849 12.6213C21.9793 12.7158 22.0323 12.844 22.0323 12.9776C22.0323 13.1112 21.9793 13.2393 21.8849 13.3338L21.8106 13.4081L20.9758 12.5733L21.0501 12.499Z" fill="#19C8DB"/>
<path d="M27.0879 8.99414C27.0133 8.99414 26.94 9.0145 26.8761 9.05305C26.8122 9.0916 26.76 9.14687 26.7251 9.21289C26.5091 9.62243 25.4316 11.7034 25.4316 12.455C25.4316 12.8943 25.6061 13.3156 25.9168 13.6262C26.2274 13.9368 26.6486 14.1113 27.0879 14.1113C27.5272 14.1113 27.9485 13.9368 28.2591 13.6262C28.5697 13.3156 28.7442 12.8943 28.7442 12.455C28.7442 11.7034 27.6667 9.62243 27.4507 9.21289C27.4159 9.14687 27.3637 9.0916 27.2997 9.05305C27.2358 9.0145 27.1626 8.99414 27.0879 8.99414ZM27.0879 13.2911C26.8663 13.2908 26.6538 13.2027 26.4971 13.0459C26.3404 12.8892 26.2522 12.6767 26.252 12.4551C26.252 12.1433 26.6689 11.1733 27.0879 10.3127C27.507 11.1733 27.9239 12.1433 27.9239 12.4551C27.9236 12.6767 27.8355 12.8892 27.6788 13.0459C27.522 13.2027 27.3096 13.2908 27.0879 13.2911Z" fill="#19C8DB"/>
</svg>
