<svg width="35" height="35" viewBox="0 0 35 35" fill="none" xmlns="http://www.w3.org/2000/svg">
<path d="M27.2475 0.957031H7.88929C6.0695 0.959076 4.32482 1.68289 3.03804 2.96968C1.75125 4.25647 1.02744 6.00114 1.02539 7.82093V27.1791C1.02745 28.9989 1.75128 30.7436 3.03806 32.0303C4.32485 33.3171 6.06951 34.0409 7.88929 34.043H27.2475C29.0673 34.0409 30.8119 33.3171 32.0987 32.0303C33.3855 30.7436 34.1093 28.9989 34.1113 27.1791V7.82093C34.1093 6.00115 33.3855 4.25649 32.0987 2.9697C30.8119 1.68292 29.0673 0.959094 27.2475 0.957031ZM33.291 27.1791C33.2892 28.7814 32.6519 30.3176 31.5189 31.4505C30.3859 32.5835 28.8498 33.2208 27.2475 33.2227H7.88929C6.287 33.2208 4.75085 32.5835 3.61785 31.4506C2.48485 30.3176 1.84753 28.7814 1.8457 27.1791V7.82093C1.84751 6.21862 2.48483 4.68247 3.61783 3.54947C4.75083 2.41647 6.28698 1.77915 7.88929 1.77734H27.2475C28.8498 1.77917 30.3859 2.41649 31.5189 3.54949C32.6519 4.68249 33.2892 6.21864 33.291 7.82093V27.1791Z" fill="#19C8DB"/>
<path d="M25.5411 9.65235C24.1546 9.23247 22.807 8.69367 21.5132 8.04194C20.69 7.627 19.9233 7.04519 19.2469 6.53175C18.9569 6.31163 18.683 6.10375 18.4176 5.91774C18.1697 5.7447 17.8755 5.65013 17.5732 5.6463C17.271 5.64247 16.9745 5.72956 16.7223 5.89628C16.4361 6.08816 16.1404 6.3009 15.8273 6.52607C15.0513 7.08409 14.1719 7.71655 13.2209 8.17552C12.0383 8.74609 10.8179 9.23487 9.56841 9.63841C9.20432 9.75501 8.88676 9.98443 8.66169 10.2935C8.43661 10.6025 8.31569 10.9751 8.31641 11.3574V19.9609C8.31641 22.6837 9.90918 25.1682 12.9228 27.1455C14.3313 28.0613 15.8537 28.7886 17.4513 29.3086C17.5281 29.3317 17.61 29.3317 17.6868 29.3086C19.2843 28.7885 20.8067 28.0613 22.2151 27.1455C25.2287 25.1679 26.8215 22.6834 26.8215 19.9609V11.3799C26.8234 10.9923 26.6997 10.6145 26.4689 10.303C26.238 9.99159 25.9125 9.7633 25.5411 9.65235ZM26.0012 19.9609C26.0012 22.4239 24.5812 24.607 21.7808 26.4495C20.4663 27.2996 19.0516 27.9834 17.5688 28.4854C16.5392 28.1457 9.13631 25.5075 9.13631 19.9609V11.3572C9.13597 11.1485 9.20201 10.9451 9.3249 10.7764C9.44779 10.6077 9.62115 10.4825 9.8199 10.4188C11.1052 10.0038 12.3605 9.50108 13.5769 8.91428C14.5923 8.42421 15.5026 7.7696 16.3057 7.19203C16.6133 6.97089 16.9037 6.76198 17.1787 6.57762C17.2892 6.50403 17.4191 6.46496 17.5518 6.46537C17.693 6.46528 17.8308 6.50862 17.9465 6.58951C18.1991 6.76656 18.4671 6.96986 18.7507 7.18519C19.4552 7.71983 20.2535 8.32577 21.1438 8.77448C22.4798 9.44736 23.8715 10.0036 25.3032 10.4371C25.5058 10.4978 25.6833 10.6224 25.809 10.7924C25.9348 10.9623 26.0021 11.1685 26.0009 11.3799L26.0012 19.9609Z" fill="#19C8DB"/>
<path d="M20.7211 15.0391H19.9609V14.2789C19.9606 13.9186 19.8173 13.5731 19.5625 13.3184C19.3077 13.0636 18.9623 12.9203 18.602 12.9199H16.398C16.0377 12.9203 15.6923 13.0636 15.4375 13.3184C15.1827 13.5731 15.0394 13.9186 15.0391 14.2789V15.0391H14.2789C13.9186 15.0394 13.5731 15.1827 13.3184 15.4375C13.0636 15.6923 12.9203 16.0377 12.9199 16.398V18.602C12.9203 18.9623 13.0636 19.3077 13.3184 19.5625C13.5731 19.8173 13.9186 19.9606 14.2789 19.9609H15.0391V20.7211C15.0394 21.0814 15.1827 21.4269 15.4375 21.6816C15.6923 21.9364 16.0377 22.0797 16.398 22.0801H18.602C18.9623 22.0797 19.3077 21.9364 19.5625 21.6816C19.8173 21.4269 19.9606 21.0814 19.9609 20.7211V19.9609H20.7211C21.0814 19.9606 21.4269 19.8173 21.6816 19.5625C21.9364 19.3077 22.0797 18.9623 22.0801 18.602V16.398C22.0797 16.0377 21.9364 15.6923 21.6816 15.4375C21.4269 15.1827 21.0814 15.0394 20.7211 15.0391ZM21.2598 18.602C21.2596 18.7448 21.2028 18.8817 21.1018 18.9827C21.0008 19.0837 20.8639 19.1405 20.7211 19.1406H19.5508C19.442 19.1406 19.3377 19.1838 19.2608 19.2608C19.1838 19.3377 19.1406 19.442 19.1406 19.5508V20.7211C19.1405 20.8639 19.0837 21.0008 18.9827 21.1018C18.8817 21.2028 18.7448 21.2596 18.602 21.2598H16.398C16.2552 21.2596 16.1183 21.2028 16.0173 21.1018C15.9163 21.0008 15.8595 20.8639 15.8594 20.7211V19.5508C15.8594 19.442 15.8162 19.3377 15.7392 19.2608C15.6623 19.1838 15.558 19.1406 15.4492 19.1406H14.2789C14.1361 19.1405 13.9992 19.0837 13.8982 18.9827C13.7972 18.8817 13.7404 18.7448 13.7402 18.602V16.398C13.7404 16.2552 13.7972 16.1183 13.8982 16.0173C13.9992 15.9163 14.1361 15.8595 14.2789 15.8594H15.4492C15.558 15.8594 15.6623 15.8162 15.7392 15.7392C15.8162 15.6623 15.8594 15.558 15.8594 15.4492V14.2789C15.8595 14.1361 15.9163 13.9992 16.0173 13.8982C16.1183 13.7972 16.2552 13.7404 16.398 13.7402H18.602C18.7448 13.7404 18.8817 13.7972 18.9827 13.8982C19.0837 13.9992 19.1405 14.1361 19.1406 14.2789V15.4492C19.1406 15.558 19.1838 15.6623 19.2608 15.7392C19.3377 15.8162 19.442 15.8594 19.5508 15.8594H20.7211C20.8639 15.8595 21.0008 15.9163 21.1018 16.0173C21.2028 16.1183 21.2596 16.2552 21.2598 16.398V18.602Z" fill="#19C8DB"/>
</svg>
