<svg width="35" height="35" viewBox="0 0 35 35" fill="none" xmlns="http://www.w3.org/2000/svg">
<path d="M27.2475 0.957031H7.88929C6.0695 0.959076 4.32482 1.68289 3.03804 2.96968C1.75125 4.25647 1.02744 6.00114 1.02539 7.82093V27.1791C1.02745 28.9989 1.75128 30.7436 3.03806 32.0303C4.32485 33.3171 6.06951 34.0409 7.88929 34.043H27.2475C29.0673 34.0409 30.8119 33.3171 32.0987 32.0303C33.3855 30.7436 34.1093 28.9989 34.1113 27.1791V7.82093C34.1093 6.00115 33.3855 4.25649 32.0987 2.9697C30.8119 1.68292 29.0673 0.959094 27.2475 0.957031ZM33.291 27.1791C33.2892 28.7814 32.6519 30.3176 31.5189 31.4505C30.3859 32.5835 28.8498 33.2208 27.2475 33.2227H7.88929C6.287 33.2208 4.75085 32.5835 3.61785 31.4506C2.48485 30.3176 1.84753 28.7814 1.8457 27.1791V7.82093C1.84751 6.21862 2.48483 4.68247 3.61783 3.54947C4.75083 2.41647 6.28698 1.77915 7.88929 1.77734H27.2475C28.8498 1.77917 30.3859 2.41649 31.5189 3.54949C32.6519 4.68249 33.2892 6.21864 33.291 7.82093V27.1791Z" fill="#19C8DB"/>
<path d="M27.192 13.9307C25.8316 13.9307 24.9868 14.9682 24.9868 16.6384C24.9868 17.8848 25.7924 19.4255 26.7818 19.7752V25.2902C26.7818 26.0288 26.4884 26.7371 25.9662 27.2594C25.4439 27.7816 24.7355 28.075 23.9969 28.075C23.2583 28.075 22.55 27.7816 22.0277 27.2594C21.5054 26.7371 21.212 26.0288 21.212 25.2902V23.5823H22.3102C22.6282 23.5819 22.9331 23.4554 23.158 23.2306C23.3828 23.0057 23.5093 22.7008 23.5097 22.3828V15.0583C23.5093 14.7403 23.3828 14.4355 23.158 14.2106C22.9331 13.9857 22.6282 13.8593 22.3102 13.8589H13.2625C12.9445 13.8593 12.6397 13.9857 12.4148 14.2106C12.1899 14.4355 12.0635 14.7403 12.0631 15.0583V22.3828C12.0635 22.7008 12.1899 23.0057 12.4148 23.2306C12.6397 23.4554 12.9445 23.5819 13.2625 23.5823H18.9374C18.8333 24.8066 18.2738 25.9474 17.3694 26.7793C16.4651 27.6111 15.2816 28.0736 14.0528 28.0752H13.4786C12.1787 28.0738 10.9324 27.5568 10.0133 26.6376C9.09407 25.7184 8.57707 24.4722 8.57567 23.1722V12.5041C8.83806 12.4536 9.07469 12.3133 9.24499 12.1074C9.41529 11.9015 9.50864 11.6428 9.50905 11.3755V10.8507C9.98455 10.5581 10.3516 10.1184 10.5544 9.59823C10.7571 9.07808 10.7846 8.50596 10.6326 7.96877C10.4806 7.43159 10.1574 6.9587 9.7121 6.62194C9.26682 6.28518 8.7238 6.10297 8.16552 6.10297C7.60724 6.10297 7.06421 6.28518 6.61893 6.62194C6.17366 6.9587 5.85046 7.43159 5.69844 7.96877C5.54643 8.50596 5.5739 9.07808 5.77668 9.59823C5.97947 10.1184 6.34649 10.5581 6.82198 10.8507V11.3754C6.82241 11.6426 6.91577 11.9014 7.08606 12.1073C7.25636 12.3132 7.49298 12.4534 7.75536 12.504V23.1721C7.75704 24.6895 8.36054 26.1442 9.43344 27.2172C10.5063 28.2901 11.961 28.8937 13.4784 28.8955H14.0526C15.4988 28.8936 16.8908 28.3449 17.9493 27.3595C19.0078 26.374 19.6545 25.0248 19.7596 23.5824H20.3915V25.2903C20.3915 25.7637 20.4848 26.2325 20.666 26.6699C20.8471 27.1073 21.1127 27.5048 21.4475 27.8396C21.7822 28.1743 22.1797 28.4399 22.6171 28.6211C23.0545 28.8022 23.5233 28.8955 23.9967 28.8955C24.4702 28.8955 24.939 28.8022 25.3764 28.6211C25.8138 28.4399 26.2112 28.1743 26.546 27.8396C26.8808 27.5048 27.1463 27.1073 27.3275 26.6699C27.5087 26.2325 27.6019 25.7637 27.6019 25.2903V19.7752C28.5914 19.4255 29.397 17.8848 29.397 16.6384C29.3972 14.9682 28.5522 13.9307 27.192 13.9307ZM8.16531 6.9248C8.56059 6.92476 8.94415 7.05902 9.25313 7.30555C9.56211 7.55208 9.77816 7.89627 9.86589 8.28169C9.95361 8.66711 9.90779 9.0709 9.73595 9.42687C9.5641 9.78284 9.27642 10.0699 8.92007 10.2409C8.68475 10.3547 8.42658 10.4134 8.16518 10.4126C8.12874 10.4126 8.09251 10.4112 8.05648 10.4091C7.86478 10.3978 7.67634 10.3545 7.49901 10.2808L7.49655 10.2797C7.4673 10.2674 7.43831 10.2544 7.4096 10.2406C7.05357 10.0693 6.76625 9.78218 6.59469 9.42628C6.42314 9.07038 6.37752 8.66677 6.46531 8.28156C6.5531 7.89634 6.76909 7.55235 7.07792 7.30593C7.38674 7.0595 7.77009 6.92524 8.16518 6.92514L8.16531 6.9248ZM7.64209 11.3754V11.1796C7.65911 11.1832 7.67627 11.1857 7.69356 11.1889C7.71312 11.1925 7.73267 11.1963 7.75235 11.1994C7.77724 11.2035 7.80232 11.2067 7.82755 11.21C7.84854 11.2127 7.86952 11.2158 7.89071 11.218C7.91498 11.2206 7.93938 11.2222 7.96379 11.2241C7.98553 11.2258 8.00713 11.2279 8.02894 11.229C8.05847 11.2305 8.088 11.2309 8.1178 11.2314C8.13373 11.2314 8.14959 11.2327 8.16565 11.2327C8.18172 11.2327 8.19853 11.2316 8.21508 11.2314C8.24406 11.2308 8.27305 11.2305 8.30196 11.229C8.32459 11.2278 8.34701 11.2256 8.3695 11.2238C8.39199 11.2221 8.41653 11.2205 8.43991 11.218C8.46192 11.2157 8.48373 11.2126 8.50561 11.2097C8.52974 11.2066 8.55387 11.2034 8.57779 11.1996C8.5983 11.1963 8.61881 11.1923 8.63932 11.1885C8.65579 11.1854 8.6724 11.183 8.68874 11.1796V11.3754C8.68865 11.4627 8.65392 11.5465 8.59218 11.6082C8.53043 11.67 8.44671 11.7047 8.35938 11.7048H7.97172C7.88437 11.7048 7.80061 11.6701 7.73882 11.6083C7.67702 11.5466 7.64223 11.4629 7.64209 11.3755V11.3754ZM12.8834 22.3827V15.0583C12.8835 14.9578 12.9235 14.8614 12.9946 14.7904C13.0656 14.7193 13.162 14.6793 13.2625 14.6792H22.3102C22.4107 14.6793 22.5071 14.7193 22.5782 14.7904C22.6493 14.8614 22.6892 14.9578 22.6894 15.0583V22.3828C22.6892 22.4833 22.6492 22.5797 22.5782 22.6508C22.5071 22.7218 22.4107 22.7618 22.3102 22.762H13.2625C13.162 22.7618 13.0657 22.7218 12.9946 22.6508C12.9235 22.5797 12.8835 22.4833 12.8834 22.3828V22.3827ZM27.192 19.0282C26.6326 19.0282 25.8072 17.7693 25.8072 16.6382C25.8072 15.9333 25.9871 14.7508 27.192 14.7508C28.3969 14.7508 28.5769 15.9335 28.5769 16.6382C28.5769 17.7694 27.7514 19.0284 27.192 19.0284V19.0282Z" fill="#19C8DB"/>
<path d="M21.8594 21.8797V19.9412C21.8594 19.8324 21.8162 19.7281 21.7393 19.6511C21.6624 19.5742 21.558 19.531 21.4493 19.531H18.1465C18.0377 19.531 17.9334 19.5742 17.8565 19.6511C17.7795 19.7281 17.7363 19.8324 17.7363 19.9412V21.8797C17.7363 21.9885 17.7795 22.0928 17.8565 22.1697C17.9334 22.2466 18.0377 22.2899 18.1465 22.2899H21.4493C21.558 22.2899 21.6624 22.2466 21.7393 22.1697C21.8162 22.0928 21.8594 21.9885 21.8594 21.8797ZM21.0391 21.4695H18.5566V20.3513H21.0391V21.4695Z" fill="#19C8DB"/>
<path d="M18.793 16.6896H21.4496C21.5584 16.6896 21.6627 16.6464 21.7396 16.5694C21.8166 16.4925 21.8598 16.3882 21.8598 16.2794C21.8598 16.1706 21.8166 16.0663 21.7396 15.9894C21.6627 15.9125 21.5584 15.8693 21.4496 15.8693H18.793C18.6842 15.8693 18.5799 15.9125 18.5029 15.9894C18.426 16.0663 18.3828 16.1706 18.3828 16.2794C18.3828 16.3882 18.426 16.4925 18.5029 16.5694C18.5799 16.6464 18.6842 16.6896 18.793 16.6896Z" fill="#19C8DB"/>
<path d="M21.4487 17.4489H20.1562C20.0475 17.4489 19.9431 17.4921 19.8662 17.569C19.7893 17.6459 19.7461 17.7502 19.7461 17.859C19.7461 17.9678 19.7893 18.0721 19.8662 18.149C19.9431 18.226 20.0475 18.2692 20.1562 18.2692H21.4487C21.5575 18.2692 21.6618 18.226 21.7387 18.149C21.8157 18.0721 21.8589 17.9678 21.8589 17.859C21.8589 17.7502 21.8157 17.6459 21.7387 17.569C21.6618 17.4921 21.5575 17.4489 21.4487 17.4489Z" fill="#19C8DB"/>
</svg>
