<svg width="35" height="35" viewBox="0 0 35 35" fill="none" xmlns="http://www.w3.org/2000/svg">
<path d="M27.2475 0.957031H7.88929C6.0695 0.959076 4.32482 1.68289 3.03804 2.96968C1.75125 4.25647 1.02744 6.00114 1.02539 7.82093V27.1791C1.02745 28.9989 1.75128 30.7436 3.03806 32.0303C4.32485 33.3171 6.06951 34.0409 7.88929 34.043H27.2475C29.0673 34.0409 30.8119 33.3171 32.0987 32.0303C33.3855 30.7436 34.1093 28.9989 34.1113 27.1791V7.82093C34.1093 6.00115 33.3855 4.25649 32.0987 2.9697C30.8119 1.68292 29.0673 0.959094 27.2475 0.957031ZM33.291 27.1791C33.2892 28.7814 32.6519 30.3176 31.5189 31.4505C30.3859 32.5835 28.8498 33.2208 27.2475 33.2227H7.88929C6.287 33.2208 4.75085 32.5835 3.61785 31.4506C2.48485 30.3176 1.84753 28.7814 1.8457 27.1791V7.82093C1.84751 6.21862 2.48483 4.68247 3.61783 3.54947C4.75083 2.41647 6.28698 1.77915 7.88929 1.77734H27.2475C28.8498 1.77917 30.3859 2.41649 31.5189 3.54949C32.6519 4.68249 33.2892 6.21864 33.291 7.82093V27.1791Z" fill="#19C8DB"/>
<path d="M27.6158 11.8945H22.627V10.5868C22.6264 10.0636 22.4183 9.56191 22.0483 9.19192C21.6783 8.82192 21.1767 8.61382 20.6534 8.61328H14.3466C13.8233 8.61382 13.3217 8.82192 12.9517 9.19192C12.5817 9.56191 12.3736 10.0636 12.373 10.5868V11.8945H7.38418C6.93072 11.895 6.49598 12.0754 6.17534 12.396C5.85469 12.7167 5.67433 13.1514 5.67383 13.6049V24.6763C5.67433 25.1298 5.85469 25.5645 6.17533 25.8852C6.49598 26.2058 6.93072 26.3862 7.38418 26.3867H27.6158C28.0693 26.3862 28.504 26.2058 28.8247 25.8852C29.1453 25.5645 29.3257 25.1298 29.3262 24.6763V13.6049C29.3257 13.1514 29.1453 12.7167 28.8247 12.396C28.504 12.0754 28.0693 11.895 27.6158 11.8945ZM11.6211 12.7148H23.3789V25.5664H11.6211V12.7148ZM10.8008 25.5664H9.02344V12.7148H10.8008V25.5664ZM24.1992 12.7148H25.9766V25.5664H24.1992V12.7148ZM13.1934 10.5868C13.1937 10.2811 13.3153 9.98794 13.5315 9.77174C13.7477 9.55555 14.0408 9.43394 14.3466 9.43359H20.6534C20.9592 9.43394 21.2523 9.55555 21.4685 9.77174C21.6847 9.98794 21.8063 10.2811 21.8066 10.5868V11.8945H13.1934V10.5868ZM6.49414 24.6763V13.6049C6.49441 13.3689 6.58827 13.1427 6.75513 12.9758C6.92198 12.809 7.14821 12.7151 7.38418 12.7148H8.20312V25.5664H7.38418C7.1482 25.5661 6.92196 25.4723 6.7551 25.3054C6.58825 25.1385 6.49439 24.9123 6.49414 24.6763ZM28.5059 24.6763C28.5056 24.9123 28.4118 25.1385 28.2449 25.3054C28.078 25.4723 27.8518 25.5661 27.6158 25.5664H26.7969V12.7148H27.6158C27.8518 12.7151 28.078 12.809 28.2449 12.9758C28.4117 13.1427 28.5056 13.3689 28.5059 13.6049V24.6763Z" fill="#19C8DB"/>
<path d="M20.7211 16.6797H19.9609V15.9195C19.9606 15.5592 19.8173 15.2138 19.5625 14.959C19.3077 14.7042 18.9623 14.5609 18.602 14.5605H16.398C16.0377 14.5609 15.6923 14.7042 15.4375 14.959C15.1827 15.2138 15.0394 15.5592 15.0391 15.9195V16.6797H14.2789C13.9186 16.68 13.5731 16.8233 13.3184 17.0781C13.0636 17.3329 12.9203 17.6784 12.9199 18.0387V20.2426C12.9203 20.6029 13.0636 20.9483 13.3184 21.2031C13.5731 21.4579 13.9186 21.6012 14.2789 21.6016H15.0391V22.3617C15.0394 22.722 15.1827 23.0675 15.4375 23.3223C15.6923 23.577 16.0377 23.7203 16.398 23.7207H18.602C18.9623 23.7203 19.3077 23.577 19.5625 23.3223C19.8173 23.0675 19.9606 22.722 19.9609 22.3617V21.6016H20.7211C21.0814 21.6012 21.4269 21.4579 21.6816 21.2031C21.9364 20.9483 22.0797 20.6029 22.0801 20.2426V18.0387C22.0797 17.6784 21.9364 17.3329 21.6816 17.0781C21.4269 16.8233 21.0814 16.68 20.7211 16.6797ZM21.2598 20.2426C21.2596 20.3854 21.2028 20.5223 21.1018 20.6233C21.0008 20.7243 20.8639 20.7811 20.7211 20.7812H19.5508C19.442 20.7812 19.3377 20.8245 19.2608 20.9014C19.1838 20.9783 19.1406 21.0826 19.1406 21.1914V22.3617C19.1405 22.5045 19.0837 22.6415 18.9827 22.7424C18.8817 22.8434 18.7448 22.9002 18.602 22.9004H16.398C16.2552 22.9002 16.1183 22.8434 16.0173 22.7424C15.9163 22.6415 15.8595 22.5045 15.8594 22.3617V21.1914C15.8594 21.0826 15.8162 20.9783 15.7392 20.9014C15.6623 20.8245 15.558 20.7812 15.4492 20.7812H14.2789C14.1361 20.7811 13.9992 20.7243 13.8982 20.6233C13.7972 20.5223 13.7404 20.3854 13.7402 20.2426V18.0387C13.7404 17.8959 13.7972 17.7589 13.8982 17.658C13.9992 17.557 14.1361 17.5002 14.2789 17.5H15.4492C15.558 17.5 15.6623 17.4568 15.7392 17.3799C15.8162 17.3029 15.8594 17.1986 15.8594 17.0898V15.9195C15.8595 15.7767 15.9163 15.6398 16.0173 15.5388C16.1183 15.4378 16.2552 15.381 16.398 15.3809H18.602C18.7448 15.381 18.8817 15.4378 18.9827 15.5388C19.0837 15.6398 19.1405 15.7767 19.1406 15.9195V17.0898C19.1406 17.1986 19.1838 17.3029 19.2608 17.3799C19.3377 17.4568 19.442 17.5 19.5508 17.5H20.7211C20.8639 17.5002 21.0008 17.557 21.1018 17.658C21.2028 17.7589 21.2596 17.8959 21.2598 18.0387V20.2426Z" fill="#19C8DB"/>
</svg>
