<svg width="50" height="50" viewBox="0 0 50 50" fill="none" xmlns="http://www.w3.org/2000/svg">
<path d="M38.925 1.36719H11.2704C8.67071 1.37011 6.17832 2.40413 4.34005 4.2424C2.50179 6.08067 1.46776 8.57305 1.46484 11.1728V38.8273C1.46779 41.427 2.50182 43.9194 4.34009 45.7576C6.17835 47.5959 8.67073 48.6299 11.2704 48.6328H38.925C41.5247 48.6299 44.017 47.5958 45.8553 45.7576C47.6935 43.9194 48.7275 41.427 48.7305 38.8273V11.1728C48.7275 8.57307 47.6935 6.0807 45.8553 4.24243C44.017 2.40417 41.5247 1.37013 38.925 1.36719ZM47.5586 38.8273C47.556 41.1163 46.6455 43.3108 45.027 44.9293C43.4084 46.5479 41.214 47.4583 38.925 47.4609H11.2704C8.98142 47.4584 6.78693 46.5479 5.16836 44.9294C3.54979 43.3108 2.63933 41.1163 2.63672 38.8273V11.1728C2.6393 8.88375 3.54975 6.68924 5.16832 5.07067C6.78689 3.4521 8.98141 2.54165 11.2704 2.53906H38.925C41.214 2.54167 43.4085 3.45213 45.027 5.0707C46.6456 6.68927 47.556 8.88377 47.5586 11.1728V38.8273Z" fill="#19C8DB"/>
<path d="M36.4866 13.7891C34.5059 13.1892 32.5807 12.4195 30.7324 11.4885C29.5565 10.8957 28.4611 10.0646 27.4949 9.33106C27.0806 9.0166 26.6893 8.71963 26.3102 8.45391C25.956 8.2067 25.5358 8.0716 25.1039 8.06613C24.6721 8.06066 24.2486 8.18508 23.8883 8.42324C23.4795 8.69736 23.057 9.00127 22.6097 9.32295C21.5012 10.1201 20.2448 11.0236 18.8862 11.6793C17.1968 12.4944 15.4535 13.1927 13.6685 13.7691C13.1483 13.9357 12.6947 14.2635 12.3731 14.7049C12.0516 15.1464 11.8789 15.6787 11.8799 16.2249V28.5156C11.8799 32.4053 14.1553 35.9546 18.4605 38.7793C20.4726 40.0876 22.6475 41.1265 24.9297 41.8694C25.0394 41.9024 25.1565 41.9024 25.2662 41.8694C27.5483 41.1265 29.7231 40.0876 31.7352 38.7793C36.0402 35.9542 38.3157 32.4049 38.3157 28.5156V16.257C38.3184 15.7033 38.1417 15.1635 37.812 14.7186C37.4822 14.2737 37.0172 13.9476 36.4866 13.7891ZM37.1439 28.5156C37.1439 32.0341 35.1153 35.1528 31.1147 37.7851C29.2369 38.9994 27.2158 39.9762 25.0977 40.6934C23.6268 40.2081 13.0512 36.4393 13.0512 28.5156V16.2245C13.0507 15.9264 13.145 15.6358 13.3206 15.3948C13.4961 15.1538 13.7438 14.9749 14.0277 14.884C15.8638 14.2911 17.6571 13.573 19.3949 12.7347C20.8454 12.0346 22.1458 11.0994 23.2932 10.2743C23.7326 9.9584 24.1475 9.65996 24.5402 9.39658C24.6981 9.29145 24.8837 9.23564 25.0733 9.23623C25.275 9.2361 25.4719 9.29801 25.6372 9.41357C25.9981 9.6665 26.3809 9.95693 26.786 10.2646C27.7924 11.0283 28.9329 11.8939 30.2047 12.535C32.1133 13.4962 34.1014 14.2909 36.1468 14.9102C36.4362 14.9968 36.6897 15.1749 36.8693 15.4177C37.049 15.6605 37.1452 15.955 37.1435 16.257L37.1439 28.5156Z" fill="#19C8DB"/>
<path d="M29.6016 21.4844H28.5156V20.3984C28.5151 19.8837 28.3104 19.3902 27.9464 19.0262C27.5825 18.6623 27.089 18.4575 26.5742 18.457H23.4258C22.911 18.4575 22.4175 18.6623 22.0536 19.0262C21.6896 19.3902 21.4849 19.8837 21.4844 20.3984V21.4844H20.3984C19.8837 21.4849 19.3902 21.6896 19.0262 22.0536C18.6623 22.4175 18.4575 22.911 18.457 23.4258V26.5742C18.4575 27.089 18.6623 27.5825 19.0262 27.9464C19.3902 28.3104 19.8837 28.5151 20.3984 28.5156H21.4844V29.6016C21.4849 30.1163 21.6896 30.6098 22.0536 30.9738C22.4175 31.3377 22.911 31.5425 23.4258 31.543H26.5742C27.089 31.5425 27.5825 31.3377 27.9464 30.9738C28.3104 30.6098 28.5151 30.1163 28.5156 29.6016V28.5156H29.6016C30.1163 28.5151 30.6098 28.3104 30.9738 27.9464C31.3377 27.5825 31.5425 27.089 31.543 26.5742V23.4258C31.5425 22.911 31.3377 22.4175 30.9738 22.0536C30.6098 21.6896 30.1163 21.4849 29.6016 21.4844ZM30.3711 26.5742C30.3709 26.7782 30.2897 26.9738 30.1454 27.1181C30.0012 27.2624 29.8056 27.3435 29.6016 27.3438H27.9297C27.7743 27.3438 27.6253 27.4055 27.5154 27.5154C27.4055 27.6253 27.3438 27.7743 27.3438 27.9297V29.6016C27.3435 29.8056 27.2624 30.0012 27.1181 30.1454C26.9738 30.2897 26.7782 30.3709 26.5742 30.3711H23.4258C23.2218 30.3709 23.0262 30.2897 22.8819 30.1454C22.7376 30.0012 22.6565 29.8056 22.6562 29.6016V27.9297C22.6562 27.7743 22.5945 27.6253 22.4846 27.5154C22.3747 27.4055 22.2257 27.3438 22.0703 27.3438H20.3984C20.1944 27.3435 19.9988 27.2624 19.8546 27.1181C19.7103 26.9738 19.6291 26.7782 19.6289 26.5742V23.4258C19.6291 23.2218 19.7103 23.0262 19.8546 22.8819C19.9988 22.7376 20.1944 22.6565 20.3984 22.6562H22.0703C22.2257 22.6562 22.3747 22.5945 22.4846 22.4846C22.5945 22.3747 22.6562 22.2257 22.6562 22.0703V20.3984C22.6565 20.1944 22.7376 19.9988 22.8819 19.8546C23.0262 19.7103 23.2218 19.6291 23.4258 19.6289H26.5742C26.7782 19.6291 26.9738 19.7103 27.1181 19.8546C27.2624 19.9988 27.3435 20.1944 27.3438 20.3984V22.0703C27.3438 22.2257 27.4055 22.3747 27.5154 22.4846C27.6253 22.5945 27.7743 22.6562 27.9297 22.6562H29.6016C29.8056 22.6565 30.0012 22.7376 30.1454 22.8819C30.2897 23.0262 30.3709 23.2218 30.3711 23.4258V26.5742Z" fill="#19C8DB"/>
</svg>
