<svg width="58" height="58" viewBox="0 0 58 58" fill="none" xmlns="http://www.w3.org/2000/svg">
<path d="M46.955 21.3564H43.3035L44.4037 8.7245C44.4057 8.70162 44.4061 8.67908 44.4062 8.65653C44.4062 8.65461 44.4064 8.65279 44.4064 8.65087C44.4064 8.65053 44.4064 8.6503 44.4064 8.64996C44.4064 8.30615 44.199 8.00312 43.8942 7.87138C43.8916 7.87024 43.8891 7.86889 43.8865 7.86775C43.8675 7.85982 43.8479 7.85303 43.8282 7.84646C43.8209 7.84408 43.8139 7.84113 43.8065 7.83887C43.7904 7.83399 43.7739 7.83014 43.7574 7.82618C43.7459 7.82346 43.7348 7.82017 43.7231 7.81791C43.7087 7.81508 43.6938 7.81326 43.679 7.81111C43.6652 7.80907 43.6516 7.80669 43.6377 7.80545C43.6353 7.80522 43.6332 7.80477 43.6308 7.80454C43.6158 7.80318 43.6011 7.80341 43.5863 7.80284C43.5763 7.8025 43.5666 7.80137 43.5566 7.80137H43.5459C43.545 7.80137 43.5441 7.80137 43.5433 7.80137H26.1692C25.7002 7.80137 25.3196 8.182 25.3196 8.65098C25.3196 9.11883 25.7002 9.50059 26.1692 9.50059H42.6305L40.9397 28.9142C40.9394 28.9157 40.9394 28.9172 40.9392 28.9187L40.5126 33.8171H10.9904L11.4842 28.7196H17.1053C17.5746 28.7196 17.9549 28.3392 17.9549 27.87C17.9549 27.4008 17.5746 27.0204 17.1053 27.0204H11.6489L12.6915 16.2592H21.6379C22.1073 16.2592 22.4875 15.8788 22.4875 15.4096C22.4875 14.9404 22.1073 14.56 21.6379 14.56H12.8562L13.3465 9.50059H22.7708C23.2386 9.50059 23.6204 9.11883 23.6204 8.65098C23.6204 8.182 23.2386 7.80137 22.7708 7.80137H12.5754C12.5749 7.80137 12.5746 7.80148 12.5742 7.80148C12.1751 7.80137 11.8289 8.08231 11.7452 8.47177C11.7446 8.4746 11.7436 8.47732 11.743 8.48015C11.7387 8.50134 11.7359 8.52297 11.733 8.54472C11.7322 8.55163 11.7308 8.5582 11.7301 8.56511C11.73 8.56647 11.7296 8.56772 11.7295 8.56908L11.1491 14.56H0.849613C0.380287 14.56 0 14.9404 0 15.4096C0 15.8788 0.380287 16.2592 0.849613 16.2592H10.9844L9.94172 27.0204H6.91041C6.44108 27.0204 6.0608 27.4008 6.0608 27.87C6.0608 28.3392 6.44108 28.7196 6.91041 28.7196H9.77712L9.20935 34.5787C9.20924 34.5796 9.20924 34.5805 9.20912 34.5813L8.3313 43.6414C8.33119 43.6424 8.33108 43.6436 8.33096 43.6445L8.33062 43.6478C8.32949 43.6596 8.3296 43.6711 8.32892 43.6829C8.32813 43.6985 8.32654 43.7138 8.32654 43.7297C8.32654 43.7304 8.32666 43.731 8.32666 43.7318C8.32666 43.7537 8.32824 43.7752 8.32983 43.7967C8.33051 43.8036 8.33028 43.8107 8.33108 43.8175C8.33334 43.8394 8.33708 43.8611 8.34104 43.8826C8.34218 43.889 8.34274 43.8954 8.34399 43.9016C8.34727 43.9179 8.35192 43.9337 8.35622 43.9497C8.35917 43.9609 8.36155 43.9723 8.36495 43.9833C8.36597 43.9864 8.36733 43.9893 8.36823 43.9925C8.40935 44.1189 8.47913 44.2324 8.57021 44.3251C8.57191 44.3268 8.57327 44.3287 8.57497 44.3303C8.58403 44.3394 8.59389 44.3475 8.6034 44.3561C8.66197 44.4098 8.72813 44.4554 8.80052 44.491C8.81558 44.4985 8.83042 44.5063 8.84583 44.5128C8.85047 44.5148 8.85546 44.5162 8.86021 44.518C8.88151 44.5265 8.90292 44.5347 8.92501 44.5416C8.92705 44.5421 8.92898 44.5425 8.93102 44.5432C8.95616 44.5506 8.98154 44.5572 9.00748 44.5625C9.01088 44.5632 9.01439 44.5634 9.01768 44.5641C9.04237 44.5688 9.06718 44.5727 9.09244 44.5752C9.09301 44.5752 9.09346 44.5753 9.09403 44.5754C9.1219 44.5782 9.14954 44.5795 9.17695 44.5795C9.17729 44.5795 9.17774 44.5794 9.1782 44.5794H12.9604C13.3781 47.746 16.0929 50.1985 19.3718 50.1985C22.6506 50.1985 25.3654 47.746 25.783 44.5794H39.4107C39.8285 47.746 42.5432 50.1985 45.822 50.1985C49.1007 50.1985 51.8157 47.746 52.2335 44.5794H56.0167C56.0172 44.5794 56.0179 44.5795 56.0185 44.5795C56.0468 44.5795 56.0747 44.5778 56.1023 44.5751C56.1073 44.5746 56.112 44.5736 56.117 44.5731C56.1391 44.5705 56.1611 44.5674 56.1826 44.5631C56.1919 44.5613 56.2009 44.5588 56.21 44.5566C56.2267 44.5528 56.2435 44.5487 56.2598 44.5438C56.2709 44.5405 56.2816 44.5367 56.2925 44.533C56.3064 44.5282 56.3204 44.5232 56.3341 44.5177C56.3459 44.513 56.3571 44.5079 56.3685 44.5028C56.381 44.497 56.3934 44.4912 56.4056 44.4849C56.4171 44.479 56.4282 44.4729 56.4393 44.4666C56.451 44.4598 56.4625 44.4528 56.474 44.4455C56.4846 44.4387 56.4953 44.4318 56.5055 44.4245C56.517 44.4165 56.528 44.408 56.5392 44.3994C56.5485 44.392 56.5579 44.3848 56.567 44.3771C56.5787 44.3672 56.5896 44.3569 56.6007 44.3464C56.6084 44.339 56.6165 44.3318 56.624 44.3241C56.6358 44.3121 56.647 44.2994 56.6582 44.2866C56.6642 44.2797 56.6704 44.273 56.6762 44.266C56.6887 44.2505 56.7 44.2347 56.7113 44.2187C56.7152 44.2132 56.7195 44.208 56.7232 44.2023C56.737 44.1816 56.7501 44.1603 56.7621 44.1383C56.763 44.1369 56.7639 44.1357 56.7644 44.1342C56.7772 44.1106 56.789 44.0865 56.7996 44.0616C56.8025 44.0545 56.8048 44.0471 56.8076 44.04C56.8145 44.0224 56.8213 44.0048 56.8271 43.9866C56.8308 43.9748 56.8335 43.9627 56.8368 43.9508C56.8406 43.9366 56.8445 43.9226 56.8477 43.9082C56.8505 43.8954 56.8523 43.8823 56.8545 43.8692C56.8564 43.8578 56.8589 43.8466 56.8604 43.8349C56.8964 43.5463 57.5617 38.2086 57.8589 34.7571C57.8592 34.7538 57.8593 34.7504 57.8596 34.7471C57.9452 33.7522 58 32.9143 58 32.4014C58 26.3113 53.0453 21.3564 46.955 21.3564ZM43.1555 23.0559H46.6313L46.1873 28.1531H42.7115L43.1555 23.0559ZM19.3721 48.4992C16.742 48.4992 14.6024 46.3595 14.6024 43.7296C14.6024 41.0996 16.7421 38.9599 19.3721 38.9599C22.002 38.9599 24.1417 41.0996 24.1417 43.7296C24.1417 46.3595 22.002 48.4992 19.3721 48.4992ZM45.822 48.4992C43.192 48.4992 41.0525 46.3595 41.0525 43.7296C41.0525 41.0996 43.1922 38.9599 45.822 38.9599C48.4521 38.9599 50.5917 41.0996 50.5917 43.7296C50.5917 46.3595 48.4521 48.4992 45.822 48.4992ZM55.2659 42.8796H52.2337C51.8162 39.7128 49.1013 37.2602 45.8222 37.2602C42.5434 37.2602 39.8285 39.7129 39.4109 42.8796H25.7834C25.3658 39.7128 22.651 37.2602 19.3721 37.2602C16.0931 37.2602 13.3781 39.7129 12.9606 42.8796H10.1122L10.8258 35.5158H41.2912V35.5163C41.2916 35.5163 41.292 35.5163 41.2924 35.5163C41.3209 35.5163 41.3491 35.5147 41.3769 35.5119C41.3821 35.5114 41.3872 35.5103 41.3925 35.5096C41.4147 35.507 41.4367 35.5038 41.4585 35.4995C41.4679 35.4976 41.4771 35.495 41.4864 35.4927C41.5034 35.4887 41.5203 35.4847 41.5369 35.4797C41.5482 35.4763 41.559 35.4722 41.57 35.4684C41.5842 35.4634 41.5985 35.4585 41.6123 35.4529C41.6242 35.448 41.6357 35.4426 41.6472 35.4371C41.6598 35.4313 41.6724 35.4256 41.6845 35.4192C41.696 35.4131 41.7074 35.4065 41.7188 35.4C41.7305 35.3932 41.742 35.3863 41.7534 35.379C41.7644 35.3719 41.7748 35.3644 41.7853 35.3569C41.7965 35.349 41.8074 35.3408 41.8183 35.3323C41.828 35.3245 41.8376 35.3165 41.8472 35.3082C41.8579 35.2989 41.8685 35.2894 41.8787 35.2795C41.8873 35.2713 41.8959 35.2628 41.9043 35.2541C41.9145 35.2434 41.9243 35.2324 41.9341 35.2212C41.9416 35.2124 41.9491 35.2035 41.9564 35.1945C41.9658 35.1826 41.9747 35.1703 41.9836 35.158C41.9902 35.1487 41.9967 35.1394 42.003 35.1299C42.0113 35.1171 42.0192 35.104 42.0268 35.0906C42.0326 35.0806 42.0385 35.0706 42.0437 35.0605C42.0508 35.0471 42.057 35.0335 42.0634 35.0198C42.0684 35.0088 42.0735 34.998 42.078 34.9867C42.0836 34.9733 42.0882 34.9596 42.0931 34.9459C42.0973 34.9338 42.1017 34.9217 42.1054 34.9092C42.1092 34.8961 42.1122 34.8826 42.1156 34.8692C42.1189 34.8558 42.1226 34.8424 42.1252 34.8287C42.1278 34.8153 42.1293 34.8017 42.1314 34.7881C42.1334 34.7741 42.1358 34.7603 42.1372 34.746C42.1374 34.7439 42.1378 34.742 42.138 34.74L42.5638 29.8519H46.9548C49.5579 29.8519 50.732 31.2006 51.9748 32.6286C53.0003 33.8069 54.1453 35.1215 56.0914 35.4422C55.8442 38.0556 55.4447 41.4106 55.2659 42.8796ZM56.2367 33.7396C54.9741 33.4822 54.1974 32.5947 53.2563 31.5135C52.0794 30.1615 50.6427 28.5115 47.8885 28.2041L48.328 23.1576C52.8325 23.8238 56.3008 27.7148 56.3008 32.4016C56.3008 32.7201 56.277 33.1827 56.2367 33.7396Z" fill="#19C8DB"/>
<path d="M19.3731 40.6142C17.6554 40.6142 16.2578 42.0116 16.2578 43.7295C16.2578 45.4473 17.6554 46.8447 19.3731 46.8447C21.0907 46.8447 22.4883 45.4473 22.4883 43.7295C22.4883 42.0118 21.0907 40.6142 19.3731 40.6142ZM19.3731 45.1455C18.5922 45.1455 17.957 44.5103 17.957 43.7295C17.957 42.9486 18.5922 42.3134 19.3731 42.3134C20.1539 42.3134 20.7891 42.9486 20.7891 43.7295C20.7891 44.5103 20.1538 45.1455 19.3731 45.1455Z" fill="#19C8DB"/>
<path d="M45.8223 40.6142C44.1046 40.6142 42.707 42.0116 42.707 43.7295C42.707 45.4473 44.1046 46.8447 45.8223 46.8447C47.54 46.8447 48.9375 45.4473 48.9375 43.7295C48.9375 42.0118 47.54 40.6142 45.8223 40.6142ZM45.8223 45.1455C45.0414 45.1455 44.4063 44.5103 44.4063 43.7295C44.4063 42.9486 45.0414 42.3134 45.8223 42.3134C46.6031 42.3134 47.2383 42.9486 47.2383 43.7295C47.2383 44.5103 46.6031 45.1455 45.8223 45.1455Z" fill="#19C8DB"/>
<path d="M8.04226 21.3567H3.88868C3.41935 21.3567 3.03906 21.7371 3.03906 22.2063C3.03906 22.6755 3.41935 23.0559 3.88868 23.0559H8.04226C8.51159 23.0559 8.89187 22.6755 8.89187 22.2063C8.89187 21.7371 8.51159 21.3567 8.04226 21.3567Z" fill="#19C8DB"/>
</svg>
