<svg width="60" height="60" viewBox="0 0 60 60" fill="none" xmlns="http://www.w3.org/2000/svg">
<path d="M15.2977 46.8129H25.3266C26.1 49.4953 28.0219 50.9789 28.8328 51.5004V53.727C28.8331 53.9051 28.9041 54.0759 29.0302 54.2018C29.1564 54.3277 29.3273 54.3984 29.5055 54.3984H42.818C42.996 54.3981 43.1666 54.3273 43.2924 54.2014C43.4183 54.0756 43.4891 53.9049 43.4894 53.727V47.3215L47.4141 35.2734C47.6491 34.5557 47.7211 33.7946 47.6249 33.0455C47.5286 32.2964 47.2664 31.5783 46.8574 30.9434L42.034 23.4258C41.9882 23.3475 41.927 23.2793 41.8542 23.2253C41.7813 23.1712 41.6983 23.1325 41.6101 23.1114C41.5219 23.0903 41.4304 23.0872 41.341 23.1023C41.2516 23.1175 41.1661 23.1506 41.0898 23.1996C41.0135 23.2486 40.9479 23.3126 40.897 23.3876C40.846 23.4626 40.8108 23.5472 40.7933 23.6362C40.7759 23.7252 40.7766 23.8168 40.7955 23.9055C40.8144 23.9942 40.851 24.0781 40.9031 24.1523L45.7266 31.6699C46.0277 32.1373 46.2207 32.666 46.2914 33.2174C46.3622 33.7689 46.3089 34.3292 46.1355 34.8574L42.1781 47.0062C42.1566 47.0737 42.1455 47.144 42.1453 47.2148V53.0555H30.177V51.1172C30.1771 50.994 30.1432 50.8731 30.0791 50.7679C30.015 50.6627 29.9232 50.5771 29.8137 50.5207C28.3884 49.6788 27.2995 48.3683 26.7328 46.8129H29.9906C30.4594 47.9988 31.3055 49.316 32.857 50.127C32.9527 50.1777 33.0593 50.2043 33.1676 50.2043C33.3179 50.2042 33.4639 50.1538 33.5822 50.0611C33.7005 49.9684 33.7844 49.8387 33.8204 49.6928C33.8564 49.5469 33.8425 49.3931 33.7809 49.2559C33.7193 49.1188 33.6135 49.0063 33.4805 48.9363C30.8859 47.5793 30.7723 44.2102 30.7711 44.1914C30.7711 39.6809 33.9234 38.3801 34.0523 38.332C34.1794 38.2834 34.2887 38.1972 34.3657 38.0851C34.4427 37.9729 34.4838 37.84 34.4836 37.7039V31.0465C34.496 30.5436 34.7045 30.0655 35.0645 29.7142C35.4246 29.3629 35.9077 29.1663 36.4107 29.1663C36.9138 29.1663 37.3969 29.3629 37.7569 29.7142C38.117 30.0655 38.3255 30.5436 38.3379 31.0465V38.9895C38.3341 39.0801 38.3487 39.1705 38.3808 39.2554C38.4128 39.3402 38.4617 39.4177 38.5245 39.4831C38.5873 39.5486 38.6626 39.6007 38.7461 39.6363C38.8295 39.6718 38.9193 39.6902 39.01 39.6902C39.1007 39.6902 39.1904 39.6718 39.2738 39.6363C39.3573 39.6007 39.4326 39.5486 39.4954 39.4831C39.5582 39.4177 39.6071 39.3402 39.6392 39.2554C39.6712 39.1705 39.6858 39.0801 39.682 38.9895V31.0465C39.6658 30.1896 39.314 29.3733 38.7023 28.7731C38.0906 28.1728 37.2678 27.8365 36.4107 27.8365C35.5537 27.8365 34.7309 28.1728 34.1192 28.7731C33.5075 29.3733 33.1557 30.1896 33.1395 31.0465V37.2785C32.0742 37.8551 29.4258 39.7395 29.4258 44.2055C29.4442 44.6305 29.4991 45.0531 29.5898 45.4688H19.4754V6.94453H23.8992V43.1309C23.9065 43.3042 23.9804 43.4681 24.1057 43.5883C24.2309 43.7084 24.3977 43.7754 24.5713 43.7754C24.7448 43.7754 24.9117 43.7084 25.0369 43.5883C25.1621 43.4681 25.2361 43.3042 25.2434 43.1309V6.94453H36.7195C37.1489 6.94515 37.5604 7.11598 37.864 7.41957C38.1676 7.72315 38.3384 8.13473 38.3391 8.56406V26.3672C38.3463 26.5406 38.4203 26.7045 38.5455 26.8246C38.6708 26.9447 38.8376 27.0118 39.0111 27.0118C39.1847 27.0118 39.3515 26.9447 39.4767 26.8246C39.602 26.7045 39.676 26.5406 39.6832 26.3672V8.56406C39.6826 7.77824 39.3701 7.02478 38.8145 6.46912C38.2588 5.91345 37.5054 5.60101 36.7195 5.60039H15.2977C14.5118 5.60101 13.7584 5.91345 13.2027 6.46912C12.647 7.02478 12.3346 7.77824 12.334 8.56406V43.8492C12.3349 44.6349 12.6475 45.3882 13.2031 45.9438C13.7586 46.4994 14.5119 46.812 15.2977 46.8129ZM13.6781 8.56406C13.6787 8.13473 13.8496 7.72315 14.1532 7.41957C14.4567 7.11598 14.8683 6.94515 15.2977 6.94453H18.1312V45.4688H15.2977C14.8683 45.4681 14.4567 45.2973 14.1532 44.9937C13.8496 44.6901 13.6787 44.2786 13.6781 43.8492V8.56406Z" fill="#19C8DB"/>
<path d="M28.8688 37.8774C29.0472 37.8774 29.2182 37.8065 29.3444 37.6803C29.4705 37.5542 29.5414 37.3831 29.5414 37.2047V28.4473C29.5342 28.2739 29.4602 28.11 29.3349 27.9899C29.2097 27.8698 29.0429 27.8027 28.8693 27.8027C28.6958 27.8027 28.529 27.8698 28.4037 27.9899C28.2785 28.11 28.2045 28.2739 28.1973 28.4473V37.2047C28.1971 37.293 28.2144 37.3804 28.248 37.462C28.2817 37.5436 28.3312 37.6178 28.3935 37.6803C28.4559 37.7427 28.53 37.7923 28.6115 37.8261C28.6931 37.8599 28.7805 37.8774 28.8688 37.8774Z" fill="#19C8DB"/>
<path d="M28.2094 25.4813C28.2178 25.5239 28.2308 25.5656 28.248 25.6055C28.2638 25.647 28.2847 25.6863 28.3102 25.7227C28.3342 25.7591 28.3621 25.7929 28.3934 25.8234C28.4869 25.9169 28.606 25.9807 28.7357 26.0068C28.8653 26.0328 28.9998 26.02 29.1222 25.97C29.2446 25.9199 29.3495 25.8348 29.4237 25.7253C29.498 25.6159 29.5382 25.4869 29.5395 25.3547C29.5399 25.3102 29.5356 25.2658 29.5266 25.2223C29.5179 25.179 29.5053 25.1367 29.4891 25.0957C29.4717 25.055 29.4509 25.0158 29.427 24.9785C29.402 24.9424 29.3738 24.9086 29.3426 24.8777C29.2803 24.8153 29.2063 24.7658 29.1249 24.732C29.0435 24.6982 28.9561 24.6808 28.868 24.6808C28.7798 24.6808 28.6925 24.6982 28.611 24.732C28.5296 24.7658 28.4556 24.8153 28.3934 24.8777C28.3618 24.908 28.3339 24.9418 28.3102 24.9785C28.2853 25.0152 28.2645 25.0545 28.248 25.0957C28.2309 25.1365 28.2179 25.1789 28.2094 25.2223C28.1999 25.2658 28.1952 25.3102 28.1953 25.3547C28.1957 25.3972 28.2004 25.4396 28.2094 25.4813Z" fill="#19C8DB"/>
<path d="M28.3934 22.8621C28.5196 22.9873 28.6902 23.0576 28.868 23.0576C29.0458 23.0576 29.2164 22.9873 29.3426 22.8621C29.3741 22.8307 29.4024 22.7961 29.427 22.759C29.4516 22.7222 29.4724 22.6829 29.4891 22.6418C29.5056 22.6017 29.5182 22.5601 29.5266 22.5176C29.5437 22.4305 29.5437 22.341 29.5266 22.2539C29.5179 22.2107 29.5053 22.1683 29.4891 22.1273C29.4717 22.0866 29.4509 22.0474 29.427 22.0102C29.4018 21.9738 29.3735 21.9397 29.3426 21.9082C29.2803 21.8458 29.2063 21.7962 29.1249 21.7624C29.0435 21.7286 28.9561 21.7112 28.868 21.7112C28.7798 21.7112 28.6925 21.7286 28.611 21.7624C28.5296 21.7962 28.4556 21.8458 28.3934 21.9082C28.3313 21.9708 28.282 22.0448 28.248 22.1262C28.2309 22.1669 28.2179 22.2093 28.2094 22.2527C28.2001 22.2959 28.1954 22.3399 28.1953 22.384C28.196 22.5632 28.2671 22.7349 28.3934 22.8621Z" fill="#19C8DB"/>
<path d="M28.248 19.6723C28.2637 19.7138 28.2846 19.7532 28.3102 19.7895C28.3336 19.8271 28.3615 19.8617 28.3934 19.8926C28.5196 20.0178 28.6902 20.0881 28.868 20.0881C29.0458 20.0881 29.2164 20.0178 29.3426 19.8926C29.4052 19.8302 29.4549 19.7561 29.4887 19.6744C29.5225 19.5928 29.5397 19.5052 29.5395 19.4168C29.5398 19.3727 29.5355 19.3287 29.5266 19.2856C29.5182 19.2426 29.5056 19.2006 29.4891 19.1602C29.4722 19.1192 29.4514 19.0799 29.427 19.043C29.4021 19.0061 29.3738 18.9715 29.3426 18.9398C29.2803 18.8774 29.2063 18.8279 29.1249 18.7941C29.0435 18.7603 28.9561 18.7429 28.868 18.7429C28.7798 18.7429 28.6925 18.7603 28.611 18.7941C28.5296 18.8279 28.4556 18.8774 28.3934 18.9398C28.3618 18.971 28.3339 19.0056 28.3102 19.043C28.2848 19.0794 28.264 19.1187 28.248 19.1602C28.2306 19.2004 28.2176 19.2425 28.2094 19.2856C28.2001 19.3287 28.1954 19.3727 28.1953 19.4168C28.1953 19.4609 28.2 19.5049 28.2094 19.548C28.2175 19.5908 28.2305 19.6325 28.248 19.6723Z" fill="#19C8DB"/>
</svg>
