<svg width="25" height="25" viewBox="0 0 25 25" fill="none" xmlns="http://www.w3.org/2000/svg">
<path fill-rule="evenodd" clip-rule="evenodd" d="M21.0459 16.4845C20.9441 16.3118 20.6696 16.21 20.2593 16.0064C19.8491 15.8028 17.8349 14.8096 17.4586 14.6708C17.0822 14.532 16.8108 14.4672 16.5332 14.8774C16.2556 15.2877 15.4752 16.21 15.2377 16.4845C15.0002 16.759 14.7565 16.793 14.3493 16.5863C13.147 16.1035 12.0376 15.4157 11.0704 14.5536C10.1742 13.7246 9.40603 12.7672 8.79093 11.7127C8.55033 11.3024 8.76317 11.0958 8.96984 10.8768C9.17651 10.6578 9.38009 10.3956 9.58675 10.1581C9.75635 9.95117 9.89459 9.72044 9.997 9.4733C10.051 9.35998 10.0761 9.23507 10.0702 9.10969C10.0643 8.9843 10.0275 8.86233 9.96306 8.7546C9.86127 8.55102 9.0377 6.53371 8.6984 5.71322C8.3591 4.89273 8.02905 5.02228 7.77303 5.00685C7.51701 4.99143 7.261 5.00685 6.98956 5.00685C6.77874 5.01034 6.57099 5.05798 6.37972 5.1467C6.18846 5.23543 6.01791 5.36327 5.8791 5.52198C5.41909 5.95815 5.05422 6.48471 4.8074 7.0686C4.56057 7.6525 4.43712 8.28112 4.44479 8.91499C4.44479 10.9323 5.91304 12.8817 6.11971 13.1563C6.32637 13.4308 9.00995 17.5703 13.1217 19.3439C13.8851 19.6733 14.6655 19.9616 15.4597 20.2076C16.296 20.4615 17.1799 20.5175 18.0415 20.371C18.8281 20.2538 20.466 19.3778 20.8176 18.4216C21.1693 17.4654 21.1477 16.6542 21.0459 16.4845Z" fill="#19C8DB"/>
</svg>
