<svg width="25" height="25" viewBox="0 0 25 25" fill="none" xmlns="http://www.w3.org/2000/svg">
<path d="M21.1111 12.798C21.1111 15.6642 19.7694 17.0045 18.0838 17.0045C17.6201 17.0052 17.1639 16.888 16.7579 16.664C16.3519 16.4399 16.0096 16.1164 15.763 15.7237C15.0828 16.4142 14.1839 16.8471 13.22 16.9482C12.256 17.0494 11.2869 16.8125 10.4782 16.2782C9.66956 15.7439 9.0716 14.9453 8.78658 14.0189C8.50156 13.0925 8.54718 12.0959 8.91564 11.1994C9.28409 10.3029 9.95251 9.56228 10.8066 9.10407C11.6607 8.64587 12.6474 8.49857 13.5981 8.68736C14.5488 8.87614 15.4044 9.38929 16.0186 10.1391C16.6328 10.8889 16.9675 11.8287 16.9655 12.798V14.1644C16.9655 14.8563 17.4529 15.3436 18.0838 15.3436C18.8352 15.3436 19.4444 14.7127 19.4444 12.8023C19.4522 11.3125 18.9632 9.86252 18.0548 8.68161C17.1464 7.5007 15.8704 6.65617 14.4285 6.28147C12.9865 5.90677 11.4608 6.02327 10.0924 6.61256C8.72401 7.20185 7.59103 8.23033 6.87248 9.53547C6.15393 10.8406 5.89079 12.348 6.12463 13.8194C6.35847 15.2908 7.07597 16.6423 8.16374 17.6604C9.25151 18.6784 10.6475 19.305 12.1312 19.441C13.6148 19.5771 15.1015 19.2148 16.3562 18.4115L17.4528 19.672C16.0703 20.6166 14.4333 21.1184 12.7589 21.111C11.1107 21.1072 9.50057 20.6148 8.13221 19.696C6.76385 18.7771 5.6987 17.4731 5.07146 15.9489C4.44422 14.4247 4.28307 12.7487 4.60839 11.1329C4.93371 9.51707 5.73089 8.03402 6.8991 6.87128C8.06732 5.70854 9.5541 4.91835 11.1714 4.60063C12.7887 4.28291 14.464 4.45193 15.9852 5.08633C17.5065 5.72072 18.8055 6.79199 19.7179 8.16465C20.6303 9.53732 21.1151 11.1497 21.1111 12.798ZM12.7792 15.3393C13.2819 15.3393 13.7732 15.1902 14.1911 14.911C14.609 14.6318 14.9348 14.2349 15.1271 13.7705C15.3195 13.3061 15.3698 12.7951 15.2717 12.3022C15.1737 11.8092 14.9316 11.3564 14.5762 11.001C14.2208 10.6455 13.768 10.4035 13.275 10.3054C12.782 10.2074 12.2711 10.2577 11.8067 10.4501C11.3423 10.6424 10.9454 10.9681 10.6662 11.3861C10.3869 11.804 10.2379 12.2953 10.2379 12.798C10.2379 13.472 10.5056 14.1184 10.9822 14.595C11.4588 15.0715 12.1052 15.3393 12.7792 15.3393Z" fill="#19C8DB"/>
</svg>
