<svg width="46" height="43" viewBox="0 0 46 43" fill="none" xmlns="http://www.w3.org/2000/svg">
<g clip-path="url(#clip0_142_37)">
<path d="M15.4752 31.7496C13.6793 31.7496 12.21 33.2941 12.21 35.1819C12.21 37.0698 13.6793 38.6143 15.4752 38.6143C17.271 38.6143 18.7404 37.0698 18.7404 35.1819C18.7404 33.2941 17.271 31.7496 15.4752 31.7496ZM5.67963 4.29048V7.72287H8.94481L14.8221 20.7659L12.5365 24.8848C12.3733 25.3997 12.21 26.0861 12.21 26.601C12.21 28.4888 13.6793 30.0334 15.4752 30.0334H35.0663V26.601H16.1282C15.965 26.601 15.8017 26.4294 15.8017 26.2577V26.0861L17.271 23.1685H29.3522C30.6583 23.1685 31.6378 22.4821 32.1276 21.4523L38.0049 10.2972C38.3315 9.95392 38.3315 9.7823 38.3315 9.43906C38.3315 8.40934 37.6784 7.72287 36.6989 7.72287H12.5365L11.0672 4.29048H5.67963ZM31.8011 31.7496C30.0052 31.7496 28.5359 33.2941 28.5359 35.1819C28.5359 37.0698 30.0052 38.6143 31.8011 38.6143C33.5969 38.6143 35.0663 37.0698 35.0663 35.1819C35.0663 33.2941 33.5969 31.7496 31.8011 31.7496Z" fill="#19C8DB"/>
</g>
<defs>
<clipPath id="clip0_142_37">
<rect width="45.4286" height="42.9048" fill="white"/>
</clipPath>
</defs>
</svg>
