<svg width="20" height="20" viewBox="0 0 20 20" fill="none" xmlns="http://www.w3.org/2000/svg">
<path fill-rule="evenodd" clip-rule="evenodd" d="M1.97411 1.97447C4.60631 -0.658151 8.87398 -0.658159 11.5061 1.97446C14.0046 4.47333 14.1315 8.44587 11.8868 11.0945L19.8362 19.0452C20.0546 19.2636 20.0546 19.6178 19.8361 19.8362C19.6177 20.0546 19.2635 20.0546 19.0451 19.8361L11.0961 11.8858C8.44798 14.1338 4.47365 14.0078 1.97411 11.5078C-0.658037 8.87523 -0.658038 4.60705 1.97411 1.97447ZM10.715 2.76544C8.51979 0.569786 4.96051 0.56978 2.7652 2.76545C0.569843 4.96116 0.569841 8.52112 2.7652 10.7169C4.96051 12.9125 8.51979 12.9125 10.715 10.7169C12.9104 8.52112 12.9104 4.96116 10.715 2.76544Z" fill="#373737"/>
</svg>
