<svg width="18" height="18" viewBox="0 0 18 18" fill="none" xmlns="http://www.w3.org/2000/svg">
<path d="M11.8513 6.51432C11.8513 4.94889 10.5722 3.67538 8.99999 3.67538C7.42781 3.67538 6.14868 4.94889 6.14868 6.51432C6.14868 8.07976 7.42781 9.35326 8.99999 9.35326C10.5722 9.35326 11.8513 8.07976 11.8513 6.51432Z" fill="#19C8DB"/>
<path d="M8.99858 17.9989L10.1542 16.4872C11.3605 14.8902 15.2961 9.44916 15.2961 6.47438C15.2963 2.60241 12.7662 0.00112915 8.99999 0.00112915C5.23377 0.00112915 2.70364 2.60241 2.70364 6.47466C2.70364 9.6781 7.32514 15.8026 7.8508 16.4886L8.99858 17.9989ZM5.02368 6.51432C5.02368 4.32872 6.80736 2.55038 8.99999 2.55038C11.1926 2.55038 12.9763 4.32872 12.9763 6.51432C12.9763 8.69991 11.1926 10.4783 8.99999 10.4783C6.80736 10.4783 5.02368 8.70019 5.02368 6.51432Z" fill="#19C8DB"/>
</svg>
