<svg width="15" height="15" viewBox="0 0 15 15" fill="none" xmlns="http://www.w3.org/2000/svg">
<path d="M7.05883 7.05882C9.00807 7.05882 10.5882 5.47865 10.5882 3.52941C10.5882 1.58017 9.00807 0 7.05883 0C5.10959 0 3.52942 1.58017 3.52942 3.52941C3.52942 5.47865 5.10959 7.05882 7.05883 7.05882Z" fill="#19C8DB"/>
<path d="M14.1176 15V11.4706C14.1176 10.9412 13.8529 10.4118 13.4118 10.0588C12.4412 9.26469 11.2059 8.73528 9.97059 8.38234C9.08824 8.11763 8.11765 7.94116 7.05882 7.94116C6.08824 7.94116 5.11765 8.11763 4.14706 8.38234C2.91176 8.73528 1.67647 9.35293 0.705883 10.0588C0.264706 10.4118 0 10.9412 0 11.4706V15H14.1176Z" fill="#19C8DB"/>
</svg>
