<svg width="15" height="15" viewBox="0 0 15 15" fill="none" xmlns="http://www.w3.org/2000/svg">
<path d="M13.8158 9.8763C12.8905 9.8763 11.9843 9.73185 11.1253 9.44843C10.706 9.30398 10.23 9.41527 9.95445 9.6963L8.25158 10.9824C6.29764 9.93952 5.04711 8.68972 4.01844 6.75001L5.26974 5.08737C5.58474 4.77237 5.69765 4.31131 5.56264 3.87948C5.27685 3.015 5.1316 2.1079 5.1316 1.18421C5.1316 0.531304 4.60029 0 3.94738 0H1.18421C0.531304 0 0 0.531304 0 1.18421C0 8.80185 6.19816 15 13.8158 15C14.4687 15 15 14.4687 15 13.8158V11.0606C15 10.4076 14.4687 9.8763 13.8158 9.8763Z" fill="#19C8DB"/>
</svg>
