<svg width="1156" height="51" viewBox="0 0 1156 51" fill="none" xmlns="http://www.w3.org/2000/svg">
<path d="M0 0.644826H2.60064V32.3L13.476 0.644826H15.8928V41.6793H13.3184V10.0828L2.41675 41.6793H0V0.644826Z" fill="#C6C6C6"/>
<path d="M38.6744 41.6793L38.6482 11.7828L32.0021 36.6966H30.7937L24.1476 11.9586V41.6793H21.6258V0.644826H23.7799L31.4504 29.4862L39.0159 0.644826H41.17L41.1963 41.6793H38.6744Z" fill="#C6C6C6"/>
<path d="M60.2647 36.5793V41.6793H46.92V0.644826H59.8969V5.74483H49.5469V18.3483H58.7674V23.331H49.5469V36.5793H60.2647Z" fill="#C6C6C6"/>
<path d="M79.626 0.175863C81.3948 0.175863 82.9885 1.09425 84.407 2.93104C85.8255 4.72874 86.9376 7.22988 87.7432 10.4345C88.5663 13.6 88.9778 17.1759 88.9778 21.1621C88.9778 25.1483 88.5663 28.7437 87.7432 31.9483C86.9376 35.1138 85.8255 37.6149 84.407 39.4517C82.9885 41.2494 81.3948 42.1483 79.626 42.1483C77.9798 42.1483 76.4825 41.3471 75.134 39.7448C73.7856 38.1425 72.691 35.9345 71.8504 33.1207C71.0098 30.3069 70.5107 27.1023 70.3531 23.5069H66.9906V41.6793H64.39V0.644826H66.9906V18.231H70.3793C70.572 14.7529 71.0886 11.646 71.9292 8.91035C72.7873 6.17471 73.8819 4.04483 75.2128 2.52069C76.5438 0.957472 78.0149 0.175863 79.626 0.175863ZM79.626 36.8724C80.887 36.8724 82.0253 36.208 83.041 34.8793C84.0743 33.5115 84.8799 31.6356 85.4578 29.2517C86.0532 26.8678 86.3509 24.1713 86.3509 21.1621C86.3509 18.1529 86.0532 15.4563 85.4578 13.0724C84.8799 10.6885 84.0743 8.83218 83.041 7.50345C82.0253 6.13563 80.887 5.45172 79.626 5.45172C78.3826 5.45172 77.2531 6.13563 76.2373 7.50345C75.2216 8.83218 74.416 10.6885 73.8206 13.0724C73.2427 15.4563 72.9537 18.1529 72.9537 21.1621C72.9537 24.1713 73.2427 26.8678 73.8206 29.2517C74.416 31.6356 75.2216 33.5115 76.2373 34.8793C77.2531 36.208 78.3826 36.8724 79.626 36.8724Z" fill="#C6C6C6"/>
<path d="M105.629 5.74483H99.3243V41.6793H96.75V5.74483H90.4717V0.644826H105.629V5.74483Z" fill="#C6C6C6"/>
<path d="M116.787 42.1483C114.948 42.1483 113.285 41.2494 111.796 39.4517C110.325 37.6149 109.169 35.1138 108.329 31.9483C107.488 28.7437 107.068 25.1483 107.068 21.1621C107.068 17.1759 107.488 13.6 108.329 10.4345C109.169 7.22988 110.334 4.72874 111.822 2.93104C113.311 1.09425 114.975 0.175863 116.814 0.175863C118.25 0.175863 119.563 0.72299 120.754 1.81724C121.945 2.87241 122.961 4.45517 123.801 6.56552L122.094 10.2586C120.71 7.01494 118.985 5.3931 116.919 5.3931C115.553 5.3931 114.318 6.07701 113.215 7.44483C112.111 8.81264 111.245 10.708 110.614 13.131C110.001 15.5149 109.695 18.192 109.695 21.1621C109.695 24.1322 110.001 26.8287 110.614 29.2517C111.245 31.6356 112.111 33.5115 113.215 34.8793C114.318 36.2471 115.553 36.931 116.919 36.931C118.968 36.931 120.693 35.2897 122.094 32.0069L123.801 35.7C122.961 37.8103 121.936 39.4126 120.728 40.5069C119.537 41.6012 118.223 42.1483 116.787 42.1483Z" fill="#C6C6C6"/>
<path d="M140.46 0.644826V41.6793H137.886V29.7207H132.816C132.501 29.7207 132.264 29.7011 132.107 29.6621L128.429 41.6793H125.645L129.716 28.6655C128.403 27.6885 127.396 26.0667 126.695 23.8C125.995 21.4943 125.645 18.7 125.645 15.4172C125.645 10.7667 126.31 7.15172 127.641 4.57241C128.989 1.95402 130.802 0.644826 133.079 0.644826H140.46ZM128.298 15.3586C128.298 18.4069 128.692 20.7517 129.48 22.3931C130.285 23.9954 131.467 24.7966 133.026 24.7966H137.886V5.74483H133.184C131.608 5.74483 130.399 6.56552 129.559 8.20689C128.718 9.84827 128.298 12.2322 128.298 15.3586Z" fill="#C6C6C6"/>
<path d="M169.094 0.644826V41.6793H166.519V5.74483H155.854V41.6793H153.253V0.644826H169.094Z" fill="#C6C6C6"/>
<path d="M181.999 0.644826C184.381 0.644826 186.255 1.91494 187.621 4.45517C188.987 6.9954 189.67 10.4931 189.67 14.9483C189.67 19.4034 188.987 22.9011 187.621 25.4414C186.255 27.9816 184.381 29.2517 181.999 29.2517H177.455V41.6793H174.828V0.644826H181.999ZM181.92 24.1517C183.584 24.1517 184.854 23.3701 185.729 21.8069C186.605 20.2046 187.043 17.9184 187.043 14.9483C187.043 11.9782 186.605 9.71149 185.729 8.14828C184.854 6.54598 183.584 5.74483 181.92 5.74483H177.455V24.1517H181.92Z" fill="#C6C6C6"/>
<path d="M201.855 42.1483C199.999 42.1483 198.326 41.2494 196.838 39.4517C195.349 37.6149 194.176 35.0943 193.318 31.8897C192.477 28.6851 192.057 25.1092 192.057 21.1621C192.057 17.2149 192.477 13.6391 193.318 10.4345C194.176 7.22988 195.349 4.72874 196.838 2.93104C198.326 1.09425 199.999 0.175863 201.855 0.175863C203.694 0.175863 205.358 1.09425 206.846 2.93104C208.335 4.72874 209.499 7.22988 210.34 10.4345C211.181 13.6 211.601 17.1759 211.601 21.1621C211.601 25.1483 211.181 28.7437 210.34 31.9483C209.499 35.1138 208.335 37.6149 206.846 39.4517C205.358 41.2494 203.694 42.1483 201.855 42.1483ZM201.855 36.931C203.204 36.931 204.412 36.2471 205.48 34.8793C206.566 33.5115 207.415 31.6356 208.028 29.2517C208.659 26.8287 208.974 24.1322 208.974 21.1621C208.974 18.192 208.659 15.5149 208.028 13.131C207.415 10.708 206.566 8.81264 205.48 7.44483C204.412 6.07701 203.204 5.3931 201.855 5.3931C200.507 5.3931 199.281 6.07701 198.177 7.44483C197.092 8.81264 196.234 10.708 195.603 13.131C194.99 15.5149 194.684 18.192 194.684 21.1621C194.684 24.1322 194.99 26.8287 195.603 29.2517C196.234 31.6356 197.092 33.5115 198.177 34.8793C199.281 36.2471 200.507 36.931 201.855 36.931Z" fill="#C6C6C6"/>
<path d="M228.226 5.74483H221.922V41.6793H219.347V5.74483H213.069V0.644826H228.226V5.74483Z" fill="#C6C6C6"/>
<path d="M231.419 0.644826H234.02V32.3L244.895 0.644826H247.312V41.6793H244.738V10.0828L233.836 41.6793H231.419V0.644826Z" fill="#C6C6C6"/>
<path d="M264.498 20.4C265.742 21.0644 266.679 22.2563 267.309 23.9759C267.957 25.6563 268.281 27.8253 268.281 30.4828C268.281 34.0391 267.694 36.7943 266.521 38.7483C265.365 40.7023 263.675 41.6793 261.451 41.6793H253.045V0.644826H260.952C262.966 0.644826 264.533 1.56322 265.654 3.4C266.792 5.1977 267.362 7.79655 267.362 11.1966C267.362 13.4241 267.108 15.3195 266.6 16.8828C266.109 18.446 265.409 19.6184 264.498 20.4ZM255.646 18.7H260.768C262.046 18.7 263.018 18.1333 263.684 17C264.367 15.8667 264.708 14.2057 264.708 12.0172C264.708 9.82873 264.367 8.16782 263.684 7.03448C263.001 5.86207 262.029 5.27586 260.768 5.27586H255.646V18.7ZM261.398 37.0483C264.218 37.0483 265.628 34.7034 265.628 30.0138C265.628 27.669 265.269 25.9494 264.551 24.8552C263.85 23.7218 262.8 23.1552 261.398 23.1552H255.646V37.0483H261.398Z" fill="#C6C6C6"/>
<path d="M280.945 42.1483C279.088 42.1483 277.416 41.2494 275.927 39.4517C274.439 37.6149 273.265 35.0943 272.407 31.8897C271.566 28.6851 271.146 25.1092 271.146 21.1621C271.146 17.2149 271.566 13.6391 272.407 10.4345C273.265 7.22988 274.439 4.72874 275.927 2.93104C277.416 1.09425 279.088 0.175863 280.945 0.175863C282.783 0.175863 284.447 1.09425 285.936 2.93104C287.424 4.72874 288.589 7.22988 289.429 10.4345C290.27 13.6 290.69 17.1759 290.69 21.1621C290.69 25.1483 290.27 28.7437 289.429 31.9483C288.589 35.1138 287.424 37.6149 285.936 39.4517C284.447 41.2494 282.783 42.1483 280.945 42.1483ZM280.945 36.931C282.293 36.931 283.501 36.2471 284.57 34.8793C285.655 33.5115 286.505 31.6356 287.118 29.2517C287.748 26.8287 288.063 24.1322 288.063 21.1621C288.063 18.192 287.748 15.5149 287.118 13.131C286.505 10.708 285.655 8.81264 284.57 7.44483C283.501 6.07701 282.293 5.3931 280.945 5.3931C279.596 5.3931 278.37 6.07701 277.267 7.44483C276.181 8.81264 275.323 10.708 274.692 13.131C274.08 15.5149 273.773 18.192 273.773 21.1621C273.773 24.1322 274.08 26.8287 274.692 29.2517C275.323 31.6356 276.181 33.5115 277.267 34.8793C278.37 36.2471 279.596 36.931 280.945 36.931Z" fill="#C6C6C6"/>
<path d="M310.777 0.644826V41.6793H308.203V5.74483H297.538V41.6793H294.937V0.644826H310.777Z" fill="#C6C6C6"/>
<path d="M324.786 42.1483C322.93 42.1483 321.257 41.2494 319.769 39.4517C318.28 37.6149 317.107 35.0943 316.249 31.8897C315.408 28.6851 314.988 25.1092 314.988 21.1621C314.988 17.2149 315.408 13.6391 316.249 10.4345C317.107 7.22988 318.28 4.72874 319.769 2.93104C321.257 1.09425 322.93 0.175863 324.786 0.175863C326.625 0.175863 328.289 1.09425 329.777 2.93104C331.266 4.72874 332.43 7.22988 333.271 10.4345C334.112 13.6 334.532 17.1759 334.532 21.1621C334.532 25.1483 334.112 28.7437 333.271 31.9483C332.43 35.1138 331.266 37.6149 329.777 39.4517C328.289 41.2494 326.625 42.1483 324.786 42.1483ZM324.786 36.931C326.135 36.931 327.343 36.2471 328.411 34.8793C329.497 33.5115 330.346 31.6356 330.959 29.2517C331.59 26.8287 331.905 24.1322 331.905 21.1621C331.905 18.192 331.59 15.5149 330.959 13.131C330.346 10.708 329.497 8.81264 328.411 7.44483C327.343 6.07701 326.135 5.3931 324.786 5.3931C323.438 5.3931 322.212 6.07701 321.108 7.44483C320.023 8.81264 319.165 10.708 318.534 13.131C317.921 15.5149 317.615 18.192 317.615 21.1621C317.615 24.1322 317.921 26.8287 318.534 29.2517C319.165 31.6356 320.023 33.5115 321.108 34.8793C322.212 36.2471 323.438 36.931 324.786 36.931Z" fill="#C6C6C6"/>
<path d="M345.188 23.6241H341.353V41.6793H338.779V0.644826H341.353V18.4655H345.241L351.02 0.644826H353.831L347.263 20.5172L354.146 41.6793H351.151L345.188 23.6241Z" fill="#C6C6C6"/>
<path d="M368.534 31.4207H358.762L356.74 41.6793H354.034L362.361 0.644826H364.962L373.315 41.6793H370.557L368.534 31.4207ZM367.615 26.731L363.648 6.62414L359.682 26.731H367.615Z" fill="#C6C6C6"/>
<path d="M385.289 20.2828C386.445 20.9862 387.347 22.2172 387.995 23.9759C388.643 25.6954 388.967 27.7667 388.967 30.1897C388.967 32.6126 388.617 34.7425 387.916 36.5793C387.233 38.377 386.314 39.7644 385.158 40.7414C384.019 41.6793 382.776 42.1483 381.428 42.1483C380.202 42.1483 378.985 41.7379 377.776 40.9172C376.568 40.0965 375.465 38.8655 374.466 37.2241L375.386 32.8862C376.191 34.2931 377.093 35.3483 378.091 36.0517C379.09 36.7552 380.097 37.1069 381.112 37.1069C382.583 37.1069 383.818 36.423 384.816 35.0552C385.815 33.6483 386.314 31.7333 386.314 29.3103C386.314 27.2391 385.937 25.6563 385.184 24.5621C384.431 23.4287 383.372 22.8621 382.006 22.8621H377.908V18.1138H381.822C382.995 18.1138 383.906 17.5862 384.554 16.531C385.219 15.4368 385.552 13.9322 385.552 12.0172C385.552 9.86781 385.123 8.16781 384.265 6.91724C383.407 5.66667 382.321 5.04138 381.007 5.04138C380.149 5.04138 379.274 5.31494 378.38 5.86207C377.505 6.4092 376.673 7.22989 375.885 8.32414L375.044 3.51724C375.972 2.34483 376.953 1.46552 377.986 0.879309C379.02 0.293103 380.053 0 381.086 0C382.382 0 383.573 0.449425 384.659 1.34828C385.744 2.24713 386.603 3.55632 387.233 5.27586C387.881 6.9954 388.205 9.00805 388.205 11.3138C388.205 13.3851 387.942 15.2023 387.417 16.7655C386.909 18.3287 386.2 19.5011 385.289 20.2828Z" fill="#C6C6C6"/>
<path d="M405.296 31.4207H395.524L393.501 41.6793H390.795L399.122 0.644826H401.723L410.077 41.6793H407.318L405.296 31.4207ZM404.376 26.731L400.41 6.62414L396.443 26.731H404.376Z" fill="#C6C6C6"/>
<path d="M429.064 0.644826V41.6793H426.437V23.3897H415.877V41.6793H413.25V0.644826H415.877V18.2897H426.437V0.644826H429.064Z" fill="#C6C6C6"/>
<path d="M434.799 0.644826H437.4V32.3L448.275 0.644826H450.692V41.6793H448.118V10.0828L437.216 41.6793H434.799V0.644826Z" fill="#C6C6C6"/>
<path d="M469.901 0.644826V41.6793H467.327V29.7207H462.257C461.941 29.7207 461.705 29.7011 461.547 29.6621L457.87 41.6793H455.085L459.157 28.6655C457.843 27.6885 456.836 26.0667 456.136 23.8C455.435 21.4943 455.085 18.7 455.085 15.4172C455.085 10.7667 455.751 7.15172 457.082 4.57241C458.43 1.95402 460.243 0.644826 462.519 0.644826H469.901ZM457.738 15.3586C457.738 18.4069 458.132 20.7517 458.921 22.3931C459.726 23.9954 460.908 24.7966 462.467 24.7966H467.327V5.74483H462.624C461.048 5.74483 459.84 6.56552 458.999 8.20689C458.159 9.84827 457.738 12.2322 457.738 15.3586Z" fill="#C6C6C6"/>
<path d="M475.797 34C476.287 34 476.69 34.3908 477.005 35.1724C477.338 35.9149 477.504 36.8529 477.504 37.9862C477.504 38.5724 477.469 39.1391 477.399 39.6862C477.347 40.2333 477.233 41.0736 477.058 42.2069L475.823 50.3552H474.168L475.14 41.6207C474.807 41.3471 474.536 40.8977 474.326 40.2724C474.133 39.608 474.037 38.846 474.037 37.9862C474.037 36.8138 474.203 35.8563 474.536 35.1138C474.869 34.3713 475.289 34 475.797 34Z" fill="#C6C6C6"/>
<path d="M504.46 0.644826V41.6793H501.833V23.3897H491.272V41.6793H488.646V0.644826H491.272V18.2897H501.833V0.644826H504.46Z" fill="#C6C6C6"/>
<path d="M523.539 36.5793V41.6793H510.194V0.644826H523.171V5.74483H512.821V18.3483H522.042V23.331H512.821V36.5793H523.539Z" fill="#C6C6C6"/>
<path d="M535.862 42.1483C534.006 42.1483 532.333 41.2494 530.845 39.4517C529.356 37.6149 528.183 35.0943 527.325 31.8897C526.484 28.6851 526.064 25.1092 526.064 21.1621C526.064 17.2149 526.484 13.6391 527.325 10.4345C528.183 7.22988 529.356 4.72874 530.845 2.93104C532.333 1.09425 534.006 0.175863 535.862 0.175863C537.701 0.175863 539.365 1.09425 540.853 2.93104C542.342 4.72874 543.506 7.22988 544.347 10.4345C545.188 13.6 545.608 17.1759 545.608 21.1621C545.608 25.1483 545.188 28.7437 544.347 31.9483C543.506 35.1138 542.342 37.6149 540.853 39.4517C539.365 41.2494 537.701 42.1483 535.862 42.1483ZM535.862 36.931C537.211 36.931 538.419 36.2471 539.487 34.8793C540.573 33.5115 541.422 31.6356 542.035 29.2517C542.666 26.8287 542.981 24.1322 542.981 21.1621C542.981 18.192 542.666 15.5149 542.035 13.131C541.422 10.708 540.573 8.81264 539.487 7.44483C538.419 6.07701 537.211 5.3931 535.862 5.3931C534.514 5.3931 533.288 6.07701 532.185 7.44483C531.099 8.81264 530.241 10.708 529.61 13.131C528.997 15.5149 528.691 18.192 528.691 21.1621C528.691 24.1322 528.997 26.8287 529.61 29.2517C530.241 31.6356 531.099 33.5115 532.185 34.8793C533.288 36.2471 534.514 36.931 535.862 36.931Z" fill="#C6C6C6"/>
<path d="M549.855 0.644826H563.725V5.62759H552.455V17.3517H558.182C560.371 17.3517 562.035 18.3678 563.173 20.4C564.311 22.4322 564.88 25.3632 564.88 29.1931C564.88 33.2184 564.259 36.3057 563.015 38.4552C561.789 40.6046 560.029 41.6793 557.735 41.6793H549.855V0.644826ZM557.63 37.0483C559.136 37.0483 560.283 36.4034 561.071 35.1138C561.86 33.8241 562.254 31.9287 562.254 29.4276C562.254 24.4644 560.712 21.9828 557.63 21.9828H552.455V37.0483H557.63Z" fill="#C6C6C6"/>
<path d="M569.504 0.644826L574.311 15.6517L579.118 0.644826H582.192L575.966 20.3414L582.691 41.6793H579.591L574.311 25.3241L569.057 41.6793H566.036L572.735 20.5759L566.483 0.644826H569.504Z" fill="#C6C6C6"/>
<path d="M593.608 42.1483C591.752 42.1483 590.079 41.2494 588.591 39.4517C587.102 37.6149 585.929 35.0943 585.07 31.8897C584.23 28.6851 583.81 25.1092 583.81 21.1621C583.81 17.2149 584.23 13.6391 585.07 10.4345C585.929 7.22988 587.102 4.72874 588.591 2.93104C590.079 1.09425 591.752 0.175863 593.608 0.175863C595.447 0.175863 597.11 1.09425 598.599 2.93104C600.088 4.72874 601.252 7.22988 602.093 10.4345C602.933 13.6 603.354 17.1759 603.354 21.1621C603.354 25.1483 602.933 28.7437 602.093 31.9483C601.252 35.1138 600.088 37.6149 598.599 39.4517C597.11 41.2494 595.447 42.1483 593.608 42.1483ZM593.608 36.931C594.956 36.931 596.165 36.2471 597.233 34.8793C598.319 33.5115 599.168 31.6356 599.781 29.2517C600.412 26.8287 600.727 24.1322 600.727 21.1621C600.727 18.192 600.412 15.5149 599.781 13.131C599.168 10.708 598.319 8.81264 597.233 7.44483C596.165 6.07701 594.956 5.3931 593.608 5.3931C592.259 5.3931 591.034 6.07701 589.93 7.44483C588.844 8.81264 587.986 10.708 587.356 13.131C586.743 15.5149 586.436 18.192 586.436 21.1621C586.436 24.1322 586.743 26.8287 587.356 29.2517C587.986 31.6356 588.844 33.5115 589.93 34.8793C591.034 36.2471 592.259 36.931 593.608 36.931Z" fill="#C6C6C6"/>
<path d="M624.609 36.5793V50.6483H622.166V41.6793H607.035L607.008 50.6483H604.565L604.592 36.5793H605.485C606.641 36.423 607.455 34.3908 607.928 30.4828C608.401 26.5356 608.69 20.9862 608.795 13.8345L608.979 0.644826H621.903V36.5793H624.609ZM611.106 14.3621C611.019 20.146 610.809 24.9333 610.476 28.7241C610.161 32.5149 609.644 35.1333 608.926 36.5793H619.302V5.74483H611.238L611.106 14.3621Z" fill="#C6C6C6"/>
<path d="M628.2 0.644826H630.801V32.3L641.676 0.644826H644.093V41.6793H641.518V10.0828L630.617 41.6793H628.2V0.644826Z" fill="#C6C6C6"/>
<path d="M666.874 41.6793L666.848 11.7828L660.202 36.6966H658.994L652.348 11.9586V41.6793H649.826V0.644826H651.98L659.65 29.4862L667.216 0.644826H669.37L669.396 41.6793H666.874Z" fill="#C6C6C6"/>
<path d="M687.072 31.4207H677.3L675.278 41.6793H672.572L680.899 0.644826H683.5L691.853 41.6793H689.095L687.072 31.4207ZM686.153 26.731L682.186 6.62414L678.22 26.731H686.153Z" fill="#C6C6C6"/>
<path d="M708.491 23.6241H704.656V41.6793H702.082V0.644826H704.656V18.4655H708.544L714.323 0.644826H717.134L710.567 20.5172L717.449 41.6793H714.454L708.491 23.6241Z" fill="#C6C6C6"/>
<path d="M728.365 42.1483C726.509 42.1483 724.836 41.2494 723.348 39.4517C721.859 37.6149 720.686 35.0943 719.828 31.8897C718.987 28.6851 718.567 25.1092 718.567 21.1621C718.567 17.2149 718.987 13.6391 719.828 10.4345C720.686 7.22988 721.859 4.72874 723.348 2.93104C724.836 1.09425 726.509 0.175863 728.365 0.175863C730.204 0.175863 731.868 1.09425 733.356 2.93104C734.845 4.72874 736.009 7.22988 736.85 10.4345C737.691 13.6 738.111 17.1759 738.111 21.1621C738.111 25.1483 737.691 28.7437 736.85 31.9483C736.009 35.1138 734.845 37.6149 733.356 39.4517C731.868 41.2494 730.204 42.1483 728.365 42.1483ZM728.365 36.931C729.714 36.931 730.922 36.2471 731.99 34.8793C733.076 33.5115 733.925 31.6356 734.538 29.2517C735.169 26.8287 735.484 24.1322 735.484 21.1621C735.484 18.192 735.169 15.5149 734.538 13.131C733.925 10.708 733.076 8.81264 731.99 7.44483C730.922 6.07701 729.714 5.3931 728.365 5.3931C727.017 5.3931 725.791 6.07701 724.688 7.44483C723.602 8.81264 722.744 10.708 722.113 13.131C721.5 15.5149 721.194 18.192 721.194 21.1621C721.194 24.1322 721.5 26.8287 722.113 29.2517C722.744 31.6356 723.602 33.5115 724.688 34.8793C725.791 36.2471 727.017 36.931 728.365 36.931Z" fill="#C6C6C6"/>
<path d="M758.171 0.644826V41.6793H755.545V23.3897H744.984V41.6793H742.358V0.644826H744.984V18.2897H755.545V0.644826H758.171Z" fill="#C6C6C6"/>
<path d="M772.129 42.1483C770.29 42.1483 768.626 41.2494 767.138 39.4517C765.666 37.6149 764.511 35.1138 763.67 31.9483C762.829 28.7437 762.409 25.1483 762.409 21.1621C762.409 17.1759 762.829 13.6 763.67 10.4345C764.511 7.22988 765.675 4.72874 767.164 2.93104C768.652 1.09425 770.316 0.175863 772.155 0.175863C773.591 0.175863 774.904 0.72299 776.095 1.81724C777.286 2.87241 778.302 4.45517 779.142 6.56552L777.435 10.2586C776.051 7.01494 774.326 5.3931 772.26 5.3931C770.894 5.3931 769.659 6.07701 768.556 7.44483C767.453 8.81264 766.586 10.708 765.955 13.131C765.342 15.5149 765.036 18.192 765.036 21.1621C765.036 24.1322 765.342 26.8287 765.955 29.2517C766.586 31.6356 767.453 33.5115 768.556 34.8793C769.659 36.2471 770.894 36.931 772.26 36.931C774.309 36.931 776.034 35.2897 777.435 32.0069L779.142 35.7C778.302 37.8103 777.277 39.4126 776.069 40.5069C774.878 41.6012 773.565 42.1483 772.129 42.1483Z" fill="#C6C6C6"/>
<path d="M797.378 0.644826L789.208 34.469C788.56 37.1655 787.798 39.1782 786.923 40.5069C786.047 41.8356 785.093 42.5 784.059 42.5C783.254 42.5 782.431 42.0897 781.59 41.269L782.273 36.5793C782.921 37.0874 783.499 37.3414 784.007 37.3414C785.163 37.3414 786.117 35.9736 786.87 33.2379L787.29 31.7724L779.883 0.644826H782.693L788.656 26.6724L794.777 0.644826H797.378Z" fill="#C6C6C6"/>
<path d="M814.898 0.644826V41.6793H812.324V5.74483H804.181L803.997 17.7621C803.909 23.4287 803.699 28.0207 803.366 31.5379C803.051 35.0552 802.543 37.7126 801.843 39.5103C801.142 41.269 800.196 42.1483 799.006 42.1483C798.463 42.1483 797.911 41.992 797.351 41.6793L797.534 36.4621C797.815 36.6184 798.095 36.6966 798.375 36.6966C799.128 36.6966 799.732 36.0322 800.188 34.7034C800.643 33.3356 800.984 31.3034 801.212 28.6069C801.44 25.9103 801.589 22.354 801.659 17.9379L801.948 0.644826H814.898Z" fill="#C6C6C6"/>
<path d="M828.691 14.9483C830.88 14.9483 832.552 16.0425 833.708 18.231C834.881 20.4195 835.468 23.6437 835.468 27.9034C835.468 32.3977 834.838 35.8172 833.577 38.1621C832.333 40.5069 830.547 41.6793 828.218 41.6793H820.626V0.644826H823.227V14.9483H828.691ZM828.113 37.0483C829.636 37.0483 830.801 36.2862 831.606 34.7621C832.43 33.1989 832.841 30.9517 832.841 28.0207C832.841 22.3931 831.265 19.5793 828.113 19.5793H823.227V37.0483H828.113Z" fill="#C6C6C6"/>
<path d="M850.193 5.74483H843.888V41.6793H841.314V5.74483H835.035V0.644826H850.193V5.74483Z" fill="#C6C6C6"/>
<path d="M864.414 31.4207H854.642L852.619 41.6793H849.914L858.241 0.644826H860.842L869.195 41.6793H866.437L864.414 31.4207ZM863.495 26.731L859.528 6.62414L855.562 26.731H863.495Z" fill="#C6C6C6"/>
<path d="M890.652 36.5793V51H888.209V41.6793H872.369V0.644826H874.969V36.5793H885.214V0.644826H887.815V36.5793H890.652Z" fill="#C6C6C6"/>
<path d="M894.149 0.644826H896.749V32.3L907.625 0.644826H910.041V41.6793H907.467V10.0828L896.565 41.6793H894.149V0.644826Z" fill="#C6C6C6"/>
<path d="M929.25 0.644826V41.6793H926.676V29.7207H921.606C921.291 29.7207 921.055 29.7011 920.897 29.6621L917.219 41.6793H914.435L918.506 28.6655C917.193 27.6885 916.186 26.0667 915.485 23.8C914.785 21.4943 914.435 18.7 914.435 15.4172C914.435 10.7667 915.1 7.15172 916.431 4.57241C917.78 1.95402 919.592 0.644826 921.869 0.644826H929.25ZM917.088 15.3586C917.088 18.4069 917.482 20.7517 918.27 22.3931C919.076 23.9954 920.258 24.7966 921.816 24.7966H926.676V5.74483H921.974C920.398 5.74483 919.189 6.56552 918.349 8.20689C917.508 9.84827 917.088 12.2322 917.088 15.3586Z" fill="#C6C6C6"/>
<path d="M950.266 42.1483C948.427 42.1483 946.763 41.2494 945.275 39.4517C943.803 37.6149 942.648 35.1138 941.807 31.9483C940.966 28.7437 940.546 25.1483 940.546 21.1621C940.546 17.1759 940.966 13.6 941.807 10.4345C942.648 7.22988 943.812 4.72874 945.301 2.93104C946.789 1.09425 948.453 0.175863 950.292 0.175863C951.728 0.175863 953.041 0.72299 954.232 1.81724C955.423 2.87241 956.439 4.45517 957.279 6.56552L955.572 10.2586C954.188 7.01494 952.464 5.3931 950.397 5.3931C949.031 5.3931 947.796 6.07701 946.693 7.44483C945.59 8.81264 944.723 10.708 944.092 13.131C943.479 15.5149 943.173 18.192 943.173 21.1621C943.173 24.1322 943.479 26.8287 944.092 29.2517C944.723 31.6356 945.59 33.5115 946.693 34.8793C947.796 36.2471 949.031 36.931 950.397 36.931C952.446 36.931 954.171 35.2897 955.572 32.0069L957.279 35.7C956.439 37.8103 955.414 39.4126 954.206 40.5069C953.015 41.6012 951.702 42.1483 950.266 42.1483Z" fill="#C6C6C6"/>
<path d="M976.739 0.644826V41.6793H974.164V5.74483H963.499V41.6793H960.899V0.644826H976.739Z" fill="#C6C6C6"/>
<path d="M995.818 36.5793V41.6793H982.473V0.644826H995.45V5.74483H985.1V18.3483H994.321V23.331H985.1V36.5793H995.818Z" fill="#C6C6C6"/>
<path d="M1018.23 36.5793V51H1015.78V41.6793H999.943V0.644826H1002.54V36.5793H1012.79V0.644826H1015.39V36.5793H1018.23Z" fill="#C6C6C6"/>
<path d="M1021.72 0.644826H1024.32V32.3L1035.2 0.644826H1037.62V41.6793H1035.04V10.0828L1024.14 41.6793H1021.72V0.644826Z" fill="#C6C6C6"/>
<path d="M1055.3 31.4207H1045.53L1043.51 41.6793H1040.8L1049.13 0.644826H1051.73L1060.08 41.6793H1057.32L1055.3 31.4207ZM1054.38 26.731L1050.42 6.62414L1046.45 26.731H1054.38Z" fill="#C6C6C6"/>
<path d="M1078.36 0.644826V41.6793H1075.78V5.74483H1067.64L1067.46 17.7621C1067.37 23.4287 1067.16 28.0207 1066.83 31.5379C1066.51 35.0552 1066 37.7126 1065.3 39.5103C1064.6 41.269 1063.66 42.1483 1062.47 42.1483C1061.92 42.1483 1061.37 41.992 1060.81 41.6793L1060.99 36.4621C1061.27 36.6184 1061.56 36.6966 1061.84 36.6966C1062.59 36.6966 1063.19 36.0322 1063.65 34.7034C1064.1 33.3356 1064.44 31.3034 1064.67 28.6069C1064.9 25.9103 1065.05 22.354 1065.12 17.9379L1065.41 0.644826H1078.36Z" fill="#C6C6C6"/>
<path d="M1084.09 0.644826H1086.69V32.3L1097.56 0.644826H1099.98V41.6793H1097.4V10.0828L1086.5 41.6793H1084.09V0.644826Z" fill="#C6C6C6"/>
<path d="M1113.93 42.1483C1112.1 42.1483 1110.43 41.2494 1108.94 39.4517C1107.47 37.6149 1106.32 35.1138 1105.48 31.9483C1104.64 28.7437 1104.21 25.1483 1104.21 21.1621C1104.21 17.1759 1104.64 13.6 1105.48 10.4345C1106.32 7.22988 1107.48 4.72874 1108.97 2.93104C1110.46 1.09425 1112.12 0.175863 1113.96 0.175863C1115.4 0.175863 1116.71 0.72299 1117.9 1.81724C1119.09 2.87241 1120.11 4.45517 1120.95 6.56552L1119.24 10.2586C1117.86 7.01494 1116.13 5.3931 1114.07 5.3931C1112.7 5.3931 1111.46 6.07701 1110.36 7.44483C1109.26 8.81264 1108.39 10.708 1107.76 13.131C1107.15 15.5149 1106.84 18.192 1106.84 21.1621C1106.84 24.1322 1107.15 26.8287 1107.76 29.2517C1108.39 31.6356 1109.26 33.5115 1110.36 34.8793C1111.46 36.2471 1112.7 36.931 1114.07 36.931C1116.11 36.931 1117.84 35.2897 1119.24 32.0069L1120.95 35.7C1120.11 37.8103 1119.08 39.4126 1117.87 40.5069C1116.68 41.6012 1115.37 42.1483 1113.93 42.1483Z" fill="#C6C6C6"/>
<path d="M1137 5.74483H1130.69V41.6793H1128.12V5.74483H1121.84V0.644826H1137V5.74483Z" fill="#C6C6C6"/>
<path d="M1151.22 31.4207H1141.45L1139.42 41.6793H1136.72L1145.05 0.644826H1147.65L1156 41.6793H1153.24L1151.22 31.4207ZM1150.3 26.731L1146.33 6.62414L1142.37 26.731H1150.3Z" fill="#C6C6C6"/>
</svg>
