<svg width="617" height="383" viewBox="0 0 617 383" fill="none" xmlns="http://www.w3.org/2000/svg">
<path d="M483.905 320.671C560.093 322.056 616.585 225.441 569.142 164.442C562.479 155.872 554.918 147.544 544.697 143.493C470.004 113.894 470.004 94.4294 452.392 64.9915C430.513 28.4212 352.068 14.8034 311.969 58.0742C271.87 101.345 201.281 83.4682 176.578 71.1048C132.864 49.2261 70.7616 78.9447 74.3676 131.107C78.7708 194.807 64.4798 196.561 31.591 249.18C5.95776 290.203 67.2503 317.969 73.2609 318.352C111.157 320.764 111.217 320.722 113.671 320.764L483.905 320.671Z" fill="#E9F6FE"/>
<path d="M488.538 313.753C566.16 315.132 623.715 218.982 575.378 158.275C568.59 149.752 560.888 141.46 550.475 137.428C474.376 107.97 474.376 88.6004 456.432 59.3102C434.141 22.9076 354.221 9.35365 313.369 52.4202C272.516 95.4868 200.599 77.6902 175.43 65.387C130.893 43.6158 67.6216 73.1814 71.295 125.102C75.782 188.497 61.2216 190.233 27.7193 242.607C1.60555 283.429 64.0503 311.064 70.1737 311.445C108.784 313.846 108.846 313.802 111.347 313.846L488.538 313.753Z" stroke="#E9F6FE" stroke-width="14" stroke-miterlimit="10"/>
<path d="M586.216 306.136C586.216 295.127 583.008 284.598 577.342 277L562.052 256.513C562.052 256.172 562.718 257.109 562.476 257.109L562.448 257.136C562.206 257.136 562.01 256.861 562.01 256.52V218.832C562.01 218.491 561.813 218.214 561.571 218.214H549.514C549.27 218.214 549.075 217.939 549.075 217.598V200.446C549.075 200.106 548.878 199.828 548.636 199.828H522.535C522.293 199.828 522.096 200.106 522.096 200.446V223.075C522.096 223.416 521.9 223.691 521.658 223.691H511.828C511.586 223.691 511.39 223.966 511.39 224.307V238.33C511.39 238.671 511.193 238.948 510.951 238.948H507.378C507.136 238.948 506.939 238.671 506.939 238.33V164.456C506.939 164.117 506.742 163.84 506.5 163.84H504.179C503.937 163.84 503.741 163.564 503.741 163.223V145.483C503.741 145.144 503.544 144.867 503.302 144.867H501.118C500.876 144.867 500.679 144.592 500.679 144.251V136.683C500.679 136.342 500.482 136.066 500.24 136.066H497.639C497.397 136.066 497.2 135.789 497.2 135.448V124.361C497.2 124.02 497.004 123.743 496.762 123.743H495.136C494.894 123.743 494.698 123.468 494.698 123.127V96.391C494.698 96.05 494.501 95.7729 494.259 95.7729H493.467C493.225 95.7729 493.028 96.05 493.028 96.391V123.123C493.028 123.464 492.832 123.739 492.59 123.739H491.103C490.86 123.739 490.664 124.017 490.664 124.358V134.662C490.664 135.003 490.467 135.281 490.225 135.281H486.93C486.688 135.281 486.492 135.556 486.492 135.897V144.637C486.492 144.978 486.295 145.255 486.053 145.255H484.566C484.324 145.255 484.127 145.531 484.127 145.872V162.828C484.127 163.169 483.931 163.444 483.689 163.444H482.061C481.819 163.444 481.623 163.721 481.623 164.062V201.951C481.623 202.292 481.426 202.567 481.184 202.567H474.134C473.892 202.567 473.695 202.292 473.695 201.951V195.165C473.695 194.824 473.499 194.548 473.257 194.548H453.962C453.719 194.548 453.523 194.271 453.523 193.93V138.256C453.523 137.915 453.328 137.64 453.084 137.64H438.384C438.141 137.64 437.945 137.363 437.945 137.022V105.513C437.945 105.201 437.781 104.938 437.561 104.9L405.48 99.3082C405.426 99.2994 405.371 99.3044 405.32 99.3227L360.11 115.216C360.002 115.272 359.913 115.358 359.854 115.465C359.795 115.571 359.768 115.693 359.778 115.814V175.74C359.778 176.081 359.582 176.358 359.34 176.358H346.308C346.066 176.358 345.87 176.081 345.87 175.74V152.525C345.87 152.186 345.673 151.908 345.431 151.908H328.226C327.984 151.908 327.787 151.633 327.787 151.292V144.311C327.787 143.97 327.59 143.693 327.348 143.693H313.762C313.52 143.693 313.323 143.418 313.323 143.077V100.697C313.323 100.357 313.126 100.081 312.884 100.081H307.788C307.545 100.081 307.349 99.8041 307.349 99.4631V87.5884C307.349 87.2475 307.152 86.9722 306.91 86.9722H273.155C272.913 86.9722 272.716 87.2475 272.716 87.5884V197.256C272.716 197.597 272.52 197.872 272.278 197.872H269.816C269.574 197.872 269.378 198.149 269.378 198.49V209.977C269.378 210.317 269.181 210.593 268.939 210.593H257.02C256.778 210.593 256.581 210.87 256.581 211.211V221.516C256.581 221.857 256.385 222.134 256.143 222.134H251.317C251.075 222.134 250.878 221.857 250.878 221.516V113.216C250.878 112.875 250.682 112.598 250.44 112.598H229.202C228.96 112.598 228.764 112.322 228.764 111.981V105.584C228.764 105.243 228.567 104.966 228.325 104.966H210.565C210.322 104.966 210.126 104.69 210.126 104.349V102.845C210.126 102.504 209.929 102.229 209.687 102.229H208.062C207.818 102.229 207.623 102.504 207.623 102.845V104.741C207.623 105.082 207.426 105.358 207.184 105.358H204.583C204.341 105.358 204.144 105.635 204.144 105.974V112.366C204.144 112.705 203.948 112.982 203.706 112.982H181.629C181.385 112.982 181.191 113.258 181.191 113.599V245.371C181.191 245.712 180.994 245.989 180.752 245.989H178.022C177.779 245.989 177.583 245.712 177.583 245.371V237.02C177.583 236.681 177.386 236.404 177.144 236.404H175.1C174.858 236.404 174.661 236.681 174.661 237.02V245.371C174.661 245.712 174.465 245.989 174.223 245.989H170.635C170.393 245.989 170.196 245.712 170.196 245.371V185.19C170.196 184.849 170 184.572 169.757 184.572H120.428C120.186 184.572 119.989 184.849 119.989 185.19V210.361C119.989 210.7 119.793 210.977 119.551 210.977H116.116C115.874 210.977 115.677 211.253 115.677 211.594V236.178C115.677 236.519 115.48 236.796 115.238 236.796H113.054C112.812 236.796 112.615 237.072 112.615 237.412V248.109C112.615 248.45 112.419 248.727 112.177 248.727H110.551C110.309 248.727 110.112 248.45 110.112 248.109V231.936C110.112 231.595 109.916 231.319 109.674 231.319H99.167C99.1044 231.316 99.0434 231.298 98.9893 231.266C98.9351 231.234 98.8893 231.19 98.8557 231.137L94.245 224.652C94.2119 224.599 94.1665 224.554 94.1126 224.522C94.0587 224.491 93.998 224.473 93.9355 224.469H89.5487C89.3066 224.469 89.11 224.194 89.11 223.853V214.721C89.11 214.38 88.9134 214.102 88.6713 214.102H88.158C87.9159 214.102 87.7193 214.38 87.7193 214.721V223.461C87.7193 223.802 87.5227 224.079 87.2806 224.079H82.1984C82.1356 224.082 82.0744 224.1 82.0201 224.132C81.9659 224.163 81.9202 224.208 81.8871 224.262L77.4146 230.55C77.3287 230.679 77.2843 230.831 77.2872 230.986V262.582C77.2872 262.923 77.0907 263.198 76.8486 263.198H67.1556C66.9135 263.198 66.7169 263.476 66.7169 263.815V303.258C66.7169 303.599 66.5203 303.877 66.2782 303.877H52.6898C52.4477 303.877 52.2511 304.152 52.2511 304.493V306.779C52.2511 307.12 52.0545 307.397 51.8124 307.397H45.061C44.9985 307.4 44.9376 307.418 44.8836 307.45C44.8297 307.482 44.7843 307.526 44.7515 307.58L40.696 313.281C40.6632 313.334 40.6179 313.379 40.564 313.411C40.51 313.442 40.449 313.46 40.3865 313.463H21.8196C21.5776 313.463 21.381 313.74 21.381 314.081V316.76C21.381 317.099 21.5776 317.376 21.8196 317.376H583.713C585.095 317.376 586.216 319.246 586.216 317.303V306.136Z" fill="#ADDFEA"/>
<path d="M334.193 363.726C215.926 363.726 120.051 360.755 120.051 357.089C120.051 353.424 215.926 350.453 334.193 350.453C452.46 350.453 548.334 353.424 548.334 357.089C548.334 360.755 452.46 363.726 334.193 363.726Z" fill="#EAEAEA"/>
<path d="M130.816 307.634V322.258H197.464L381.767 322.246H480.201H535.849C535.849 322.246 536.471 313.522 537.01 299.86C537.054 298.755 537.097 297.619 537.139 296.451C537.321 291.22 537.503 285.382 537.616 279.113C537.669 276.246 537.713 273.279 537.742 270.258C537.784 265.844 537.795 261.277 537.767 256.609C537.767 255.607 537.759 254.6 537.744 253.588C537.228 200.888 531.429 137.084 506.351 137.084H297.201C274.856 137.081 253.425 145.968 237.621 161.79L158.257 241.283C149.913 249.641 143.221 259.503 138.532 270.349C137.431 272.894 136.443 275.487 135.571 278.127C132.422 287.645 130.816 297.607 130.816 307.634Z" fill="#19C8DB"/>
<path d="M197.464 253.572V322.253L381.767 322.24H480.201H535.849C535.849 322.24 536.471 313.516 537.01 299.855C537.054 298.75 537.097 297.613 537.139 296.445C537.321 291.214 537.503 285.376 537.616 279.108C537.669 276.24 537.713 273.274 537.742 270.253C537.784 265.838 537.795 261.271 537.767 256.604C537.767 255.601 537.759 254.594 537.744 253.583L197.464 253.572Z" fill="#19C8DB"/>
<path d="M209.161 323.175H282.529C286.005 323.175 289.339 321.792 291.797 319.331C294.255 316.869 295.635 313.53 295.635 310.048V167.326C295.631 163.85 294.253 160.518 291.802 158.058C289.352 155.598 286.028 154.21 282.559 154.198L268.584 154.173H268.539C261.897 154.192 255.53 156.833 250.82 161.524L205.533 206.884C202.523 209.884 200.136 213.451 198.512 217.38C196.887 221.309 196.056 225.522 196.068 229.775V310.05C196.068 313.529 197.448 316.866 199.903 319.327C202.358 321.788 205.688 323.172 209.161 323.175ZM268.533 156.016H268.566L282.54 156.042C285.523 156.052 288.38 157.245 290.488 159.36C292.595 161.474 293.781 164.338 293.786 167.326V310.056C293.781 313.047 292.592 315.914 290.481 318.029C288.369 320.144 285.507 321.334 282.52 321.34H209.152C206.166 321.334 203.304 320.143 201.193 318.028C199.082 315.913 197.893 313.046 197.888 310.056V229.782C197.877 225.771 198.661 221.797 200.193 218.091C201.726 214.385 203.977 211.02 206.817 208.192L252.113 162.83C256.477 158.481 262.377 156.033 268.533 156.016Z" fill="#18B1C1"/>
<path d="M130.816 299.844V322.259L535.849 322.229C535.849 322.229 536.471 313.505 537.01 299.844H130.816Z" fill="#424242"/>
<path d="M381.767 322.24H480.201C480.188 295.023 458.157 272.968 430.984 272.968C403.811 272.968 381.777 295.021 381.767 322.24Z" fill="#282828"/>
<path d="M206.689 236.88V244.268C206.689 244.917 206.816 245.561 207.064 246.161C207.312 246.761 207.675 247.307 208.134 247.767C208.592 248.226 209.137 248.591 209.736 248.839C210.335 249.088 210.977 249.216 211.626 249.216H279.828C280.477 249.217 281.119 249.089 281.719 248.84C282.318 248.592 282.863 248.227 283.322 247.768C283.78 247.308 284.144 246.762 284.392 246.162C284.64 245.561 284.767 244.918 284.767 244.268V174.356C284.767 173.066 284.264 171.828 283.366 170.904C282.468 169.98 281.244 169.445 279.957 169.411L266.928 169.069C263.489 168.98 260.067 169.594 256.872 170.872C253.677 172.15 250.775 174.065 248.343 176.502L231.882 192.989L224.208 200.676L219.859 205.032C211.43 213.479 206.695 224.932 206.693 236.875L206.689 236.88Z" fill="#ADDFEA"/>
<path d="M154.527 322.229H252.961C252.948 295.012 230.919 272.957 203.744 272.957C176.569 272.957 154.536 295.012 154.527 322.229Z" fill="#282828"/>
<path d="M430.984 358.409C411.05 358.409 394.89 342.223 394.89 322.257C394.89 302.29 411.05 286.104 430.984 286.104C450.919 286.104 467.079 302.29 467.079 322.257C467.079 342.223 450.919 358.409 430.984 358.409Z" fill="#121B21"/>
<path d="M430.984 340.702C420.813 340.702 412.568 332.444 412.568 322.257C412.568 312.069 420.813 303.811 430.984 303.811C441.155 303.811 449.4 312.069 449.4 322.257C449.4 332.444 441.155 340.702 430.984 340.702Z" fill="#405759"/>
<path d="M203.74 358.409C183.806 358.409 167.646 342.223 167.646 322.257C167.646 302.29 183.806 286.104 203.74 286.104C223.675 286.104 239.835 302.29 239.835 322.257C239.835 342.223 223.675 358.409 203.74 358.409Z" fill="#121B21"/>
<path d="M203.74 340.702C193.57 340.702 185.325 332.444 185.325 322.257C185.325 312.069 193.57 303.811 203.74 303.811C213.911 303.811 222.156 312.069 222.156 322.257C222.156 332.444 213.911 340.702 203.74 340.702Z" fill="#405759"/>
<path d="M535.951 300.123H496.015C494.429 300.123 492.908 300.754 491.786 301.877C490.664 303.001 490.034 304.525 490.034 306.114V324.931H535.951V300.123Z" fill="#282828"/>
<path d="M145.947 300.123H134.819C132.578 300.123 130.428 301.014 128.843 302.602C127.258 304.19 126.368 306.343 126.368 308.588V319.782C126.368 320.439 126.628 321.068 127.091 321.532C127.554 321.996 128.183 322.257 128.838 322.257H145.948C146.603 322.257 147.232 321.996 147.695 321.532C148.158 321.068 148.418 320.439 148.418 319.782V302.597C148.418 302.272 148.354 301.95 148.23 301.649C148.106 301.349 147.924 301.076 147.694 300.847C147.465 300.617 147.192 300.435 146.892 300.31C146.592 300.186 146.271 300.122 145.947 300.123Z" fill="#282828"/>
<path d="M135.569 278.127C136.082 278.999 136.702 279.802 137.417 280.517C138.512 281.62 139.813 282.495 141.247 283.092C142.68 283.689 144.217 283.997 145.77 283.998H159.398C159.875 283.996 160.332 283.805 160.669 283.468C161.005 283.13 161.195 282.672 161.197 282.195C161.19 279.054 159.941 276.043 157.724 273.822C155.506 271.601 152.501 270.35 149.365 270.344H138.525C137.427 272.893 136.442 275.487 135.569 278.127Z" fill="white"/>
<path d="M523.698 263.496C523.698 265.394 524.084 267.119 524.707 268.371C525.329 269.624 526.187 270.399 527.13 270.399H537.762C537.784 265.933 537.789 261.313 537.775 256.593H527.13C525.242 256.593 523.698 259.7 523.698 263.496Z" fill="white"/>
<path d="M522.198 287.743C522.198 290.113 522.745 292.283 523.609 293.849C524.474 295.415 525.677 296.389 526.997 296.389H537.35C537.456 291.171 537.549 285.349 537.616 279.097H526.997C524.357 279.097 522.198 282.986 522.198 287.743Z" fill="#EB5757"/>
<path d="M259.519 253.643H277.236C278.141 253.643 278.874 254.378 278.874 255.284V258.642C278.874 259.549 278.141 260.283 277.236 260.283H259.519C258.614 260.283 257.881 259.549 257.881 258.642V255.284C257.881 254.378 258.614 253.643 259.519 253.643Z" fill="#1B2630"/>
<path d="M192.324 245.993L192.404 234.98C192.407 234.779 192.35 234.582 192.24 234.413C192.131 234.245 191.973 234.113 191.788 234.034C191.603 233.956 191.399 233.935 191.202 233.973C191.005 234.012 190.824 234.109 190.682 234.251L178.085 246.866C177.911 247.041 177.793 247.263 177.745 247.506C177.698 247.748 177.724 247.999 177.819 248.226C177.915 248.454 178.075 248.648 178.281 248.784C178.487 248.919 178.729 248.991 178.976 248.988L191.117 248.851C191.438 248.847 191.745 248.716 191.971 248.488C192.196 248.259 192.323 247.95 192.324 247.628V245.993Z" fill="#DCF8FF"/>
<path d="M339.288 249.182H486.31C489.388 249.182 492.437 248.575 495.281 247.395C498.125 246.216 500.71 244.487 502.887 242.306C505.064 240.126 506.79 237.538 507.969 234.689C509.147 231.84 509.753 228.787 509.753 225.704V174.035C509.753 171.537 509.262 169.064 508.307 166.756C507.353 164.448 505.954 162.352 504.19 160.585C502.426 158.819 500.332 157.419 498.028 156.463C495.724 155.508 493.254 155.016 490.76 155.017H332.62C329.88 155.017 327.168 155.558 324.637 156.608C322.106 157.658 319.806 159.197 317.869 161.137C315.932 163.077 314.396 165.38 313.347 167.915C312.299 170.45 311.759 173.167 311.759 175.911V221.607C311.759 225.228 312.471 228.814 313.854 232.159C315.238 235.505 317.265 238.544 319.822 241.105C322.378 243.666 325.413 245.697 328.753 247.083C332.093 248.468 335.672 249.182 339.288 249.182Z" fill="#18B1C1"/>
<path d="M275.791 218.146V249.216H279.828C281.138 249.216 282.394 248.695 283.321 247.767C284.247 246.84 284.768 245.582 284.768 244.27V215.696H278.237C277.589 215.698 276.968 215.957 276.509 216.416C276.051 216.875 275.793 217.497 275.791 218.146Z" fill="#1B2630"/>
<path d="M206.744 229.462C206.486 228.838 206.101 228.275 205.615 227.807C205.128 227.34 204.55 226.979 203.918 226.746C203.285 226.514 202.611 226.415 201.938 226.457C201.265 226.498 200.608 226.679 200.009 226.987C194.462 229.866 184.435 236.213 184.435 244.49C184.435 255.924 206.653 258.165 209.099 251.637C210.863 246.875 209.303 235.617 206.744 229.462Z" fill="#1B2630"/>
<path d="M213.082 236.448L216.428 249.182H223.969L219.076 234.647C218.943 234.252 218.732 233.888 218.457 233.575C218.181 233.263 217.846 233.008 217.471 232.827C217.096 232.646 216.689 232.541 216.273 232.519C215.857 232.497 215.442 232.559 215.05 232.7C214.314 232.965 213.703 233.498 213.339 234.191C212.975 234.885 212.883 235.69 213.082 236.448Z" fill="#1B2630"/>
<path d="M124.727 176.785C124.95 177.067 125.234 177.295 125.558 177.452C125.881 177.609 126.236 177.69 126.595 177.69C126.954 177.69 127.309 177.609 127.633 177.452C127.956 177.295 128.24 177.067 128.463 176.785C132.378 171.804 141.001 159.78 139.872 151.586C138.429 141.031 129.191 139.585 126.584 139.585C123.978 139.585 112.293 141.465 112.726 152.598C113.072 161.123 121.021 172.106 124.727 176.785Z" fill="#EB5757"/>
<path d="M126.311 162.719C121.528 162.719 117.65 158.835 117.65 154.044C117.65 149.253 121.528 145.369 126.311 145.369C131.094 145.369 134.972 149.253 134.972 154.044C134.972 158.835 131.094 162.719 126.311 162.719Z" fill="white"/>
<path d="M368.681 100.672C368.86 100.897 369.087 101.08 369.345 101.205C369.603 101.33 369.887 101.395 370.174 101.395C370.461 101.395 370.745 101.33 371.003 101.205C371.262 101.08 371.488 100.897 371.667 100.672C374.794 96.6992 381.678 87.0871 380.79 80.5399C379.636 72.1038 372.253 70.9497 370.178 70.9497C368.103 70.9497 358.757 72.4521 359.103 81.3421C359.367 88.1555 365.72 96.9326 368.681 100.672Z" fill="#EB5757"/>
<path d="M369.947 89.43C366.124 89.43 363.026 86.3265 363.026 82.4981C363.026 78.6697 366.124 75.5662 369.947 75.5662C373.769 75.5662 376.867 78.6697 376.867 82.4981C376.867 86.3265 373.769 89.43 369.947 89.43Z" fill="white"/>
<path d="M254.089 271.152C254.089 271.152 252.646 221.217 260.5 215.437L262.95 274.399L254.089 271.152Z" fill="#FFC543"/>
<path d="M257.164 205.787C257.204 205.845 257.248 205.904 257.295 205.969C258.933 208.031 259.729 211.838 260.124 214.93C260.466 217.621 260.502 219.773 260.502 219.773C260.502 219.773 276.049 216.568 273.004 213.836C271.269 212.279 270.104 209.523 269.427 207.441C269.127 206.537 268.876 205.617 268.675 204.686C268.675 204.686 266.606 204.321 264.197 204.069C260.351 203.665 255.642 203.575 257.164 205.787Z" fill="#F9AE8F"/>
<path d="M257.164 205.787C257.204 205.845 257.248 205.904 257.295 205.969C258.933 208.031 259.729 211.838 260.124 214.93C263.4 213.512 267.275 209.721 269.427 207.441C269.127 206.536 268.876 205.617 268.675 204.686C268.675 204.686 266.606 204.321 264.197 204.069C261.891 204.414 259.359 205.098 257.164 205.787Z" fill="#F49271"/>
<path d="M257.258 237.734C257.322 241.533 257.522 245.45 257.788 249.22H279.828C280.238 249.22 280.647 249.169 281.044 249.069C280.76 247.322 280.467 245.55 280.17 243.781C279.524 239.952 278.854 236.136 278.183 232.587C277.806 230.581 277.427 228.667 277.056 226.88C276.766 225.491 276.481 224.182 276.202 222.973C276.202 222.947 276.189 222.922 276.184 222.896C276.033 222.245 275.884 221.62 275.736 221.036C274.678 216.797 273.723 214.216 273.006 214.513C270.772 215.425 268.93 216.094 267.41 216.551C259.255 219.014 260 215.55 260.3 215.457C257.615 219.259 257.098 228.123 257.258 237.734Z" fill="#D31313"/>
<path d="M246.714 201.555C246.812 202.467 248.004 203.4 248.068 203.758C248.068 203.758 248.237 204.097 248.237 205.451C248.237 206.571 248.565 209.242 250.846 210.828C252.595 212.044 255.76 210.912 256.661 210.633C262.353 208.863 264.547 206.826 264.547 206.826V193.797L249.515 185.979C249.107 187.146 249.251 189.02 248.912 192.747C248.73 194.023 248.743 194.441 248.574 196.813C248.448 198.587 246.612 200.62 246.714 201.555Z" fill="#F9AE8F"/>
<path d="M249.007 193.529C251.166 194.709 256.652 194.315 258.429 196.477C259.312 197.559 260.977 199.03 260.304 207.517C260.222 208.549 262.796 204.615 264.547 200.213V193.797L249.515 185.979C249.515 185.979 249.346 188.107 249.007 193.529Z" fill="#F49271"/>
<path d="M249.779 210.224C251.45 211.72 254.26 211.736 257.644 210.042C262.195 207.759 262.943 203.949 262.943 203.949C259.803 205.914 258.997 200.441 260.784 196.083C260.049 197.561 258.972 198.842 257.644 199.819C253.669 202.654 249.007 201.982 247.722 199.783C247.675 199.701 247.54 199.719 247.456 199.686C247.148 200.185 246.898 200.718 246.712 201.274C246.038 203.418 248.106 208.728 249.779 210.224Z" fill="#B3F4FF"/>
<path d="M264.869 245.874C265.062 246.939 265.27 247.999 265.492 249.054C265.501 249.105 265.512 249.154 265.523 249.205C265.523 249.205 265.523 249.205 265.523 249.216H279.826C280.475 249.217 281.118 249.089 281.717 248.84C282.317 248.592 282.861 248.227 283.32 247.768C283.779 247.308 284.142 246.762 284.39 246.162C284.638 245.561 284.765 244.918 284.765 244.268V226.613C278.716 218.681 273.002 213.831 273.002 213.831C270.661 214.141 268.815 215.092 267.407 216.547C264.814 219.209 263.635 223.554 263.373 228.71C263.105 233.905 263.777 239.923 264.869 245.874Z" fill="#FFD15F"/>
<path d="M265.523 249.205C265.523 249.205 265.523 249.205 265.523 249.216H278.61C279.235 247.435 279.755 245.619 280.168 243.778C281.914 236.049 281.677 228.991 281.415 225.7C281.359 224.885 281.127 224.091 280.737 223.373C280.346 222.655 279.806 222.03 279.153 221.54C277.946 220.652 276.808 220.535 275.734 221.033C275.291 221.248 274.883 221.53 274.526 221.87C271.096 225.049 268.415 234.461 266.484 244.067C266.154 245.708 265.847 247.358 265.559 248.99L265.523 249.205Z" fill="#FFC543"/>
<path d="M212.319 243.699C215.041 244.975 218.286 245.174 221.741 245.779C221.998 245.825 222.258 245.872 222.517 245.923C223.354 246.088 224.202 246.288 225.065 246.523C226.518 246.929 227.922 247.494 229.252 248.208C229.825 248.52 230.5 248.859 231.254 249.216H265.326L265.492 249.054L265.561 248.983C269.6 244.972 273.934 239.952 276.886 235.103C277.384 234.298 277.817 233.456 278.183 232.583C280.341 227.374 278.112 224.378 276.18 222.892L276.133 222.858C275.632 222.474 275.093 222.143 274.524 221.87C274.227 221.729 274.045 221.664 274.045 221.664C270.341 221.031 266.7 224.373 263.371 228.71C261.172 231.571 259.111 234.864 257.255 237.733C254.965 241.271 252.988 244.164 251.455 244.809C248.061 246.237 235.073 242.775 225.997 240.262C225.469 240.115 224.956 239.971 224.457 239.834C223.774 239.642 223.123 239.459 222.506 239.287L222.198 239.203C220.518 238.736 219.127 238.361 218.184 238.138C212.345 236.776 207.669 241.506 212.319 243.699Z" fill="#EB5757"/>
<path d="M261.631 249.216H265.326L265.492 249.054L265.561 248.983C269.6 244.972 273.934 239.952 276.886 235.102C277.384 234.298 277.817 233.455 278.183 232.583C280.341 227.374 278.112 224.378 276.18 222.892L276.133 222.858C276.155 222.892 276.177 222.929 276.198 222.969C276.615 223.713 277.121 225.009 277.052 226.876C276.957 229.461 275.762 233.139 271.713 237.945C269.846 240.162 268.111 242.217 266.482 244.067C265.932 244.692 265.393 245.294 264.865 245.874C263.742 247.103 262.666 248.228 261.631 249.216Z" fill="#E21E1E"/>
<path d="M221.734 245.78C222.851 245.97 223.957 246.218 225.049 246.523C226.502 246.929 227.906 247.494 229.235 248.208C229.809 248.52 230.484 248.859 231.238 249.216H234.904C230.975 247.561 227.564 245.459 226.101 242.789C225.445 241.59 224.905 240.62 224.462 239.834C223.665 239.612 222.91 239.398 222.204 239.207L221.734 245.78Z" fill="#E21E1E"/>
<path d="M250.942 197.744C250.942 198.259 251.208 198.676 251.534 198.676C251.859 198.676 252.127 198.259 252.127 197.744C252.127 197.23 251.861 196.813 251.534 196.813C251.206 196.813 250.942 197.23 250.942 197.744Z" fill="#0E1B23"/>
<path d="M253.571 197.225C253.541 197.172 253.509 197.121 253.474 197.072L253.423 196.999L253.392 196.959C253.341 196.888 253.461 197.044 253.418 196.99C253.374 196.935 253.305 196.851 253.236 196.786C253.166 196.72 253.09 196.632 253.012 196.559L252.873 196.437L252.806 196.381C252.722 196.313 252.861 196.421 252.795 196.381C252.568 196.215 252.324 196.073 252.067 195.958C252.156 195.998 252.067 195.958 252.027 195.945L251.883 195.894C251.796 195.865 251.701 195.839 251.617 195.817C251.534 195.796 251.435 195.775 251.333 195.761L251.27 195.75C251.317 195.75 251.315 195.75 251.27 195.75L251.088 195.734C250.965 195.726 250.85 195.672 250.766 195.582C250.682 195.493 250.635 195.374 250.635 195.251C250.635 195.128 250.682 195.01 250.766 194.92C250.85 194.831 250.965 194.777 251.088 194.769C251.713 194.81 252.321 194.989 252.869 195.293C253.416 195.598 253.89 196.02 254.255 196.53C254.305 196.598 254.352 196.67 254.393 196.744C254.429 196.798 254.454 196.86 254.465 196.925C254.476 196.989 254.475 197.055 254.46 197.119C254.445 197.183 254.417 197.243 254.378 197.296C254.339 197.349 254.29 197.393 254.233 197.426C254.177 197.459 254.114 197.48 254.049 197.488C253.984 197.496 253.918 197.491 253.855 197.473C253.793 197.454 253.734 197.424 253.684 197.382C253.633 197.34 253.591 197.289 253.561 197.23L253.571 197.225Z" fill="#111F28"/>
<path d="M254.502 193.724C254.502 193.724 250.585 194.127 248.912 192.747C247.24 191.367 245.474 188.023 246.652 186.058C247.829 184.092 249.595 185.861 251.566 186.058C253.538 186.255 254.903 185.664 256.663 184.681C258.423 183.699 264.907 182.129 266.478 185.469C268.049 188.809 269.225 189.597 271.393 191.17C272.749 192.156 274.729 196.478 271.981 200.605C269.232 204.733 269.432 208.002 269.432 208.002C269.432 208.002 261.787 209.528 260.986 200.016C260.528 194.621 254.502 193.724 254.502 193.724Z" fill="#1B2630"/>
<path d="M260.193 198.837C260.193 198.837 260.783 196.477 262.352 197.657C263.921 198.837 263.773 203.468 262.375 204.403C260.977 205.338 260.193 198.837 260.193 198.837Z" fill="#F49271"/>
<path d="M212.319 243.699C215.041 244.975 218.286 245.174 221.741 245.779C221.998 245.825 222.258 245.872 222.517 245.923V239.29L222.209 239.207C220.529 238.74 219.138 238.364 218.195 238.142C212.345 236.776 207.669 241.506 212.319 243.699Z" fill="#F9AE8F"/>
<g opacity="0.28">
<path opacity="0.28" d="M206.689 236.88V244.268C206.689 244.917 206.816 245.561 207.064 246.161C207.312 246.761 207.675 247.307 208.134 247.767C208.592 248.226 209.137 248.591 209.736 248.839C210.335 249.088 210.977 249.216 211.626 249.216H279.828C280.477 249.217 281.119 249.089 281.719 248.84C282.318 248.592 282.863 248.227 283.322 247.768C283.78 247.308 284.144 246.762 284.392 246.162C284.64 245.561 284.767 244.918 284.767 244.268V174.356C284.767 173.066 284.264 171.828 283.366 170.904C282.468 169.98 281.244 169.445 279.957 169.411L266.928 169.069C263.489 168.98 260.067 169.594 256.872 170.872C253.677 172.15 250.775 174.065 248.343 176.502L231.882 192.989L224.208 200.676L219.859 205.032C211.43 213.479 206.695 224.932 206.693 236.875L206.689 236.88Z" fill="white"/>
</g>
<g opacity="0.25">
<path opacity="0.25" d="M215.405 210.232L245.672 249.216H262.377L224.202 200.684L215.405 210.232Z" fill="#BEE6EE"/>
</g>
</svg>
