<svg width="123" height="58" viewBox="0 0 123 58" fill="none" xmlns="http://www.w3.org/2000/svg">
<path fill-rule="evenodd" clip-rule="evenodd" d="M73.4885 6.7528C73.771 6.99575 74.7031 7.61369 75.4212 8.28709C76.0943 8.95908 76.6928 9.70194 77.2061 10.5027C77.7711 11.2949 78.3995 12.1902 78.9012 12.7923C79.4029 13.3944 79.7857 13.7165 79.8755 14.176C79.9653 14.6355 79.7699 15.2323 79.6114 15.6073C79.453 15.9823 79.3474 16.1513 79.4398 16.2226C79.5322 16.2939 79.8517 16.2675 80.0128 16.3626C80.1738 16.4577 80.1818 16.6716 80.0128 16.97C79.7718 17.3308 79.4968 17.6677 79.1916 17.9761C78.8853 18.3062 78.6213 18.5861 78.4576 18.7842C78.2939 18.9823 78.2253 19.0984 78.4154 19.1856C78.6055 19.2727 79.0517 19.3282 79.2788 19.4497C79.5058 19.5711 79.5137 19.7137 79.4398 19.9567C79.2901 20.3698 79.045 20.7417 78.7243 21.0421C78.2411 21.5544 77.4332 22.2463 76.9711 22.6503C76.5091 23.0543 76.3929 23.1784 76.9341 22.9144C77.7892 22.4993 78.6149 22.0264 79.4055 21.4989C79.9168 21.1553 80.3474 20.7048 80.6676 20.1785C80.9316 19.785 81.164 19.4048 81.1217 19.6504C81.0795 19.896 80.76 20.7727 80.496 21.5121C80.2319 22.2515 80.0233 22.8536 79.8808 23.3184C79.7382 23.7832 79.6537 24.1106 79.6933 24.2136C79.7329 24.3166 79.9019 24.1819 80.3138 23.6327C80.8148 22.9092 81.3561 22.2145 81.9349 21.5517C82.4841 20.9866 82.9198 20.8229 83.4742 20.9338C84.0287 21.0447 84.6941 21.4329 85.2486 21.7023C85.803 21.9716 86.2387 22.1169 86.2862 22.0429C86.3337 21.969 85.9984 21.6732 85.8136 21.2929C85.6252 20.9012 85.5949 20.452 85.7291 20.0386C85.8862 19.6234 86.1616 19.2635 86.5212 19.0034C86.8592 18.7393 87.2288 18.5861 87.4031 18.3353C87.5416 18.0652 87.5862 17.7567 87.5298 17.4585C87.4898 17.2083 87.5144 16.9519 87.6011 16.7138C87.7324 16.3977 87.9479 16.1236 88.2242 15.9216C88.5094 15.7288 88.8473 15.6575 89.4414 15.9929C90.0355 16.3283 90.8857 17.0492 91.8996 17.7411C92.9134 18.433 94.0937 19.0958 94.9571 19.5659C95.8204 20.0359 96.3644 20.3158 96.6205 20.5509C96.8766 20.7859 96.8423 20.976 96.404 21.0632C95.9657 21.1503 95.126 21.1345 94.3498 21.4751C93.5735 21.8158 92.8659 22.5315 92.0316 23.3527C91.1972 24.174 90.2414 25.1538 89.2487 26.0358C88.3443 26.8559 87.3728 27.5988 86.3443 28.2567C85.692 28.6534 84.9977 28.9767 84.2743 29.2206C83.8201 29.379 83.6459 29.4186 83.9442 29.4265C84.5949 29.4268 85.2425 29.3379 85.869 29.1625C86.7 28.9155 87.5034 28.5837 88.2665 28.1722C88.8447 27.8632 89.0427 27.6889 89.1483 27.718C89.2539 27.747 89.2724 27.982 89.1483 28.2223C88.9284 28.5671 88.6275 28.8527 88.2717 29.0542C87.6294 29.497 86.9221 29.8373 86.1753 30.063C85.311 30.2887 84.4267 30.4293 83.535 30.4828C83.1041 30.4872 82.6745 30.5314 82.2518 30.6149C82.1521 30.637 82.0626 30.6914 81.9971 30.7698C81.9317 30.8481 81.894 30.946 81.89 31.048C81.8941 31.153 81.919 31.2561 81.9633 31.3514C82.0076 31.4467 82.0703 31.5322 82.148 31.603C82.2256 31.6738 82.3166 31.7284 82.4156 31.7637C82.5145 31.799 82.6195 31.8142 82.7244 31.8085C82.867 31.79 82.9251 31.7082 83.036 31.7874C83.1469 31.8666 83.3132 32.1043 83.4082 32.1861C83.5033 32.268 83.5271 32.1861 83.5931 32.0171C83.6482 31.8223 83.7455 31.642 83.8782 31.489C83.9891 31.415 84.1053 31.5471 84.2162 31.592C84.3271 31.6369 84.4353 31.592 84.6334 31.5128C84.845 31.3936 85.0899 31.3472 85.3304 31.3807C85.3633 31.3932 85.3944 31.4101 85.4228 31.4309C85.8166 31.2552 86.2432 31.1652 86.6743 31.1668H87.5932C87.6909 31.1668 87.7859 31.1668 87.881 31.18C88.1292 30.8024 88.38 30.438 88.6546 30.0735C89.1662 29.4036 89.7247 28.7708 90.3259 28.1801C90.8974 27.6743 91.4355 27.1317 91.9365 26.556C92.3654 25.9544 92.7501 25.3225 93.0877 24.6652C93.3614 24.1701 93.6702 23.6953 94.0118 23.2445C94.2759 22.888 94.5267 22.6397 94.7089 22.6107C94.8911 22.5816 95.0125 22.7718 95.4165 22.7797C95.9201 22.7525 96.4164 22.6465 96.8871 22.4654C97.2647 22.3176 97.3386 22.2014 97.5208 22.4047C97.8148 22.8183 98.0461 23.273 98.2073 23.7541C98.4521 24.4158 98.5625 25.1197 98.5321 25.8245C98.503 26.659 98.305 27.6731 98.2443 28.5815C98.189 29.3191 98.2262 30.0608 98.3552 30.7892C98.3816 30.9318 98.4106 31.0533 98.4397 31.1668H99.4958C99.5844 31.0347 99.691 30.9155 99.8126 30.8129C100.011 30.6677 100.209 30.7258 100.214 31.0533C100.214 31.0876 100.214 31.1272 100.214 31.1668H104.161H104.354H104.549H106.997C107.959 31.138 108.909 31.3854 109.735 31.8798C110.509 32.3746 111.103 33.1063 111.427 33.966L112.098 32.7407C112.458 32.0615 113.067 31.549 113.798 31.3121L113.482 31.2223C113.001 31.0866 112.531 30.9172 112.074 30.7152C111.715 30.5436 111.559 30.4036 111.515 30.1528C111.47 29.9019 111.536 29.5374 111.398 29.3183C111.261 29.0991 110.923 29.0251 110.062 28.7452C108.948 28.3971 107.861 27.9681 106.81 27.4618C105.969 27.0232 105.202 26.4566 104.536 25.7823C103.887 25.1643 103.2 24.4619 102.556 23.7489C101.933 22.9872 101.254 22.2739 100.523 21.6151C99.7361 20.9936 98.8989 20.4389 98.0198 19.9567L96.0396 18.8185C95.3135 18.396 94.3709 17.8441 93.3649 17.2948C92.359 16.7455 91.287 16.2015 90.5847 15.8397C89.8823 15.4779 89.5523 15.2931 89.0638 15.2376C88.5201 15.2099 87.9752 15.2152 87.4321 15.2535C86.9742 15.2777 86.5182 15.1783 86.1119 14.9656C85.3645 14.5647 84.6392 14.1239 83.9389 13.6452C82.9779 13.0167 81.7554 12.2087 80.7574 11.5485C79.7593 10.8883 78.983 10.376 78.1302 9.75009C77.2774 9.12422 76.3189 8.39008 75.6113 7.86193C75.1032 7.48043 74.5635 7.14295 73.9981 6.85315C73.573 6.64189 73.206 6.50721 73.4885 6.74752V6.7528ZM102.897 42.4271L103.134 42.229V38.1358H102.897V42.4271ZM120.199 44.2307C120.494 44.2545 120.78 44.2756 121.054 44.2915C122.179 44.3628 123.153 44.3707 122.979 43.7422C122.805 43.1137 121.521 41.8937 120.199 40.5918V44.2307Z" fill="#19C8DB"/>
<path d="M13.6903 46.7898C14.7408 46.8115 15.7868 46.646 16.7794 46.3013C17.2071 46.1454 17.5977 45.9025 17.9267 45.588C18.2558 45.2734 18.516 44.8941 18.691 44.4739L18.926 43.9695L12.0348 29.873C11.6216 28.8916 11.0104 28.0061 10.2393 27.2718C9.58745 26.6587 8.75291 26.2756 7.86304 26.1812V25.5104H11.2295C12.3987 25.4924 13.5437 25.8445 14.5008 26.5166C15.4604 27.1988 16.2191 28.1264 16.6976 29.2022L21.3287 38.6668L27.2695 25.5104H29.4504L20.8588 44.4739C20.4352 45.5354 19.6985 46.4428 18.7465 47.075C17.7333 47.7134 16.5533 48.036 15.3563 48.0019H13.6903V46.7951V46.7898ZM31.6023 36.8473C31.6356 36.3176 31.5376 35.7878 31.3171 35.3051C31.127 34.9723 30.7442 34.806 30.1738 34.806H29.9705V34.1933H35.5812C36.8959 34.1754 38.1972 34.4581 39.386 35.0199C40.5213 35.5727 41.089 36.6642 41.089 38.2944C41.089 39.3508 40.7933 40.1738 40.2018 40.7636C39.6558 41.3234 38.969 41.7257 38.2137 41.9282C37.555 42.1076 36.8764 42.2034 36.1938 42.2134H34.2558V47.6613H31.5891V36.8341L31.6023 36.8473ZM35.4651 41.4C36.1962 41.4265 36.9081 41.1625 37.4453 40.6659C37.9593 40.1747 38.2172 39.3516 38.2189 38.1967C38.2207 37.0418 37.9655 36.2249 37.4532 35.7461C37.2032 35.5041 36.9075 35.3144 36.5834 35.1879C36.2593 35.0614 35.9132 35.0007 35.5654 35.0093C35.257 35.0017 34.9488 35.0291 34.6466 35.0912L34.24 35.1519V41.4H35.4651ZM44.3181 47.1305C44.9565 47.1444 45.5922 47.0442 46.1954 46.8347C46.4548 46.7388 46.6918 46.5907 46.8916 46.3994C47.0915 46.2082 47.2499 45.9779 47.3571 45.723L47.4997 45.4166L43.3174 36.8473C43.0678 36.2492 42.6965 35.7096 42.227 35.2628C41.8328 34.8903 41.3273 34.6574 40.788 34.6V34.1907H42.829C43.54 34.1781 44.2368 34.3907 44.8198 34.798C45.403 35.2128 45.8643 35.7764 46.1558 36.43L48.9704 42.1922L52.5823 34.1933H53.9025L48.6799 45.723C48.4236 46.3703 47.9748 46.9233 47.3941 47.3074C46.7783 47.6943 46.0615 47.8891 45.3346 47.8673H44.3181V47.1305ZM61.0869 48.0706C59.8199 48.1044 58.5679 47.7902 57.467 47.1622C56.4717 46.5769 55.6674 45.7155 55.1514 44.6825C54.6073 43.5805 54.3331 42.3648 54.3514 41.1359C54.3359 39.8415 54.6378 38.5631 55.2306 37.4124C55.7824 36.3299 56.6173 35.4173 57.6465 34.7716C58.6738 34.1255 59.8655 33.789 61.0789 33.8025C62.0982 33.774 63.1143 33.9296 64.0784 34.262C64.7801 34.5003 65.411 34.9107 65.9134 35.4556C66.1694 35.7929 66.3249 36.1957 66.3622 36.6175C66.4256 37.2616 66.453 37.9087 66.4441 38.5559H65.8342C65.5754 37.3041 65.0993 36.3517 64.4058 35.6986C63.6646 35.0284 62.6897 34.6765 61.6915 34.7188C60.3062 34.7188 59.2113 35.2091 58.4069 36.1897C57.6025 37.1703 57.2047 38.8191 57.2135 41.1359C57.2135 42.8665 57.5805 44.3022 58.3145 45.443C59.0485 46.5838 60.1777 47.1551 61.7021 47.1569C62.6307 47.1644 63.5415 46.902 64.3239 46.4016C65.1479 45.8657 65.8134 45.1189 66.2514 44.2388L66.9669 44.7908C66.4164 45.8239 65.5949 46.6876 64.5906 47.2889C63.6665 47.8171 62.4968 48.0812 61.0816 48.0812L61.0869 48.0706ZM69.4013 36.8473C69.4346 36.3176 69.3366 35.7878 69.1161 35.3051C68.926 34.9723 68.5449 34.806 67.9729 34.806H67.7695V34.1933H73.2773C74.9917 34.1933 76.4237 34.4319 77.5731 34.909C78.7225 35.3861 79.2972 36.3385 79.2972 37.7663C79.2821 38.4275 79.0159 39.0582 78.5527 39.5303C77.9884 40.1213 77.26 40.5297 76.4615 40.7028C78.7586 40.9352 79.9072 42.01 79.9072 43.9272C79.9072 45.3356 79.343 46.3118 78.2147 46.8558C77.0864 47.3998 75.6448 47.6683 73.8898 47.6613H69.4013V36.8341V36.8473ZM73.5836 40.2962C74.4637 40.2962 75.1607 40.0884 75.6747 39.6729C76.1887 39.2574 76.4439 38.5876 76.4404 37.6633C76.4404 36.7232 76.1376 36.0463 75.5321 35.6325C74.8621 35.1987 74.075 34.9812 73.2773 35.0093C72.9899 35.0019 72.7026 35.0294 72.4218 35.0912L72.0548 35.1519V40.2962H73.5836ZM73.5836 46.8453C74.7136 46.8453 75.5717 46.5997 76.1658 46.1111C76.4632 45.8575 76.6984 45.5389 76.8531 45.1799C77.0079 44.8209 77.078 44.4312 77.0582 44.0408C77.0582 42.1623 75.9018 41.2231 73.5888 41.2231H72.0416V46.6525C72.1728 46.7015 72.3093 46.7352 72.4482 46.7529C72.783 46.8253 73.1249 46.8598 73.4674 46.8558L73.5836 46.8453ZM93.291 47.7432C92.4831 47.7548 91.6846 47.569 90.9649 47.2018C90.2731 46.8497 89.709 46.1455 89.2724 45.0892L88.8024 43.9483H83.3686L81.6947 47.6613H80.6385L86.6558 34.1933H87.5747L92.1425 45.0971C92.6564 46.3647 93.3605 47.0451 94.2547 47.1384V47.6481C93.9342 47.7253 93.6048 47.76 93.2752 47.7511L93.291 47.7432ZM83.8043 43.0294H88.4117L86.1647 37.7029L83.7884 43.0294H83.8043ZM97.2304 35.107H95.7808C95.0204 35.107 94.4369 35.2972 94.0356 35.6774C93.6342 36.0577 93.4336 36.6862 93.4336 37.555H92.8237V35.82C92.8237 34.732 93.401 34.188 94.5557 34.188H104.145V35.107H99.8734V47.656H97.233V35.1123L97.2304 35.107ZM106.165 36.842C106.199 36.3123 106.101 35.7826 105.88 35.2998C105.69 34.9671 105.307 34.8007 104.737 34.8007H104.518V34.188H106.965C107.355 34.1646 107.743 34.2496 108.087 34.4336C108.365 34.6247 108.561 34.9116 108.639 35.2391C108.765 35.7637 108.82 36.3028 108.803 36.842V45.0047L114.717 34.1775H117.168V47.6454H114.522V36.8182L108.605 47.6454H106.157V36.8182L106.165 36.842Z" fill="#19C8DB"/>
<path fill-rule="evenodd" clip-rule="evenodd" d="M62.5021 1.90974C63.1492 1.90274 63.7948 1.97547 64.4242 2.12629C65.158 2.266 65.8689 2.50685 66.5365 2.84194C67.1807 3.18788 67.7088 3.66586 68.5247 4.13592C69.3405 4.60598 70.4468 5.06812 70.6712 5.07868C70.8957 5.08924 70.2329 4.64031 69.3748 3.97219C68.5167 3.30408 67.4606 2.41149 66.4705 1.7513C65.4804 1.0911 64.5562 0.663296 63.7298 0.613121C62.9739 0.608265 62.2315 0.814005 61.5859 1.2073C60.9918 1.52155 60.5297 1.81732 60.4637 1.98369C60.3977 2.15006 60.7278 2.18174 61.1159 2.12629C61.5733 2.02711 62.0362 1.9548 62.5021 1.90974Z" fill="#19C8DB"/>
<path fill-rule="evenodd" clip-rule="evenodd" d="M53.1553 30.7286C53.1685 30.8739 52.1678 30.9425 51.4417 31.4469C50.7578 31.9657 50.3061 32.7334 50.1849 33.5833C50.1004 34.2752 50.3803 34.7189 50.3803 35.4055C50.3803 36.0921 50.1004 37.0137 49.8522 37.7822C49.604 38.5506 49.3902 39.1342 49.0918 39.1184C48.7935 39.1026 48.4106 38.4767 48.0542 37.7426C47.6977 37.0084 47.3624 36.1581 47.0429 35.6299C46.7234 35.1018 46.4145 34.8641 46.6469 34.468C46.8792 34.0719 47.6581 33.512 48.334 32.8175C49.01 32.123 49.5882 31.2991 49.6304 30.623C49.6727 29.947 49.1763 29.4188 48.5743 28.9408C47.9723 28.4629 47.2357 28.0324 46.8317 27.594C46.4277 27.1557 46.3459 26.712 46.4937 26.6618C46.6416 26.6117 47.0218 26.9603 47.3571 27.2296C47.7324 27.5282 48.1408 27.7825 48.5743 27.9875C49.1578 28.2859 50.0371 28.6873 50.5044 29.0676C50.9717 29.4479 51.0325 29.8044 51.5605 30.0922C52.0886 30.3801 53.1447 30.5966 53.1447 30.7418L53.1553 30.7286Z" fill="#19C8DB"/>
<path fill-rule="evenodd" clip-rule="evenodd" d="M104.964 31.1935C105.616 31.4734 106.902 31.7718 107.784 32.2762C108.561 32.7066 109.138 33.4242 109.392 34.2752C109.603 35.0741 109.692 35.9004 109.656 36.7259C109.656 37.534 109.64 38.2945 109.944 38.2285C110.247 38.1625 110.878 37.2699 111.33 36.5358C111.781 35.8016 112.066 35.2154 112.684 34.6714C113.302 34.1274 114.268 33.5886 114.839 33.2031C115.409 32.8175 115.612 32.5667 115.472 32.2551C115.227 31.8713 114.875 31.5682 114.459 31.3836C114.068 31.2014 113.761 31.2119 113.062 31.0456C112.362 30.8792 111.264 30.5359 110.007 30.3458C108.795 30.1787 107.57 30.1151 106.347 30.1556C105.365 30.19 104.821 30.2877 104.557 30.4699C104.293 30.6521 104.312 30.9135 104.964 31.1935Z" fill="#19C8DB"/>
<path fill-rule="evenodd" clip-rule="evenodd" d="M20.2462 7.03027C20.2455 8.27932 19.7494 9.47709 18.8669 10.3608C17.9843 11.2445 16.7873 11.742 15.5385 11.7441C16.7887 11.7441 17.9877 12.2406 18.872 13.1245C19.7563 14.0085 20.2534 15.2074 20.2541 16.4579C20.2541 15.2091 20.7495 14.0113 21.6317 13.1275C22.5138 12.2437 23.7106 11.7462 24.9592 11.7441C23.7092 11.7441 22.5104 11.2474 21.6266 10.3634C20.7427 9.47942 20.2462 8.28045 20.2462 7.03027Z" fill="#19C8DB"/>
<path fill-rule="evenodd" clip-rule="evenodd" d="M101.946 37.8164H103.982V43.6156H101.946V37.8164Z" fill="#19C8DB"/>
<path fill-rule="evenodd" clip-rule="evenodd" d="M88.6387 29.3949C88.4961 29.5428 87.3977 30.4512 86.7905 31.3808C86.1832 32.3103 86.0565 33.2452 85.6921 34.2222C85.297 35.1958 84.8071 36.1281 84.2293 37.0056C83.842 37.6376 83.4226 38.2493 82.9725 38.8383C82.6082 39.3005 82.2781 39.649 82.162 39.2688C82.0458 38.8885 82.1408 37.7794 81.795 37.0954C81.4491 36.4114 80.6596 36.1474 80.7837 35.9995C80.9078 35.8516 81.9481 35.8199 82.7719 35.4132C83.5957 35.0066 84.2003 34.2354 84.6465 33.6096C84.9965 33.1746 85.2721 32.6847 85.4624 32.1598C85.5469 31.8138 85.4281 31.5973 85.6762 31.3412C85.9244 31.085 86.5344 30.7866 87.2604 30.3271C87.9865 29.8676 88.7918 29.2497 88.6519 29.3949H88.6387Z" fill="#19C8DB"/>
<path fill-rule="evenodd" clip-rule="evenodd" d="M119.948 44.1384C119.42 44.0249 118.628 43.8163 118.253 42.8392C117.878 41.8621 117.928 40.1192 117.967 39.1711C118.007 38.2231 118.047 38.0673 118.419 38.437C118.791 38.8067 119.494 39.6993 120.09 40.3912C120.687 41.083 121.181 41.5663 121.389 41.9968C121.471 42.1801 121.516 42.3778 121.522 42.5785C121.527 42.7793 121.493 42.9791 121.421 43.1666C121.358 43.5093 121.205 43.8291 120.977 44.0935C120.769 44.2731 120.484 44.252 119.948 44.1384Z" fill="#19C8DB"/>
<path fill-rule="evenodd" clip-rule="evenodd" d="M86.3337 32.1151C86.3337 32.189 86.5264 31.777 86.9832 32.0754C87.44 32.3739 88.1608 33.3958 88.6492 34.3175C89.0584 35.1383 89.3916 35.9948 89.6447 36.8764C89.8955 37.6686 90.1437 38.3658 90.6559 38.9362C91.1681 39.5066 91.947 39.9318 92.1292 39.5805C92.3114 39.2293 91.8916 38.1043 91.4031 37.2778C90.9147 36.4512 90.347 35.9178 90.3707 35.4134C90.3945 34.909 90.9701 34.431 91.4638 34.1537C91.9415 33.9269 92.4337 33.7319 92.9372 33.5701C93.5101 33.3351 94.2573 32.9416 93.9669 32.4584C93.6764 31.9751 92.3827 31.402 91.5378 31.3492C90.6929 31.2964 90.3364 31.7718 89.8876 31.9804C89.6902 32.0781 89.4712 32.1237 89.2513 32.1131C89.0314 32.1025 88.8178 32.0359 88.6308 31.9196C88.3509 31.7057 88.3192 31.3307 88.4882 30.8396C88.7149 30.2907 88.9851 29.7609 89.2961 29.2551C89.5602 28.7586 89.745 28.3757 89.5602 28.4629C89.3753 28.55 88.8182 29.1019 88.2796 29.5905C87.7609 30.0108 87.2859 30.4824 86.8617 30.998C86.6129 31.3353 86.4334 31.7185 86.3337 32.1256V32.1151Z" fill="#19C8DB"/>
<path fill-rule="evenodd" clip-rule="evenodd" d="M16.5946 23.5377C15.9899 23.8203 15.1503 23.984 15.4223 24.8317C15.6942 25.6794 17.0804 27.2084 18.0494 28.5103C18.7908 29.4755 19.4024 30.5338 19.8686 31.6581C20.1617 32.4081 20.196 32.8227 20.4759 33.1607C20.5481 33.2665 20.6429 33.3551 20.7533 33.4201C20.8637 33.4851 20.9871 33.5249 21.1147 33.5368C21.2423 33.5487 21.3709 33.5322 21.4914 33.4887C21.6119 33.4451 21.7213 33.3755 21.8119 33.2848C22.3399 32.8042 22.868 31.5842 23.3459 30.6599C23.8238 29.7356 24.2542 29.1071 24.3783 28.4073C24.4889 27.7003 24.3428 26.9771 23.9664 26.3686C23.6099 25.8061 23.0819 25.4602 22.7386 24.9426C22.4169 24.4075 22.2352 23.7999 22.2106 23.1759C22.1756 22.7366 22.2295 22.2947 22.369 21.8767C22.4529 21.7118 22.4934 21.5282 22.4864 21.3433C22.4795 21.1585 22.4254 20.9784 22.3294 20.8203C22.0653 20.2526 21.4369 19.2992 20.9221 19.0167C20.4072 18.7341 20.0164 19.1223 19.5359 19.8089C19.0554 20.4955 18.493 21.4805 18.0283 22.1698C17.5636 22.859 17.2018 23.2551 16.5998 23.5351L16.5946 23.5377Z" fill="#19C8DB"/>
<path fill-rule="evenodd" clip-rule="evenodd" d="M11.372 32.6009C10.6882 33.2611 9.434 34.9432 8.02406 36.7178C6.61412 38.4924 5.04313 40.3568 3.96323 41.4369C3.29906 42.1456 2.51408 42.7304 1.64502 43.164C1.00078 43.5099 0.30901 43.906 0.324852 44.1041C0.340694 44.3022 1.09319 44.3022 1.8008 44.3022H4.25367C5.3098 44.3022 6.7699 44.3022 7.13163 44.0381C7.49335 43.774 6.7699 43.2194 6.44778 42.5936C6.12566 41.9677 6.20751 41.2573 6.73558 40.481C7.37479 39.6514 8.15072 38.937 9.03003 38.3683C9.82213 37.8402 10.432 37.6078 10.8492 37.893C11.2664 38.1782 11.4908 38.9757 11.5067 39.7415C11.5225 40.5074 11.3324 41.2468 11.7284 41.4501C12.1245 41.6535 13.1067 41.3286 13.3549 40.6579C13.6031 39.9871 13.1173 39.0021 12.7344 38.2152C12.4514 37.5934 12.1295 36.9902 11.7707 36.4089C11.4723 35.9626 11.1581 35.651 11.1185 35.2047C11.0789 34.7584 11.306 34.1827 11.5463 33.7364C11.7865 33.2901 12.0321 32.9759 12.0981 32.6378C12.1641 32.2998 12.0506 31.938 11.3641 32.5982L11.372 32.6009Z" fill="#19C8DB"/>
<path fill-rule="evenodd" clip-rule="evenodd" d="M19.763 28.6054C20.0745 27.6019 20.3782 26.3634 20.6422 25.7217C20.9881 24.8793 21.268 25.0615 21.4739 25.3995C21.6798 25.7376 21.8145 26.2314 21.8699 26.1178C21.9254 26.0043 21.9122 25.2754 21.9544 24.367C21.9967 23.4586 22.0944 22.3706 22.3241 21.7526C22.5538 21.1347 22.9182 20.9842 23.2904 21.1743C23.6627 21.3644 24.0403 21.8926 24.5868 22.3785C24.8665 22.6235 25.161 22.851 25.4687 23.0598C25.9884 22.6814 26.6161 22.4804 27.2589 22.4868H29.4398C29.9455 22.4866 30.4431 22.6134 30.8872 22.8554C31.3312 23.0975 31.7075 23.4471 31.9815 23.8722C32.2555 24.2973 32.4185 24.7844 32.4555 25.2888C32.4926 25.7932 32.4026 26.2989 32.1936 26.7595L31.3804 28.5843C32.0537 28.8484 32.6715 28.8484 33.0676 29.0702C33.5138 29.3185 33.6775 29.8308 33.7013 30.417C33.7094 30.6682 33.7006 30.9196 33.6749 31.1696H35.5733C36.7731 31.163 37.9673 31.3348 39.1166 31.6793C39.5697 31.3748 40.0975 31.2004 40.6427 31.1749C40.4718 30.9384 40.2651 30.73 40.0302 30.557C39.6843 30.2929 39.2381 30.0447 38.9159 29.7647C38.648 29.5171 38.408 29.2408 38.2004 28.9408C38.0145 28.7011 37.8125 28.4744 37.5958 28.2621C37.3898 28.0562 37.176 27.8581 37.0202 27.7023C36.8644 27.5465 36.7561 27.4382 36.8301 27.2639C36.9584 27.0573 37.1108 26.8667 37.2842 26.6962C37.4035 26.5143 37.5445 26.3476 37.704 26.1997C37.8862 26.0597 38.1661 25.9356 38.3483 26.1337C38.5304 26.3317 38.6123 26.8176 38.7945 27.1319C38.9641 27.373 39.1827 27.5754 39.4361 27.7261C39.5173 27.7883 39.5833 27.8681 39.6291 27.9597C39.6748 28.0512 39.6991 28.1519 39.7001 28.2542C39.7001 28.4787 39.6447 28.7586 39.7925 28.8669C39.9144 28.9153 40.0492 28.9211 40.1748 28.8832C40.3004 28.8454 40.4095 28.7661 40.4843 28.6583C40.6665 28.4127 40.6665 27.9822 40.4262 27.3379C40.1298 26.5344 39.6695 25.8014 39.0744 25.1856C38.438 24.5571 37.6459 24.1769 36.9621 23.8071C36.2782 23.4374 35.6736 23.073 35.0399 22.7244C34.4062 22.3758 33.7198 22.0484 33.3396 21.6681C32.9593 21.2878 32.8537 20.86 32.3732 20.5563C31.8926 20.2527 31.0372 20.0678 30.5672 19.8539C30.0972 19.64 30.0154 19.3918 29.9969 19.1356C29.9784 18.8795 30.0312 18.6075 30.1949 18.5256C30.3586 18.4437 30.6411 18.5256 30.723 18.3671C30.8048 18.2087 30.6913 17.839 30.6094 17.5274C30.5276 17.2158 30.4774 16.9649 30.7494 17.0573C31.2121 17.2876 31.6419 17.579 32.0273 17.9235C32.4392 18.2694 32.6715 18.5335 32.4973 18.2351C32.1403 17.6567 31.7488 17.1002 31.325 16.5688C31.0971 16.2431 30.7911 15.9798 30.4352 15.8029C30.2292 15.7105 30.0814 15.6947 30.0893 15.5706C30.0972 15.4464 30.2609 15.2167 30.5989 14.9262C30.9368 14.6357 31.4491 14.2924 31.9613 13.9438C31.1851 13.8563 30.3999 13.8928 29.6352 14.0521C28.6699 14.3352 27.7266 14.6883 26.8126 15.1084C25.8885 15.4887 25.0647 15.7845 24.7241 16.1146C24.3835 16.4447 24.5367 16.8091 24.4047 17.0652C24.2726 17.3214 23.8581 17.4693 23.066 17.6753C22.2739 17.8812 21.1042 18.1453 20.4257 18.5177C19.7471 18.89 19.594 19.3654 19.2217 20.7861C18.8811 22.088 18.3662 24.1821 17.9464 25.595C18.5443 26.2917 19.042 27.0685 19.425 27.903L19.763 28.6054Z" fill="#19C8DB"/>
<path fill-rule="evenodd" clip-rule="evenodd" d="M37.2024 13.5661C37.5034 13.4895 38.3641 13.6981 39.3543 13.6031C40.5098 13.4518 41.6202 13.0576 42.6124 12.4464C43.7012 11.8016 44.7159 11.0391 45.6383 10.1727C46.3432 9.49665 46.5835 9.07677 46.6363 9.14279C46.6891 9.20881 46.5597 9.76073 46.7155 9.93502C46.8713 10.1093 47.3175 9.89013 47.8878 9.45176C48.4581 9.01339 49.1499 8.35584 49.8126 7.8937C50.4118 7.49834 51.0475 7.16141 51.711 6.88756C52.3483 6.62536 52.9428 6.26932 53.4748 5.83125C54.0504 5.34007 54.6286 4.64026 55.2649 4.13059C55.8309 3.68471 56.4733 3.34557 57.1607 3.12974C57.731 2.94752 58.1772 2.89735 58.0742 3.09276C57.9713 3.28818 57.3191 3.72391 56.8491 4.23358C56.4302 4.69682 56.1152 5.24424 55.925 5.83917C55.7641 6.22974 55.7281 6.66057 55.822 7.07242C55.925 7.37083 56.1705 7.53456 56.1389 7.72469C56.1072 7.91483 55.7983 8.14193 55.6715 8.39017C55.614 8.53526 55.6006 8.69413 55.633 8.84682C55.6654 8.99951 55.7422 9.13923 55.8537 9.24842C56.0913 9.55475 56.5032 9.869 56.6749 10.1252C56.8465 10.3813 56.7673 10.5767 56.5085 10.6058C56.1418 10.5934 55.7818 10.5034 55.4524 10.3417C55.1039 10.1938 54.8583 10.0354 54.8002 10.1093C54.7421 10.1833 54.8794 10.5028 55.1435 10.6929C55.4075 10.8831 55.7666 10.957 55.7824 11.1894C55.7983 11.4218 55.4603 11.8073 54.8768 12.2457C54.2933 12.6841 53.4563 13.17 52.886 13.5846C52.3157 13.9992 52.012 14.3478 51.946 14.6831C51.88 15.0185 52.0543 15.3381 52.519 15.4754C52.9837 15.6127 53.7441 15.5731 54.2325 15.6682C54.721 15.7632 54.9322 15.993 54.9296 16.3653C54.927 16.7377 54.7025 17.2473 54.3593 17.9287C54.0401 18.6227 53.6404 19.2768 53.1685 19.8776C52.7804 20.2948 52.4662 20.2763 52.2681 20.1865C52.1779 20.1404 52.1003 20.073 52.0419 19.9902C51.9835 19.9074 51.9461 19.8117 51.9328 19.7112C51.88 19.492 51.8562 19.22 51.6978 19.1065C51.6466 19.077 51.5899 19.0583 51.5312 19.0517C51.4725 19.045 51.4131 19.0506 51.3566 19.0679C51.3002 19.0853 51.2479 19.114 51.203 19.1525C51.1581 19.1909 51.1216 19.2382 51.0958 19.2913C51.015 19.4627 50.9701 19.6487 50.9637 19.8381C50.9574 20.0274 50.9898 20.2161 51.0589 20.3925C51.2041 20.7569 51.5183 21.0025 51.645 21.2745C51.7006 21.4077 51.7234 21.5523 51.7115 21.6962C51.6996 21.84 51.6532 21.9789 51.5764 22.1011C51.4338 22.3652 51.212 22.5712 51.1037 22.8035C51.0505 22.9294 51.0246 23.0651 51.0278 23.2016C51.031 23.3382 51.0632 23.4726 51.1222 23.5958C51.2782 23.9835 51.5159 24.333 51.8193 24.6204C52.1541 24.9597 52.5477 25.2353 52.981 25.4338C53.2926 25.5447 53.414 25.4206 53.3744 25.0773C53.2831 24.6241 53.1451 24.1816 52.9625 23.7569C52.8018 23.4273 52.6906 23.0758 52.6325 22.7138C52.5831 22.297 52.6469 21.8746 52.8173 21.4911C53.0183 21.1235 53.3033 20.8086 53.649 20.5721C53.9685 20.3318 54.2721 20.1496 54.5098 20.176C54.7474 20.2024 54.9085 20.44 54.8583 20.9048C54.8081 21.3696 54.5467 22.0985 54.4306 22.8854C54.3424 23.6745 54.323 24.4697 54.3725 25.2621C54.3962 26.0015 54.4147 26.6195 54.6154 27.1107C54.8361 27.5747 55.2023 27.954 55.6583 28.1907C56.0899 28.4219 56.5352 28.6265 56.9917 28.8034C57.3693 28.9645 57.599 29.0965 57.6703 29.4213C57.7011 29.8347 57.6843 30.2503 57.6201 30.6599C57.581 30.8978 57.6122 31.1419 57.7099 31.3623C57.1585 31.5706 56.6281 31.8306 56.1257 32.1387C55.8457 31.8278 55.5025 31.5805 55.119 31.4133C54.7355 31.2462 54.3208 31.163 53.9025 31.1695H52.5823C52.2709 31.169 51.9612 31.2153 51.6635 31.3069C51.6186 31.188 51.5711 31.0665 51.5156 30.9451C51.2601 30.3912 50.9247 29.8779 50.5202 29.4213C50.1809 29.0448 49.78 28.7287 49.3347 28.4865C48.9646 28.3141 48.6111 28.1081 48.2786 27.8712C48.0621 27.6679 48.0621 27.446 47.9802 27.1555C47.8821 26.8242 47.7256 26.513 47.5182 26.2366C47.2492 25.927 46.935 25.6599 46.5861 25.4443C46.132 25.1248 45.4878 24.6785 44.9808 24.256C44.5773 23.9157 44.1955 23.5506 43.8375 23.1627C43.6537 22.9873 43.4841 22.7974 43.3306 22.5949C43.2435 22.4576 43.2276 22.3308 43.4257 22.352C43.8345 22.421 44.2214 22.5847 44.5557 22.8299C45.2211 23.3 45.8512 23.8181 46.4409 24.3801C47.1802 25.0482 48.0251 25.8404 48.6456 26.4082C49.2661 26.976 49.6384 27.3114 49.9209 27.4434C50.2034 27.5754 50.3829 27.5015 50.4965 27.2982C50.5681 27.1735 50.6045 27.0317 50.6017 26.888C50.5989 26.7442 50.5571 26.6039 50.4806 26.4821C50.2211 26.1671 49.8819 25.9273 49.4984 25.7876C49.1103 25.6186 48.7486 25.5235 48.5162 25.1987C48.2839 24.8739 48.1862 24.3326 48.0515 24.0025C47.9429 23.7327 47.7336 23.5159 47.468 23.3977C47.1264 23.2287 46.8179 22.9997 46.5571 22.7217C46.3114 22.3587 46.0926 21.9783 45.9023 21.5835C45.6702 21.1917 45.3386 20.8683 44.9412 20.646C44.4818 20.3819 43.8481 20.139 43.291 19.8723C42.7847 19.6553 42.3269 19.3392 41.9444 18.9427C41.697 18.6038 41.4938 18.2346 41.3398 17.8442C41.1962 17.5588 40.9758 17.3192 40.7035 17.1523C40.3972 16.9463 39.9615 16.7139 39.5813 16.4578C39.2 16.1977 38.8461 15.8995 38.5252 15.5678C38.1767 15.2113 37.7965 14.7756 37.4691 14.3927C37.1417 14.0097 36.8935 13.6453 37.205 13.5714L37.2024 13.5661ZM48.5083 13.8302C49.0555 13.9542 49.6221 13.9668 50.1743 13.8671C50.7488 13.7797 51.2929 13.552 51.7585 13.2043C52.1546 12.87 52.4499 12.432 52.6114 11.9394C52.8754 11.3267 53.1658 10.4421 53.4035 9.80034C53.6411 9.15863 53.8101 8.74403 53.8814 8.46675C53.9527 8.18947 53.9183 8.01782 53.686 8.08384C53.271 8.27115 52.8982 8.54065 52.5903 8.87607C52.152 9.30388 51.7057 9.86636 51.4311 10.0459C51.1566 10.2255 51.0457 10.0301 50.845 9.78186C50.6304 9.51661 50.3917 9.27174 50.1321 9.05036C49.9156 8.87871 49.7836 8.83646 49.678 8.90248C49.6074 8.96028 49.5575 9.03935 49.5356 9.12788C49.5137 9.21641 49.521 9.30965 49.5565 9.39366C49.7004 9.74398 49.8875 10.0749 50.1136 10.3787C50.3955 10.7681 50.6221 11.1946 50.7869 11.6462C50.8355 11.8044 50.8429 11.9724 50.8082 12.1342C50.7735 12.296 50.698 12.4462 50.5889 12.5705C50.3497 12.8386 50.0421 13.0367 49.6991 13.1436C49.3294 13.2756 48.8911 13.3231 48.6113 13.4314C48.3314 13.5397 48.2073 13.6955 48.5083 13.8064V13.8302Z" fill="#19C8DB"/>
<path fill-rule="evenodd" clip-rule="evenodd" d="M33.8571 30.2479C33.7541 30.3324 33.7488 30.3852 33.7198 30.6546C33.6882 31.1215 33.5314 31.5713 33.2656 31.9565C32.8881 32.5005 32.1884 33.1052 32.4392 33.3218C32.69 33.5383 33.8967 33.364 34.9766 33.2108C35.9197 33.0546 36.8708 32.9515 37.8255 32.9019C38.6176 32.886 39.2777 32.989 39.8216 33.0022C40.2978 32.9978 40.7733 32.9616 41.2447 32.8939C41.6857 32.849 42.1213 32.8411 42.0368 32.6008C41.9523 32.3605 41.3319 31.8878 40.8751 31.8086C40.4183 31.7294 40.1147 32.0357 39.7925 32.0859C39.6572 32.1036 39.5196 32.0876 39.392 32.0392C39.2644 31.9909 39.1507 31.9116 39.0612 31.8086C39.0031 31.6871 39.2301 31.6501 39.2988 31.5207C39.3674 31.3913 39.2803 31.1748 39.2988 31.0348C39.3173 30.8949 39.4097 30.8341 39.5443 30.7708C39.679 30.7074 39.8401 30.6414 39.8084 30.5384C39.7767 30.4354 39.5681 30.3007 39.2803 30.2426C38.8917 30.1921 38.4999 30.1701 38.108 30.1766C37.5509 30.1555 36.7878 30.1 36.2598 30.0445C35.7317 29.9891 35.4518 29.9416 35.1799 29.9257C34.921 29.9054 34.6606 29.9277 34.4089 29.9917C34.2178 30.0455 34.0386 30.1351 33.8808 30.2558L33.8571 30.2479Z" fill="#19C8DB"/>
<path fill-rule="evenodd" clip-rule="evenodd" d="M98.5795 26.9602C98.3155 27.2903 98.0145 29.8228 97.8455 31.1696C97.6766 32.5164 97.6422 32.6827 98.0277 32.7831C98.7724 32.8997 99.5269 32.9413 100.28 32.9072C101.349 32.9072 102.685 32.8491 103.662 32.7989C104.639 32.7488 105.26 32.7012 105.819 32.6959C106.338 32.691 106.857 32.7299 107.369 32.8121C107.81 32.8612 108.238 32.991 108.631 33.195C108.907 33.3744 109.118 33.6385 109.231 33.9477C109.319 34.2119 109.435 34.466 109.577 34.7056C109.709 34.8719 109.885 34.901 110.252 34.6528C110.619 34.4045 111.179 33.879 111.06 33.1581C110.942 32.4371 110.142 31.5155 109.067 30.8738C107.928 30.2493 106.681 29.847 105.392 29.6881C104.317 29.5314 103.228 29.4924 102.144 29.5719C101.506 29.6078 100.874 29.7231 100.264 29.9152C99.8311 30.0604 99.5485 30.2163 99.3004 29.3606C99.0522 28.505 98.8383 26.6301 98.5795 26.9602Z" fill="#19C8DB"/>
<path fill-rule="evenodd" clip-rule="evenodd" d="M56.1653 31.9829C56.123 31.9644 56.1125 31.7927 56.1098 31.9221C56.1106 32.2487 56.0716 32.5742 55.9937 32.8913C55.8686 33.2542 55.7039 33.6023 55.5025 33.9291C55.36 34.1932 55.3019 34.386 55.455 34.4573C55.6082 34.5286 55.9699 34.4837 56.49 34.2381C57.0766 33.9323 57.646 33.5946 58.1957 33.2267C58.6448 32.9025 59.164 32.6889 59.7112 32.6035C60.4633 32.5068 61.2232 32.4865 61.9793 32.5427C62.4463 32.5575 62.905 32.6699 63.3259 32.8728C63.7314 33.09 64.1503 33.2814 64.58 33.4459C65.0785 33.6283 65.6178 33.6685 66.1378 33.5621C66.6659 33.4327 67.1253 33.0946 67.693 32.8755C68.2606 32.6563 68.9313 32.5586 69.5042 32.3605C70.0772 32.1624 70.5604 31.864 70.3914 31.5551C70.2224 31.2461 69.4171 30.9239 68.7491 30.9292C68.1371 30.9572 67.557 31.2102 67.12 31.6396C66.687 32.0146 66.349 32.4318 65.6652 32.4873C64.9813 32.5427 63.949 32.2232 63.1886 32.0014C62.5845 31.7881 61.9552 31.6549 61.3166 31.6052C60.6934 31.5788 59.9277 31.6633 59.8591 31.4309C59.7905 31.1986 60.4109 30.6546 60.5377 30.3324C60.6644 30.0102 60.2921 29.9099 59.8723 29.997C59.4166 30.1198 58.9889 30.3297 58.6129 30.6149C58.2459 30.879 57.9792 31.1193 57.7812 31.2672C57.6535 31.383 57.4929 31.4559 57.3217 31.4758C57.1857 31.4624 57.0486 31.4624 56.9125 31.4758C56.7288 31.5222 56.5593 31.6129 56.4187 31.7399C56.2814 31.864 56.2075 32.004 56.1547 31.9881L56.1653 31.9829Z" fill="#19C8DB"/>
<path d="M104.842 54.4559V57.8731H103.506V54.8045C103.506 54.1355 103.208 53.8019 102.611 53.8036C102.392 53.7864 102.172 53.8346 101.98 53.9422C101.788 54.0499 101.632 54.2121 101.531 54.4084C101.531 54.4242 101.531 54.4849 101.531 54.5879C101.531 54.6909 101.531 54.7596 101.531 54.7913V57.8731H100.195V54.7041C100.209 54.4628 100.128 54.2257 99.9684 54.0439C99.8849 53.9592 99.7841 53.8934 99.673 53.851C99.5618 53.8086 99.4428 53.7906 99.3241 53.7983C99.1089 53.7861 98.8943 53.8312 98.7022 53.9291C98.5102 54.027 98.3476 54.1742 98.231 54.3555V57.8678H96.895V52.6417H98.231V53.2226C98.4386 52.9974 98.6929 52.8204 98.9762 52.7041C99.2595 52.5878 99.5648 52.5349 99.8707 52.5492C100.209 52.5385 100.544 52.6168 100.842 52.7764C101.092 52.909 101.287 53.1248 101.394 53.3864C101.598 53.1135 101.866 52.8946 102.174 52.7487C102.481 52.6028 102.82 52.5343 103.161 52.5492C104.275 52.5492 104.832 53.1848 104.832 54.4559H104.842ZM110.305 56.4074L110.688 57.3502C110.121 57.7997 109.412 58.0302 108.689 57.9998C108.316 58.0153 107.943 57.9566 107.592 57.8269C107.241 57.6973 106.92 57.4993 106.646 57.2446C106.387 56.9847 106.184 56.6737 106.052 56.3313C105.92 55.9889 105.86 55.6227 105.877 55.256C105.868 54.897 105.93 54.5397 106.06 54.2048C106.19 53.8699 106.384 53.5639 106.633 53.3045C106.893 53.0379 107.207 52.8295 107.554 52.693C107.9 52.5564 108.272 52.4948 108.644 52.5123C108.967 52.5049 109.289 52.5616 109.589 52.679C109.89 52.7964 110.165 52.9722 110.398 53.1962C110.634 53.4193 110.821 53.69 110.945 53.9904C111.069 54.2908 111.128 54.6142 111.118 54.9391C111.127 55.1822 111.1 55.4252 111.037 55.6601H107.261C107.281 55.8354 107.336 56.005 107.422 56.1588C107.509 56.3125 107.626 56.4474 107.765 56.5553C108.071 56.7785 108.443 56.8937 108.821 56.8828C109.354 56.8981 109.875 56.7293 110.297 56.4048L110.305 56.4074ZM108.586 53.6293C107.826 53.6293 107.368 54.0087 107.213 54.7675H109.782C109.791 54.6161 109.767 54.4646 109.712 54.3234C109.657 54.1821 109.572 54.0544 109.463 53.9489C109.345 53.8401 109.207 53.7558 109.057 53.7009C108.906 53.6461 108.746 53.6217 108.586 53.6293ZM117.173 57.8731H115.837V57.3264C115.646 57.5332 115.414 57.697 115.156 57.8072C114.897 57.9174 114.618 57.9713 114.337 57.9655C114.005 57.9782 113.674 57.9205 113.366 57.7963C113.058 57.672 112.78 57.484 112.55 57.2446C112.091 56.6833 111.852 55.975 111.875 55.2508C111.898 54.5265 112.183 53.8352 112.676 53.3045C112.951 53.0406 113.275 52.8345 113.631 52.6984C113.987 52.5623 114.366 52.499 114.746 52.5123C115.127 52.5004 115.504 52.5916 115.837 52.7764V49.7368H117.173V57.8731ZM114.617 56.7164C114.845 56.7159 115.071 56.6688 115.281 56.578C115.491 56.4872 115.68 56.3545 115.837 56.1882V54.0756C115.53 53.873 115.172 53.7639 114.804 53.7614C114.413 53.7523 114.033 53.8985 113.748 54.168C113.603 54.3094 113.49 54.48 113.416 54.6685C113.342 54.8569 113.308 55.059 113.318 55.2613C113.299 55.6486 113.432 56.028 113.69 56.3176C113.81 56.4469 113.955 56.5491 114.117 56.6175C114.279 56.6858 114.454 56.7186 114.63 56.7138L114.617 56.7164Z" fill="#19C8DB"/>
</svg>
